<?xml version="1.0" encoding="utf-8"?>
<!-- Generator: Adobe Illustrator 21.0.2, SVG Export Plug-In . SVG Version: 6.00 Build 0)  -->
<svg version="1.1" id="icons" xmlns="http://www.w3.org/2000/svg" xmlns:xlink="http://www.w3.org/1999/xlink" x="0px" y="0px"
	 width="32px" height="32px" viewBox="0 0 32 32" enable-background="new 0 0 32 32" xml:space="preserve">
<g>
	<path fill="#4CAEBC" d="M8.722,12.718c0.717-0.266,2.211,3.638-0.805,4.657C4.958,18.375,3.792,18.792,3,19
		c-0.208,0.417-0.341,0.692-0.563,1.005c-0.089,0.126-0.283,0.096-0.331-0.051l-0.277-1.229c0,0-0.641,0.004-1.259-0.042
		c-0.139-0.01-0.217-0.186-0.129-0.293c0.309-0.375,0.84-0.99,0.84-0.99l-1.177-0.587c-0.145-0.072-0.137-0.282,0.014-0.343
		l1.841-0.43C1.958,16.042,6.373,13.59,8.722,12.718z"/>
	<path fill="#3B8FA3" d="M30.323,11.308c2.954,9.162-4.382,14.35-9.946,16.948l-3.972-6.325C23,21.333,27.669,16.766,29.461,11.319
		C29.598,10.901,30.188,10.89,30.323,11.308z"/>
	<path fill="#4CAEBC" d="M8,19c-2.25,1.792-6,4.562-6,7s1.5,3.964,3.438,3.964c2.438,0,4-2.048,4-3.562
		C9.438,24.464,9.668,18.81,8,19z"/>
	<path fill="#51BAC5" d="M15,11.464c0,0-5.917,0-6.5,0c0.042,5.417-2.5,7.542-2.5,12c0,2.542,1.25,7.5,9,7.5V11.464z"/>
	<path fill="#5BD3D5" d="M15,0.964c-2.375,0-2.188-1.312-4.438-0.875C8.64,0.463,7,5.381,7,7.923c0,3.031,2.685,5.392,5.125,6.917
		c1,0.625,2.21,0.625,2.875,0.625V0.964z"/>
	<path fill="#56C7CD" d="M15,11.964c-3.188-0.062-2.912-1.675-4.188-2.312C9.438,8.964,8.375,9.527,7,7.923
		c0,3.031,2.685,5.392,5.125,6.917c1,0.625,2.21,0.625,2.875,0.625V11.964z"/>
	<path fill="#4CAEBC" d="M4.06,28.212c-0.59,0.816-1.394,1.982-1.952,2.797c-0.278,0.407,0.015,0.955,0.508,0.955h3.556
		c0.211,0,0.408-0.109,0.52-0.288l0.906-1.45c0.038-0.061,0.037-0.138-0.002-0.198l-1.391-2.122L4.06,28.212z"/>
	<path fill="#FFEAA7" d="M15,17.589c-1.625-0.006-5.667-2.131-6.632-3.939c-0.184,1.393-0.539,2.557-0.918,3.651
		c0.509,1.406,5.8,4.281,7.55,4.35V17.589z"/>
	<path fill="#FFFFFF" d="M10.812,9.652c-0.041-0.02-0.079-0.03-0.119-0.049l0.666,2.546c0.096,0.233,0.426,0.233,0.521,0
		l0.297-1.137C11.697,10.524,11.445,9.968,10.812,9.652z"/>
	<g>
		<path fill="#2B3332" d="M9.902,7.195c0.665,0.055,1.301,0.001,1.771-0.176c0.069-0.619-0.262-1.707-0.949-2.332
			c-0.562,0.375-0.603,0.582-0.759,0.902C9.66,6.212,9.411,6.688,9.902,7.195z"/>
		<path fill="#FFFFFF" d="M10.235,1.714C8.94,1.272,8.215,2.652,7.922,3.298C7.541,4.256,7.245,5.301,7.073,6.254
			c0.299,0.173,0.632,0.332,1.009,0.507c0.546,0.254,1.7,0.52,2.731,0.462C11.054,6.365,11.437,2.125,10.235,1.714z"/>
		<path fill="#EB6B48" d="M9.792,7.208C9.958,6.583,10.458,3.167,9.627,2.8C8.815,2.443,8.005,3.656,7.383,6.428
			c0.216,0.114,0.444,0.226,0.698,0.333C8.47,6.926,9.25,7.125,9.792,7.208z"/>
		
			<ellipse transform="matrix(0.1289 -0.9917 0.9917 0.1289 2.3596 13.5195)" fill="#333236" cx="8.875" cy="5.417" rx="1.045" ry="0.402"/>
	</g>
	<path fill="#47A1B4" d="M21.278,12.718c-0.717-0.266-2.211,3.638,0.805,4.657c2.958,1,4.125,1.417,4.917,1.625
		c0.208,0.417,0.341,0.692,0.563,1.005c0.089,0.126,0.283,0.096,0.331-0.051l0.277-1.229c0,0,0.641,0.004,1.259-0.042
		c0.139-0.01,0.217-0.186,0.129-0.293c-0.309-0.375-0.84-0.99-0.84-0.99l1.177-0.587c0.145-0.072,0.137-0.282-0.014-0.343
		l-1.841-0.43C28.042,16.042,23.627,13.59,21.278,12.718z"/>
	<path fill="#47A1B4" d="M22,19c2.25,1.792,6,4.562,6,7s-1.5,3.964-3.438,3.964c-2.438,0-4-2.048-4-3.562
		C20.562,24.464,20.332,18.81,22,19z"/>
	<path fill="#4CAEBC" d="M15,11.464c0,0,5.917,0,6.5,0c-0.042,5.417,2.5,7.542,2.5,12c0,2.542-1.25,7.5-9,7.5V11.464z"/>
	<path fill="#56C7CD" d="M15,0.964c2.375,0,2.188-1.312,4.438-0.875C21.36,0.463,23,5.381,23,7.923c0,3.031-2.685,5.392-5.125,6.917
		c-1,0.625-2.21,0.625-2.875,0.625V0.964z"/>
	<path fill="#51BAC5" d="M15,11.964c3.188-0.062,2.912-1.675,4.188-2.312C20.562,8.964,21.625,9.527,23,7.923
		c0,3.031-2.685,5.392-5.125,6.917c-1,0.625-2.21,0.625-2.875,0.625V11.964z"/>
	<path fill="#47A1B4" d="M25.94,28.212c0.59,0.816,1.394,1.982,1.952,2.797c0.278,0.407-0.015,0.955-0.508,0.955h-3.556
		c-0.211,0-0.408-0.109-0.52-0.288l-0.906-1.45c-0.038-0.061-0.037-0.138,0.002-0.198l1.391-2.122L25.94,28.212z"/>
	<path fill="#FFE28A" d="M15,17.589c1.625-0.006,5.667-2.131,6.632-3.939c0.184,1.393,0.539,2.557,0.918,3.651
		c-0.509,1.406-5.8,4.281-7.55,4.35V17.589z"/>
	<path fill="#FFFFFF" d="M19.188,9.652c0.041-0.02,0.079-0.03,0.119-0.049l-0.666,2.546c-0.096,0.233-0.426,0.233-0.521,0
		l-0.297-1.137C18.303,10.524,18.555,9.968,19.188,9.652z"/>
	<g>
		<path fill="#2B3332" d="M20.098,7.195c-0.665,0.055-1.301,0.001-1.771-0.176c-0.069-0.619,0.262-1.707,0.949-2.332
			c0.562,0.375,0.603,0.582,0.759,0.902C20.34,6.212,20.589,6.688,20.098,7.195z"/>
		<path fill="#FFFFFF" d="M19.765,1.714c1.295-0.443,2.021,0.937,2.313,1.584c0.382,0.958,0.677,2.003,0.849,2.956
			c-0.299,0.173-0.632,0.332-1.009,0.507c-0.546,0.254-1.7,0.52-2.731,0.462C18.946,6.365,18.563,2.125,19.765,1.714z"/>
		<path fill="#EB6B48" d="M20.208,7.208c-0.167-0.625-0.667-4.042,0.165-4.408c0.812-0.357,1.621,0.856,2.244,3.627
			c-0.216,0.114-0.444,0.226-0.698,0.333C21.53,6.926,20.75,7.125,20.208,7.208z"/>
		
			<ellipse transform="matrix(0.9917 -0.1289 0.1289 0.9917 -0.522 2.768)" fill="#333236" cx="21.125" cy="5.417" rx="0.402" ry="1.045"/>
	</g>
</g>
</svg>
