<?xml version="1.0" encoding="utf-8"?>
<!-- Generator: Adobe Illustrator 21.0.2, SVG Export Plug-In . SVG Version: 6.00 Build 0)  -->
<svg version="1.1" id="icons" xmlns="http://www.w3.org/2000/svg" xmlns:xlink="http://www.w3.org/1999/xlink" x="0px" y="0px"
	 width="32px" height="32px" viewBox="0 0 32 32" enable-background="new 0 0 32 32" xml:space="preserve">
<g>
	<path fill="#3B8FA3" d="M30.323,11.308c2.954,9.162-4.382,14.35-9.946,16.948l-3.972-6.325C23,21.333,27.669,16.766,29.461,11.319
		C29.598,10.901,30.188,10.89,30.323,11.308z"/>
	<path fill="#51BAC5" d="M8.722,12.718c0.717-0.266,2.16,4.03-0.871,5.005s-4.105,0.767-4.553,1.21
		c-0.283,0.28-0.638,0.759-0.861,1.072c-0.089,0.126-0.283,0.096-0.331-0.051l-0.32-0.979c0,0-0.505,0.007-1.216-0.102
		c-0.137-0.021-0.207-0.178-0.129-0.293c0.29-0.424,0.84-1.179,0.84-1.179l-1.177-0.587c-0.145-0.072-0.137-0.282,0.014-0.343
		l1.668-0.673C1.785,15.799,6.373,13.59,8.722,12.718z"/>
	<path fill="#51BAC5" d="M6.75,19.652C4.312,21.152,2,23.527,2,25.964s1.5,4,3.438,4c2.438,0,4-1.625,4-3.562
		S8.418,19.462,6.75,19.652z"/>
	<path fill="#51BAC5" d="M15,11.464c0,0-5.917,0-6.5,0c0.042,5.417-2.5,7.542-2.5,12c0,2.542,1.25,7.5,9,7.5V11.464z"/>
	<path fill="#FFEAA7" d="M15,19.965c-6.417-1.923-5.917-8.5-6.5-8.5c0.042,5.417-2.5,7.542-2.5,12c0,2.542,1.25,7.5,9,7.5V19.965z"
		/>
	<path fill="#5BD3D5" d="M15,1c-2.375,0-6,1.875-6,6c-3,3.5-0.438,9.464,6,9.464V1z"/>
	<path fill="#F3DC93" d="M15,12.5c-1.626,0-2.373-2.81-4.625-1.75c-1.063,0.5-0.5-2.375-2.175-2.495
		c-1.578,3.504,1.083,8.209,6.8,8.209V12.5z"/>
	<path fill="#51BAC5" d="M4.435,28.212c-0.59,0.816-1.394,1.982-1.952,2.797c-0.278,0.407,0.015,0.955,0.508,0.955h3.556
		c0.211,0,0.408-0.109,0.52-0.288l0.906-1.45c0.038-0.061,0.037-0.138-0.002-0.198l-1.391-2.122L4.435,28.212z"/>
	<path fill="#4CAEBC" d="M23.25,19.688C25.688,21.188,28,23.562,28,26s-1.5,4-3.438,4c-2.438,0-4-1.625-4-3.562
		S21.582,19.498,23.25,19.688z"/>
	<path fill="#4CAEBC" d="M15,11.464c0,0,5.917,0,6.5,0c-0.042,5.417,2.5,7.542,2.5,12c0,2.542-1.25,7.5-9,7.5V11.464z"/>
	<path fill="#4CAEBC" d="M25.565,28.248c0.59,0.816,1.394,1.982,1.952,2.797C27.796,31.451,27.502,32,27.009,32h-3.556
		c-0.211,0-0.408-0.109-0.52-0.288l-0.906-1.45c-0.038-0.061-0.037-0.138,0.002-0.198l1.391-2.122L25.565,28.248z"/>
	<path fill="#4CAEBC" d="M21.278,12.718c-0.717-0.266-2.16,4.03,0.871,5.005s4.105,0.767,4.553,1.21
		c0.283,0.28,0.638,0.759,0.861,1.072c0.089,0.126,0.283,0.096,0.331-0.051l0.32-0.979c0,0,0.505,0.007,1.216-0.102
		c0.137-0.021,0.207-0.178,0.129-0.293c-0.29-0.424-0.84-1.179-0.84-1.179l1.177-0.587c0.145-0.072,0.137-0.282-0.014-0.343
		l-1.668-0.673C28.215,15.799,23.627,13.59,21.278,12.718z"/>
	<path fill="#9A3644" d="M14,3.781C14,3.094,14.625,0,15,0v6.719C15,7.224,14,4.469,14,3.781z"/>
	<path fill="#2B3332" d="M9.962,3.714C9.377,4.586,9.001,5.675,9,6.998c0.707,0.204,2.049,0.44,4.062,0.158
		C12.718,5.876,11.139,4.471,9.962,3.714z"/>
	<path fill="#FFFFFF" d="M12.251,7.237c0.115-0.332,0.186-0.712,0.186-1.122c0-0.058-0.008-0.113-0.01-0.17
		c-0.52-0.699-1.249-1.356-1.934-1.862c-0.457,0.364-0.774,1.134-0.774,2.032c0,0.388,0.064,0.747,0.168,1.066
		C10.488,7.271,11.273,7.315,12.251,7.237z"/>
	<path fill="#EB6B48" d="M11.28,4.727c-0.234,0.18-0.405,0.706-0.405,1.335c0,0.518,0.117,0.966,0.288,1.21
		c0.186,0.002,0.381-0.001,0.587-0.009c0.168-0.246,0.281-0.689,0.281-1.201c0-0.247-0.029-0.476-0.075-0.678
		C11.744,5.154,11.515,4.936,11.28,4.727z"/>
	<ellipse fill="#010101" cx="11.453" cy="6.094" rx="0.141" ry="0.344"/>
	<path fill="#FFFFFF" d="M9.895,9.427l-0.72,2.752c-0.065,0.158,0.051,0.33,0.221,0.33h1.518c0.17,0,0.286-0.173,0.221-0.33
		l-0.72-2.752C10.32,9.194,9.99,9.194,9.895,9.427z"/>
	<path fill="#FFEAA7" d="M15,12.5c-1.626,0-2.373-2.81-4.625-1.75c-1.063,0.5-0.5-2.375-2.175-2.495
		c-1.578,3.504,1.083,8.209,6.8,8.209V12.5z"/>
	<path fill="#56C7CD" d="M15.001,1c2.375,0,6,1.875,6,6c3,3.5,0.438,9.464-6,9.464V1z"/>
	<path fill="#F3DC93" d="M15.001,12.5c1.626,0,2.373-2.81,4.625-1.75c1.062,0.5,0.5-2.375,2.175-2.495
		c1.578,3.504-1.083,8.209-6.8,8.209V12.5z"/>
	<path fill="#8A323F" d="M15.001,6.719V0c0.375,0,1,3.094,1,3.781S15.001,7.224,15.001,6.719z"/>
	<path fill="#2B3332" d="M20.039,3.714c0.585,0.872,0.961,1.961,0.962,3.284c-0.707,0.204-2.049,0.44-4.062,0.158
		C17.283,5.876,18.862,4.471,20.039,3.714z"/>
	<path fill="#FFFFFF" d="M17.75,7.237c-0.115-0.332-0.186-0.712-0.186-1.122c0-0.058,0.008-0.113,0.01-0.17
		c0.52-0.699,1.249-1.356,1.934-1.862c0.457,0.364,0.774,1.134,0.774,2.032c0,0.388-0.064,0.747-0.168,1.066
		C19.513,7.271,18.728,7.315,17.75,7.237z"/>
	<path fill="#EB6B48" d="M18.721,4.727c0.234,0.18,0.405,0.706,0.405,1.335c0,0.518-0.117,0.966-0.288,1.21
		c-0.186,0.002-0.381-0.001-0.587-0.009c-0.168-0.246-0.281-0.689-0.281-1.201c0-0.247,0.029-0.476,0.075-0.678
		C18.257,5.154,18.486,4.936,18.721,4.727z"/>
	<ellipse fill="#010101" cx="18.548" cy="6.094" rx="0.141" ry="0.344"/>
	<path fill="#FFFFFF" d="M20.107,9.427l0.72,2.752c0.065,0.158-0.051,0.33-0.221,0.33h-1.518c-0.17,0-0.286-0.173-0.221-0.33
		l0.72-2.752C19.681,9.194,20.011,9.194,20.107,9.427z"/>
	<path fill="#FFE28A" d="M15.001,12.5c1.626,0,2.373-2.81,4.625-1.75c1.062,0.5,0.5-2.375,2.175-2.495
		c1.578,3.504-1.083,8.209-6.8,8.209V12.5z"/>
	<path fill="#FFE28A" d="M15,19.965c4.125,1.41,6.99,0.279,8.281-0.59C23.437,19.906,24,21.155,24,23.464c0,2.542-1.25,7.5-9,7.5
		V19.965z"/>
	<path fill="#51BAC5" d="M9.802,18.479c-0.331-0.376-0.866-0.497-1.326-0.299l-1.577,0.68c-0.329,0.947-0.623,1.9-0.779,2.971
		l0.026,0.276c0.046,0.499,0.409,0.911,0.897,1.021l1.934,0.435c0.489,0.11,0.993-0.107,1.248-0.538l1.012-1.704
		c0.256-0.431,0.205-0.977-0.126-1.354L9.802,18.479z"/>
	<path fill="#4CAEBC" d="M19.998,23.022l0.95-0.958c0.308-0.31,0.381-0.783,0.181-1.172l-0.617-1.199
		c-0.2-0.389-0.627-0.604-1.059-0.534l-1.331,0.216c-0.431,0.07-0.768,0.41-0.835,0.842l-0.205,1.333
		c-0.067,0.432,0.152,0.858,0.543,1.054l1.204,0.607C19.218,23.409,19.691,23.332,19.998,23.022z"/>
	<g>
		<path fill="#51BAC5" d="M14.247,24.981l-1.174,3.284c-0.186,0.521,0.2,1.069,0.753,1.069H15V24.45
			C14.687,24.45,14.373,24.627,14.247,24.981z"/>
		<path fill="#4CAEBC" d="M16.927,28.264l-1.174-3.284c-0.126-0.354-0.44-0.53-0.753-0.53v4.883h1.174
			C16.727,29.333,17.113,28.785,16.927,28.264z"/>
	</g>
</g>
</svg>
