<?xml version="1.0" encoding="utf-8"?>
<!-- Generator: Adobe Illustrator 21.0.2, SVG Export Plug-In . SVG Version: 6.00 Build 0)  -->
<svg version="1.1" id="icons" xmlns="http://www.w3.org/2000/svg" xmlns:xlink="http://www.w3.org/1999/xlink" x="0px" y="0px"
	 width="32px" height="32px" viewBox="0 0 32 32" enable-background="new 0 0 32 32" xml:space="preserve">
<g>
	<path fill="#E0C193" d="M24.5,15c-1.511,2.519-1.466,6-8.5,6v9c4.422,0,10.976-1.437,11.716-9.788
		c0.43-4.855,2.008-5.174,3.016-5.207c0.115-0.004,0.159-0.147,0.073-0.223C30.582,14.584,30.31,14.5,30,14.5
		c0.147-0.362,0.941-0.761,1.894-0.949c0.112-0.022,0.141-0.176,0.04-0.229c-0.787-0.418-2.203-0.297-2.872-0.094
		c0.026-0.269,0.245-0.556,0.67-0.785c0.098-0.053,0.086-0.195-0.019-0.23C27.642,11.525,25.934,12.609,24.5,15z"/>
	<g>
		<g>
			<path fill="#914C39" d="M25.542,19.836c-0.959-0.959-1.552-2.131-1.789-3.339c-0.489,1.082-0.999,2.178-2.051,3.021
				c0.288,1.05,0.835,2.059,1.676,2.9c0.965,0.965,2.147,1.554,3.363,1.79c0.383-0.865,0.661-1.87,0.837-3
				C26.846,20.89,26.149,20.443,25.542,19.836z"/>
		</g>
		<g>
			<path fill="#914C39" d="M25.542,19.836c-0.959-0.959-1.552-2.131-1.789-3.339c-0.489,1.082-0.999,2.178-2.051,3.021
				c0.288,1.05,0.835,2.059,1.676,2.9c0.965,0.965,2.147,1.554,3.363,1.79c0.383-0.865,0.661-1.87,0.837-3
				C26.846,20.89,26.149,20.443,25.542,19.836z"/>
		</g>
	</g>
	<g>
		<g>
			<path fill="#914C39" d="M19.582,20.567C18.646,20.837,17.488,21,16,21v9c2.694,0,6.174-0.544,8.654-2.849
				C22.591,26.099,20.386,23.233,19.582,20.567z"/>
		</g>
		<g>
			<path fill="#914C39" d="M19.582,20.567C18.646,20.837,17.488,21,16,21v9c2.694,0,6.174-0.544,8.654-2.849
				C22.591,26.099,20.386,23.233,19.582,20.567z"/>
		</g>
	</g>
	<g>
		<g>
			<path fill="#F5DEB9" d="M11,15.25c0-1.595-1-4.75-1-7.75C10,4.098,12.409,1,16,1v29c-5,0-7-3.25-7-7.5C9,18.871,11,17.5,11,15.25
				z"/>
		</g>
		<g>
			<path fill="#F5DEB9" d="M11,15.25c0-1.595-1-4.75-1-7.75C10,4.098,12.409,1,16,1v29c-5,0-7-3.25-7-7.5C9,18.871,11,17.5,11,15.25
				z"/>
		</g>
	</g>
	<path fill="#99533D" d="M13.062,2.296C12.201,1.619,11.184,0.375,4.984,0C4.863-0.007,4.772,0.131,4.835,0.235
		c1.631,2.691,4.44,4.362,5.704,5.01C10.539,5.246,11.938,3.233,13.062,2.296z"/>
	<path fill="#EACEA1" d="M12.717,28.731c-1.19,0-3.255,0.768-3.255,2.269c0,0.942,2.012,1,3.081,1s3.207-0.062,3.207-2.2
		C15.75,28.823,14.734,28.731,12.717,28.731z"/>
	<path fill="#E5C79A" d="M19.283,28.731c1.19,0,3.255,0.768,3.255,2.269c0,0.942-2.012,1-3.081,1s-3.207-0.062-3.207-2.2
		C16.25,28.823,17.266,28.731,19.283,28.731z"/>
	<g>
		<ellipse fill="#377360" cx="14" cy="5.925" rx="1" ry="1.075"/>
		<ellipse fill="#FFFFFF" cx="14" cy="5.501" rx="0.375" ry="0.5"/>
	</g>
	<path fill="#A93949" d="M16,7.971v2.279c-0.624,0-1-0.504-1-0.9c0-0.195,0-0.434,0-0.631c0-0.072,0.016-0.143,0.096-0.201
		C15.474,8.242,15.871,7.971,16,7.971z"/>
	<path fill="#A55F49" d="M13.604,8.775c-0.004-0.024-0.026-0.041-0.05-0.041l-1.837,0.045c-0.068-0.009-0.124,0.05-0.112,0.117
		l0.197,1.057c0.011,0.06,0.074,0.096,0.131,0.076l1.74-0.658c0.023-0.009,0.036-0.032,0.031-0.056L13.604,8.775z"/>
	<path fill="#A55F49" d="M13.926,10.024c-0.012-0.021-0.038-0.03-0.061-0.021l-1.716,0.657c-0.067,0.014-0.1,0.089-0.066,0.148
		l0.54,0.93c0.031,0.053,0.102,0.066,0.149,0.027l1.419-1.202c0.018-0.016,0.023-0.042,0.011-0.063L13.926,10.024z"/>
	<g>
		<g>
			<path fill="#EACEA1" d="M21,15.25c0-1.595,1-4.75,1-7.75C22,4.098,19.591,1,16,1v29c5,0,7-3.25,7-7.5C23,18.871,21,17.5,21,15.25
				z"/>
		</g>
		<g>
			<path fill="#EACEA1" d="M21,15.25c0-1.595,1-4.75,1-7.75C22,4.098,19.591,1,16,1v29c5,0,7-3.25,7-7.5C23,18.871,21,17.5,21,15.25
				z"/>
		</g>
	</g>
	<g>
		<g>
			<path fill="#99533D" d="M16,27.81V30c3.797,0,5.859-1.844,6.586-4.466C21.011,26.812,19.406,27.81,16,27.81z"/>
		</g>
		<g>
			<path fill="#99533D" d="M16,27.81V30c3.797,0,5.859-1.844,6.586-4.466C21.011,26.812,19.406,27.81,16,27.81z"/>
		</g>
	</g>
	<g>
		<g>
			<path fill="#A55F49" d="M9.012,22.106c0.053-1.28,0.356-2.259,0.713-3.112C10.75,20.188,12.812,21,16,21v3.5
				C12.188,24.5,10.062,23.438,9.012,22.106z"/>
		</g>
		<g>
			<path fill="#A55F49" d="M9.012,22.106c0.053-1.28,0.356-2.259,0.713-3.112C10.75,20.188,12.812,21,16,21v3.5
				C12.188,24.5,10.062,23.438,9.012,22.106z"/>
		</g>
	</g>
	<g>
		<g>
			<path fill="#99533D" d="M22.988,22.106c-0.053-1.28-0.356-2.259-0.713-3.112C21.25,20.188,19.188,21,16,21v3.5
				C19.812,24.5,21.938,23.438,22.988,22.106z"/>
		</g>
		<g>
			<path fill="#99533D" d="M22.988,22.106c-0.053-1.28-0.356-2.259-0.713-3.112C21.25,20.188,19.188,21,16,21v3.5
				C19.812,24.5,21.938,23.438,22.988,22.106z"/>
		</g>
	</g>
	<g>
		<g>
			<path fill="#A55F49" d="M16,27.81V30c-3.797,0-5.859-1.844-6.586-4.466C10.989,26.812,12.594,27.81,16,27.81z"/>
		</g>
		<g>
			<path fill="#A55F49" d="M16,27.81V30c-3.797,0-5.859-1.844-6.586-4.466C10.989,26.812,12.594,27.81,16,27.81z"/>
		</g>
	</g>
	<path fill="#F5DEB9" d="M4.835,0.235c0.202,0.333,0.422,0.651,0.656,0.953L6.452,1.34c0.114,0.016,0.203-0.099,0.159-0.205
		L6.064,0.079C5.723,0.05,5.364,0.023,4.984,0C4.863-0.007,4.772,0.131,4.835,0.235z"/>
	<path fill="#A55F49" d="M10,7.5c0,2.814,0.87,5.748,0.979,7.419c0.596-0.239-1.329-7.223,0.73-8.873
		c0.079-0.063,0.11-0.16,0.086-0.259c-0.342-1.41,0.78-2.65,2.067-2.65c0.945,0,1.747,0.613,2.029,1.463
		C15.91,4.657,15.955,4.684,16,4.684V1C12.409,1,10,4.098,10,7.5z"/>
	<path fill="#914C39" d="M18.938,2.296C19.799,1.619,20.816,0.375,27.016,0c0.122-0.007,0.212,0.131,0.149,0.235
		c-1.631,2.691-4.44,4.362-5.704,5.01C21.461,5.246,20.062,3.233,18.938,2.296z"/>
	<path fill="#99533D" d="M18.396,8.775c0.004-0.024,0.026-0.041,0.05-0.041l1.837,0.045c0.068-0.009,0.124,0.05,0.112,0.117
		l-0.197,1.057c-0.011,0.06-0.074,0.096-0.131,0.076l-1.74-0.658c-0.023-0.009-0.036-0.032-0.031-0.056L18.396,8.775z"/>
	<path fill="#99533D" d="M18.074,10.024c0.012-0.021,0.038-0.03,0.061-0.021l1.716,0.657c0.067,0.014,0.1,0.089,0.066,0.148
		l-0.54,0.93c-0.031,0.053-0.102,0.066-0.149,0.027l-1.419-1.202c-0.018-0.016-0.023-0.042-0.011-0.063L18.074,10.024z"/>
	<path fill="#EFD4A7" d="M27.165,0.235c-0.202,0.333-0.422,0.651-0.656,0.953L25.548,1.34c-0.114,0.016-0.203-0.099-0.159-0.205
		l0.547-1.056C26.277,0.05,26.636,0.023,27.016,0C27.137-0.007,27.228,0.131,27.165,0.235z"/>
	<path fill="#99533D" d="M22,7.5c0,2.814-0.87,5.748-0.979,7.419c-0.596-0.239,1.329-7.223-0.73-8.873
		c-0.079-0.063-0.11-0.16-0.086-0.259c0.342-1.41-0.78-2.65-2.067-2.65c-0.945,0-1.747,0.613-2.029,1.463
		C16.09,4.657,16.045,4.684,16,4.684V1C19.591,1,22,4.098,22,7.5z"/>
	<g>
		<path fill="#F5DEB9" d="M11.25,14.753C9.25,14.625,5,16,5,18.398c0,0.74,0.625,1.599,1.75,1.599c1.129,0,2.25-3.372,4.5-3.256
			C11.25,16.141,11.25,15.569,11.25,14.753z"/>
	</g>
	<g>
		<g>
			<path fill="#A55F49" d="M6.201,16.4c0-0.032,0.009-0.061,0.01-0.092C5.497,16.861,5,17.557,5,18.398
				c0,0.74,0.625,1.599,1.75,1.599c0.499,0,1.006-0.637,1.562-1.347C6.955,18.466,6.201,17.367,6.201,16.4z"/>
		</g>
		<g>
			<path fill="#A55F49" d="M6.201,16.4c0-0.032,0.009-0.061,0.01-0.092C5.497,16.861,5,17.557,5,18.398
				c0,0.74,0.625,1.599,1.75,1.599c0.499,0,1.006-0.637,1.562-1.347C6.955,18.466,6.201,17.367,6.201,16.4z"/>
		</g>
	</g>
	<g>
		<g>
			<path fill="#EACEA1" d="M20.75,14.753c2.188,0,6.25,1.247,6.25,3.645c0,0.74-0.625,1.599-1.75,1.599
				c-1.129,0-2.062-3.256-4.5-3.256C20.75,16.141,20.75,15.569,20.75,14.753z"/>
		</g>
		<g>
			<path fill="#EACEA1" d="M20.75,14.753c2.188,0,6.25,1.247,6.25,3.645c0,0.74-0.625,1.599-1.75,1.599
				c-1.129,0-2.062-3.256-4.5-3.256C20.75,16.141,20.75,15.569,20.75,14.753z"/>
		</g>
	</g>
	<g>
		<g>
			<path fill="#99533D" d="M25.799,16.4c0-0.032-0.009-0.061-0.01-0.092c0.714,0.554,1.21,1.249,1.21,2.09
				c0,0.74-0.625,1.599-1.75,1.599c-0.499,0-1.006-0.637-1.562-1.347C25.045,18.466,25.799,17.367,25.799,16.4z"/>
		</g>
		<g>
			<path fill="#99533D" d="M25.799,16.4c0-0.032-0.009-0.061-0.01-0.092c0.714,0.554,1.21,1.249,1.21,2.09
				c0,0.74-0.625,1.599-1.75,1.599c-0.499,0-1.006-0.637-1.562-1.347C25.045,18.466,25.799,17.367,25.799,16.4z"/>
		</g>
	</g>
	<g>
		<g>
			<ellipse fill="#246C57" cx="18" cy="5.925" rx="1" ry="1.075"/>
		</g>
		<g>
			<ellipse fill="#315D52" cx="18" cy="5.925" rx="1" ry="1.075"/>
		</g>
	</g>
	<ellipse fill="#FFFFFF" cx="18" cy="5.501" rx="0.375" ry="0.5"/>
	<path fill="#9A3644" d="M16,7.971v2.279c0.624,0,1-0.504,1-0.9c0-0.195,0-0.434,0-0.631c0-0.072-0.016-0.143-0.096-0.201
		C16.526,8.242,16.129,7.971,16,7.971z"/>
</g>
</svg>
