<?xml version="1.0" encoding="utf-8"?>
<!-- Generator: Adobe Illustrator 21.0.2, SVG Export Plug-In . SVG Version: 6.00 Build 0)  -->
<svg version="1.1" id="icons" xmlns="http://www.w3.org/2000/svg" xmlns:xlink="http://www.w3.org/1999/xlink" x="0px" y="0px"
	 width="32px" height="32px" viewBox="0 0 32 32" enable-background="new 0 0 32 32" xml:space="preserve">
<g>
	<path fill="#78DF7C" d="M16,5.5v17.702c-5.937,0-10.75-3.963-10.75-8.851S10.063,5.5,16,5.5z"/>
	<g>
		<path fill="#0E616D" d="M16,6.711V5.5c-3.541,0-6.683,1.41-8.641,3.585C8.485,8.277,11.992,6.711,16,6.711z"/>
	</g>
	<g>
		<path fill="#D9F07D" d="M8.709,19.125c-0.559,0.059-4.562,1.25-5.25,1.625s-3.198,5.222-2.312,5.812
			c0.938,0.625,3.125-3.312,4.375-3.625s3.573-1.075,4-1.188C10.709,21.438,9.897,19,8.709,19.125z"/>
		<path fill="#0E616D" d="M5.707,19.95c-1.007,0.314-1.947,0.636-2.248,0.8c-0.261,0.142-0.783,0.927-1.284,1.879
			c0.909,0.621,1.326,1.037,1.725,1.683c0.594-0.674,1.169-1.262,1.621-1.375c0.523-0.131,1.233-0.34,1.914-0.548
			C6.418,22,6.001,20.917,5.707,19.95z"/>
		<path fill="#D9F07D" d="M6.647,15.625c-0.562,0-3.108,0.663-4.062,0.875c-1.125,0.25-3.261,4.597-2.375,5.188
			c0.938,0.625,2.41-2.638,3.687-2.812c1.376-0.188,3.124-0.579,3.563-0.625C8.648,18.125,8.273,15.625,6.647,15.625z"/>
		<path fill="#0E616D" d="M4.502,16.044c-0.744,0.176-1.49,0.361-1.917,0.456c-0.395,0.088-0.914,0.68-1.383,1.437
			c0.592,0.854,0.925,1.271,1.144,2.15c0.518-0.599,1.049-1.144,1.551-1.212c0.383-0.052,0.795-0.12,1.199-0.192
			C4.876,18.25,4.46,17.333,4.502,16.044z"/>
		<path fill="#D9F07D" d="M6.147,12.188c-0.562,0-1.949-0.239-2.687-0.062C2.339,12.393,0.247,15.469,1.169,16
			c0.978,0.562,1.627-1.625,2.915-1.625c0.603,0,2.06,0.296,2.5,0.25C7.773,14.5,7.773,12.188,6.147,12.188z"/>
		<path fill="#0E616D" d="M5.585,12.152c-0.283-0.025-0.612-0.058-0.939-0.077c-0.437-0.025-0.871-0.026-1.187,0.05
			c-0.42,0.1-0.977,0.596-1.461,1.204c0.627,0.63,0.794,0.88,1.189,1.406c0.267-0.211,0.56-0.36,0.896-0.36
			c0.119,0,0.272,0.012,0.443,0.03c0.181,0.019,0.384,0.046,0.591,0.074C5.043,13.917,4.96,12.958,5.585,12.152z"/>
	</g>
	<path fill="#90FB89" d="M16,18.333v10.583c-3.899,0-7.059-2.369-7.059-5.292C8.941,20.702,12.101,18.333,16,18.333z"/>
	<path fill="#E55D53" d="M14,27.5c0.766,0,1.25,0.417,1.25,1.5c0,0.833-0.666,1-0.666,1.655c0,0.504,0.197,0.813,0.405,1.136
		c0.059,0.091-0.039,0.22-0.147,0.207C14,31.902,12.5,31.017,12.5,29.5C12.5,28.104,13.125,27.5,14,27.5z"/>
	<circle fill="#373F3F" cx="10.687" cy="24.5" r="2.188"/>
	<circle fill="#FFFFFF" cx="10.687" cy="24.5" r="1.062"/>
	<ellipse fill="#0E616D" cx="10.979" cy="10.698" rx="1.43" ry="1.106"/>
	<path fill="#6CD275" d="M26.75,14.351c0,4.888-4.813,8.851-10.75,8.851V5.5C21.937,5.5,26.75,9.463,26.75,14.351z"/>
	<path fill="#005865" d="M16,6.711V5.5c3.541,0,6.683,1.41,8.641,3.585C23.515,8.277,20.008,6.711,16,6.711z"/>
	<g>
		<path fill="#CBEB6B" d="M23.291,19.125c0.559,0.059,4.562,1.25,5.25,1.625s3.198,5.222,2.312,5.812
			c-0.938,0.625-3.125-3.312-4.375-3.625s-3.573-1.075-4-1.188C21.291,21.438,22.103,19,23.291,19.125z"/>
		<path fill="#005865" d="M26.293,19.95c1.007,0.314,1.947,0.636,2.248,0.8c0.261,0.142,0.783,0.927,1.284,1.879
			c-0.909,0.621-1.326,1.037-1.725,1.683c-0.594-0.674-1.169-1.262-1.621-1.375c-0.523-0.131-1.233-0.34-1.914-0.548
			C25.582,22,25.999,20.917,26.293,19.95z"/>
		<path fill="#CBEB6B" d="M25.353,15.625c0.562,0,3.108,0.663,4.062,0.875c1.125,0.25,3.261,4.597,2.375,5.188
			c-0.938,0.625-2.41-2.638-3.687-2.812c-1.376-0.188-3.124-0.579-3.563-0.625C23.352,18.125,23.727,15.625,25.353,15.625z"/>
		<path fill="#005865" d="M27.498,16.044c0.744,0.176,1.49,0.361,1.917,0.456c0.395,0.088,0.914,0.68,1.383,1.437
			c-0.592,0.854-0.925,1.271-1.144,2.15c-0.518-0.599-1.049-1.144-1.551-1.212c-0.383-0.052-0.795-0.12-1.199-0.192
			C27.124,18.25,27.54,17.333,27.498,16.044z"/>
		<path fill="#CBEB6B" d="M25.853,12.188c0.562,0,1.949-0.239,2.688-0.062c1.121,0.268,3.213,3.344,2.29,3.875
			c-0.978,0.562-1.627-1.625-2.915-1.625c-0.603,0-2.06,0.296-2.5,0.25C24.227,14.5,24.227,12.188,25.853,12.188z"/>
		<path fill="#005865" d="M26.415,12.152c0.661-0.059,1.574-0.159,2.126-0.027c0.42,0.1,0.977,0.596,1.461,1.204
			c-0.627,0.63-0.794,0.88-1.189,1.406c-0.267-0.211-0.56-0.36-0.896-0.36c-0.245,0-0.632,0.049-1.034,0.104
			C26.957,13.917,27.04,12.958,26.415,12.152z"/>
	</g>
	<path fill="#84ED82" d="M23.059,23.625c0,2.922-3.161,5.292-7.059,5.292V18.333C19.899,18.333,23.059,20.702,23.059,23.625z"/>
	<path fill="#D64F45" d="M18.312,27.5c-0.766,0-1.25,0.417-1.25,1.5c0,0.833,0.666,1,0.666,1.655c0,0.504-0.197,0.813-0.405,1.136
		c-0.059,0.091,0.039,0.22,0.147,0.207c0.844-0.097,2.343-0.983,2.343-2.499C19.812,28.104,19.188,27.5,18.312,27.5z"/>
	<circle fill="#2B3332" cx="21.312" cy="24.5" r="2.188"/>
	<circle fill="#F7F7F7" cx="21.312" cy="24.5" r="1.062"/>
	<ellipse fill="#005865" cx="21.021" cy="10.698" rx="1.43" ry="1.106"/>
	<path fill="#FFFFFF" d="M16,19.042c-0.671,0-1.75,2.542-1.833,2.875c-0.083,0.333,1.175,0.708,1.833,0.708V19.042z"/>
	<path fill="#F7F7F7" d="M16,19.042c0.659,0,1.75,2.542,1.833,2.875c0.083,0.333-1.163,0.708-1.833,0.708V19.042z"/>
	<g>
		<path fill="#005865" d="M21.478,15.199c-1.089-1.088-3.341-1.848-5.478-1.848v1.5c1.954,0,3.734,0.726,4.417,1.408
			c0.146,0.146,0.338,0.22,0.53,0.22s0.384-0.073,0.53-0.22C21.771,15.966,21.771,15.491,21.478,15.199z"/>
	</g>
	<path fill="#0E616D" d="M16,13.351c-2.137,0-4.389,0.76-5.478,1.848c-0.293,0.292-0.293,0.768,0,1.061
		c0.146,0.146,0.338,0.22,0.53,0.22c0.191,0,0.384-0.073,0.53-0.22c0.683-0.683,2.463-1.408,4.417-1.408V13.351z"/>
</g>
</svg>
