<?xml version="1.0" encoding="utf-8"?>
<!-- Generator: Adobe Illustrator 21.0.2, SVG Export Plug-In . SVG Version: 6.00 Build 0)  -->
<svg version="1.1" id="icons" xmlns="http://www.w3.org/2000/svg" xmlns:xlink="http://www.w3.org/1999/xlink" x="0px" y="0px"
	 width="32px" height="32px" viewBox="0 0 32 32" enable-background="new 0 0 32 32" xml:space="preserve">
<g>
	<g>
		<path fill="#C84054" d="M16,22.667c-3.667,0-9-3.833-9-9.917C7,7.833,11.5,4,16,4V22.667z"/>
		<path fill="#373F3F" d="M7.122,14.235c0.779,5.212,5.52,8.432,8.878,8.432V9.083C12.488,9.083,8.977,11.138,7.122,14.235z"/>
		<path fill="#C84054" d="M8.247,17.541c1.79,3.239,5.176,5.125,7.753,5.125v-8.792C13.099,13.875,10.214,15.308,8.247,17.541z"/>
		<path fill="#373F3F" d="M16,22.667v-5.292c-2.126,0-4.24,1.033-5.994,2.462C11.813,21.644,14.119,22.667,16,22.667z"/>
	</g>
	<path fill="#7A63AD" d="M10.001,18.125c-1.085-0.333-1.168-0.375-1.917-0.5c-0.375,1.917,1.229,5.312,0.229,6.396
		c-1,1.083-1.271,1.667-2.188,2.75c-0.664,0.784-1.462,2.362-1.899,3c-0.074,0.108-0.242,0.045-0.227-0.085
		C4.12,28.684,5.71,16.458,7.543,16.167c0.938-0.149,2.401,0.401,2.958,0.958C10.661,17.284,10.217,18.191,10.001,18.125z"/>
	<path fill="#DDAA5F" d="M8.394,23.904c-0.54-0.341-1.127-0.639-1.764-0.872c-0.497-0.182-0.997-0.317-1.494-0.41
		c-0.288,1.44-0.533,2.899-0.721,4.12c0.258,0.07,0.515,0.135,0.773,0.23c0.207,0.076,0.397,0.172,0.593,0.26
		c0.117-0.169,0.233-0.329,0.345-0.461c0.917-1.083,1.188-1.667,2.188-2.75C8.346,23.986,8.368,23.943,8.394,23.904z"/>
	<path fill="#DDAA5F" d="M6.834,16.854c-0.436,0.756-0.846,2.061-1.213,3.563c1.117,0.27,2.123,0.747,2.927,1.396
		c-0.211-1.376-0.677-3.017-0.469-4.155C7.704,17.354,7.289,17.081,6.834,16.854z"/>
	<path fill="#F0C877" d="M11.375,21.25c-0.751-0.489-2.11-1.42-3.042-1.208c-1.499,0.34-0.957,3.489-1.957,4.572
		s-2.25,1.417-3.167,2.5c-0.664,0.784-1.546,2.049-1.982,2.688c-0.074,0.108-0.222,0.046-0.227-0.085
		c-0.043-1.175-0.177-3.448,1.542-6.186c2.25-3.583,4.624-5.155,5.75-5.25c0.673-0.056,3.395,1.155,4.124,1.803
		C12.792,20.417,11.564,21.373,11.375,21.25z"/>
	<path fill="#E85160" d="M16,30c-0.5,0-6-1.417-6-6c0-1.667,1.5-5,6-5V30z"/>
	<path fill="#F7F7F7" d="M16,16.75c-0.641,0-1.75,4.833-1.833,5.167c-0.083,0.333,1.457,0.708,1.833,0.708V16.75z"/>
	<path fill="#9D85D3" d="M4.477,23.679c-0.52-0.278-1.051-0.495-1.585-0.664c-0.116,0.174-0.233,0.331-0.349,0.516
		c-0.757,1.206-1.143,2.314-1.348,3.285c0.438,0.154,0.874,0.333,1.303,0.562c0.117,0.063,0.22,0.139,0.333,0.206
		c0.13-0.167,0.259-0.328,0.379-0.47c0.85-1.005,1.985-1.372,2.943-2.283C5.653,24.401,5.096,24.009,4.477,23.679z"/>
	<path fill="#9D85D3" d="M4.661,20.746c0.126,0.06,0.254,0.106,0.379,0.173c0.787,0.421,1.47,0.941,2.06,1.516
		c0.19-1.108,0.385-2.201,1.233-2.393c0.673-0.153,1.567,0.291,2.295,0.733c-0.746-0.822-1.382-1.61-1.923-2.446
		c-0.176-0.059-0.331-0.056-0.413-0.049C7.522,18.345,6.162,19.124,4.661,20.746z"/>
	
		<ellipse transform="matrix(0.9343 -0.3565 0.3565 0.9343 -1.7539 4.9001)" fill="#373F3F" cx="12.417" cy="7.208" rx="2.125" ry="1.292"/>
	<g>
		<path fill="#F0C877" d="M13.632,11.96c0.042-0.208-1.361-1.208-2.667-0.625c-0.403-1.208-3.262-9.88-9.5-11.25
			c-5.722-1.256,7.058,11.779,8.542,13.277c0.086,0.087,0.212,0.107,0.325,0.057L13.632,11.96z"/>
		<path fill="#9D85D3" d="M4.954,1.794C3.733,2.307,2.631,3.04,1.681,3.934C3,5.758,4.881,7.912,6.537,9.716
			c0.824-0.873,1.784-1.613,2.853-2.18C8.406,5.591,6.944,3.346,4.954,1.794z"/>
	</g>
	<path fill="#77658C" d="M11.899,21.825c1.843-0.579,2.479,3.272,2.517,3.597s-0.879,1.126-1.186,1.202s-1.581-0.174-1.937-0.649
		C10.891,25.439,10.812,22.167,11.899,21.825z"/>
	<path fill="#080908" d="M12.153,22.657c1.226-0.31,1.623,2.142,1.648,2.355c0.025,0.213-0.575,0.737-0.776,0.787
		c-0.201,0.049-1.035-0.114-1.268-0.425C11.493,25.023,11.375,22.854,12.153,22.657z"/>
	<path fill="#77658C" d="M11.931,21.825c1.843-0.579,2.479,3.272,2.517,3.597s-0.879,1.126-1.186,1.202s-1.581-0.174-1.937-0.649
		C10.923,25.439,10.844,22.167,11.931,21.825z"/>
	<path fill="#080908" d="M12.222,22.999c1.091-0.276,1.444,1.906,1.466,2.095c0.022,0.189-0.512,0.656-0.691,0.7
		c-0.179,0.044-0.921-0.101-1.128-0.378C11.634,25.104,11.53,23.174,12.222,22.999z"/>
	<path fill="#DADDDC" d="M14.625,29.292c-0.019,0.404-0.135,1.103-0.135,1.103S15.075,31.415,15.5,32
		c-0.875,0-2.126-0.117-2.87-0.755c-0.744-0.638-1.577-2.331-0.838-3.287C12.5,27.042,14.667,28.417,14.625,29.292z"/>
	
		<ellipse transform="matrix(0.9624 -0.2715 0.2715 0.9624 -5.8781 4.3808)" fill="#F6F2EF" cx="12.896" cy="23.438" rx="0.5" ry="0.75"/>
	<g>
		<path fill="#B93D4F" d="M16,22.667c3.667,0,9-3.833,9-9.917C25,7.833,20.5,4,16,4V22.667z"/>
		<path fill="#2B3332" d="M24.878,14.235c-0.779,5.212-5.52,8.432-8.878,8.432V9.083C19.512,9.083,23.023,11.138,24.878,14.235z"/>
		<path fill="#B93D4F" d="M23.753,17.541c-1.79,3.239-5.176,5.125-7.753,5.125v-8.792C18.901,13.875,21.786,15.308,23.753,17.541z"
			/>
		<path fill="#2B3332" d="M16,22.667v-5.292c2.126,0,4.24,1.033,5.994,2.462C20.187,21.644,17.881,22.667,16,22.667z"/>
	</g>
	<path fill="#6E57A0" d="M21.999,18.125c1.085-0.333,1.168-0.375,1.917-0.5c0.375,1.917-1.229,5.312-0.229,6.396
		c1,1.083,1.271,1.667,2.188,2.75c0.664,0.784,1.462,2.362,1.899,3c0.074,0.108,0.242,0.045,0.227-0.085
		c-0.119-1.002-1.709-13.228-3.542-13.519c-0.938-0.149-2.401,0.401-2.958,0.958C21.339,17.284,21.783,18.191,21.999,18.125z"/>
	<path fill="#D4994F" d="M23.606,23.904c0.54-0.341,1.127-0.639,1.764-0.872c0.497-0.182,0.997-0.317,1.494-0.41
		c0.288,1.44,0.533,2.899,0.721,4.12c-0.258,0.07-0.515,0.135-0.773,0.23c-0.207,0.076-0.397,0.172-0.593,0.26
		c-0.117-0.169-0.233-0.329-0.345-0.461c-0.917-1.083-1.188-1.667-2.188-2.75C23.654,23.986,23.632,23.943,23.606,23.904z"/>
	<path fill="#D4994F" d="M25.166,16.854c0.436,0.756,0.846,2.061,1.213,3.563c-1.117,0.27-2.123,0.747-2.927,1.396
		c0.211-1.376,0.677-3.017,0.469-4.155C24.296,17.354,24.711,17.081,25.166,16.854z"/>
	<path fill="#E8BA67" d="M20.625,21.25c0.751-0.489,2.11-1.42,3.042-1.208c1.499,0.34,0.957,3.489,1.957,4.572s2.25,1.417,3.167,2.5
		c0.664,0.784,1.546,2.049,1.982,2.688c0.074,0.108,0.222,0.046,0.227-0.085c0.043-1.175,0.177-3.448-1.542-6.186
		c-2.25-3.583-4.624-5.155-5.75-5.25c-0.673-0.056-3.395,1.155-4.124,1.803C19.208,20.417,20.436,21.373,20.625,21.25z"/>
	<path fill="#D84459" d="M16,30c0.5,0,6-1.417,6-6c0-1.667-1.5-5-6-5V30z"/>
	<path fill="#EDEEEE" d="M16,16.75c0.641,0,1.75,4.833,1.833,5.167c0.083,0.333-1.457,0.708-1.833,0.708V16.75z"/>
	<path fill="#9179C6" d="M27.523,23.679c0.52-0.278,1.051-0.495,1.585-0.664c0.116,0.174,0.233,0.331,0.349,0.516
		c0.757,1.206,1.143,2.314,1.348,3.285c-0.438,0.154-0.874,0.333-1.303,0.562c-0.117,0.063-0.22,0.139-0.333,0.206
		c-0.13-0.167-0.259-0.328-0.379-0.47c-0.85-1.005-1.985-1.372-2.943-2.283C26.347,24.401,26.904,24.009,27.523,23.679z"/>
	<path fill="#9179C6" d="M27.339,20.746c-0.126,0.06-0.254,0.106-0.379,0.173c-0.787,0.421-1.47,0.941-2.06,1.516
		c-0.19-1.108-0.385-2.201-1.233-2.393c-0.673-0.153-1.567,0.291-2.295,0.733c0.746-0.822,1.382-1.61,1.923-2.446
		c0.176-0.059,0.331-0.056,0.413-0.049C24.478,18.345,25.838,19.124,27.339,20.746z"/>
	
		<ellipse transform="matrix(0.3565 -0.9343 0.9343 0.3565 5.8672 22.9352)" fill="#2B3332" cx="19.583" cy="7.208" rx="1.292" ry="2.125"/>
	<g>
		<path fill="#E8BA67" d="M18.368,11.96c-0.042-0.208,1.361-1.208,2.667-0.625c0.403-1.208,3.262-9.88,9.5-11.25
			c5.722-1.256-7.058,11.779-8.542,13.277c-0.086,0.087-0.212,0.107-0.325,0.057L18.368,11.96z"/>
		<path fill="#9179C6" d="M27.046,1.794c1.221,0.513,2.323,1.247,3.273,2.141c-1.319,1.823-3.2,3.978-4.856,5.782
			c-0.824-0.873-1.784-1.613-2.853-2.18C23.594,5.591,25.056,3.346,27.046,1.794z"/>
	</g>
	<path fill="#77658C" d="M20.101,21.825c-1.843-0.579-2.479,3.272-2.517,3.597c-0.038,0.325,0.879,1.126,1.186,1.202
		s1.581-0.174,1.937-0.649C21.109,25.439,21.188,22.167,20.101,21.825z"/>
	<path fill="#080908" d="M19.847,22.657c-1.226-0.31-1.623,2.142-1.648,2.355c-0.025,0.213,0.575,0.737,0.776,0.787
		c0.201,0.049,1.035-0.114,1.268-0.425C20.507,25.023,20.625,22.854,19.847,22.657z"/>
	<path fill="#77658C" d="M20.069,21.825c-1.843-0.579-2.479,3.272-2.517,3.597s0.879,1.126,1.186,1.202s1.581-0.174,1.937-0.649
		C21.077,25.439,21.156,22.167,20.069,21.825z"/>
	<path fill="#080908" d="M19.778,22.999c-1.091-0.276-1.444,1.906-1.466,2.095s0.512,0.656,0.691,0.7
		c0.179,0.044,0.921-0.101,1.128-0.378C20.366,25.104,20.47,23.174,19.778,22.999z"/>
	<path fill="#D1D4D4" d="M20.208,27.958c0.739,0.956-0.094,2.649-0.838,3.287C18.626,31.883,17.375,32,16.5,32
		c0.425-0.585,1.01-1.605,1.01-1.605s-0.116-0.699-0.135-1.103C17.333,28.417,19.5,27.042,20.208,27.958z"/>
	
		<ellipse transform="matrix(0.2715 -0.9624 0.9624 0.2715 -8.6393 35.462)" fill="#F6F2EF" cx="19.104" cy="23.438" rx="0.75" ry="0.5"/>
</g>
</svg>
