<?xml version="1.0" encoding="utf-8"?>
<!-- Generator: Adobe Illustrator 21.0.2, SVG Export Plug-In . SVG Version: 6.00 Build 0)  -->
<svg version="1.1" id="icons" xmlns="http://www.w3.org/2000/svg" xmlns:xlink="http://www.w3.org/1999/xlink" x="0px" y="0px"
	 width="32px" height="32px" viewBox="0 0 32 32" enable-background="new 0 0 32 32" xml:space="preserve">
<g>
	<g>
		<path fill="#137FA0" d="M5.875,4.958c-3-2.375-5.333-2.917-5.333-2.917c1.657,1.617,2.648,4.802,2.706,9.975
			c0.001,0.103,0.041,0.194,0.096,0.273l5.294-4.458C7.814,6.788,6.869,5.745,5.875,4.958z"/>
		<path fill="#0A6F8E" d="M3.344,12.29c0.087,0.125,0.224,0.214,0.387,0.221c4.222,0.179,6.885,2.67,7.728,3.031v-3.5
			c0,0-1.158-2.105-2.82-4.211L3.344,12.29z"/>
	</g>
	<path fill="#A366AD" d="M12,13.542c-0.201,0-0.391-0.122-0.467-0.321c-0.153-0.4-2.18-3.992-4.899-6.922
		C4.152,3.626,0.396,2.491,0.358,2.479C0.093,2.401-0.058,2.123,0.021,1.858C0.099,1.594,0.38,1.442,0.642,1.521
		C0.807,1.569,4.7,2.747,7.366,5.618c2.728,2.938,4.865,6.631,5.101,7.244c0.099,0.258-0.029,0.547-0.287,0.646
		C12.12,13.531,12.06,13.542,12,13.542z"/>
	<path fill="#A366AD" d="M12,19c-1.205,0-8.304,0.521-10.979,5.649c-0.122,0.233,0.215,0.518,0.375,0.31
		c1.021-1.333,4.29-2.323,5.346-1.045c0.123,0.149,0.352,0.101,0.42-0.08C7.868,21.951,9.546,20,12,20V19z"/>
	<path fill="#A366AD" d="M13.062,21.871c0,0.243-0.022,1.009-0.034,1.405c-0.003,0.098,0.115,0.155,0.198,0.096l0.29-0.206
		l0.389,0.646c0.047,0.079,0.167,0.079,0.215,0.001l0.346-0.568l0.325,0.309c0.078,0.074,0.211,0.022,0.211-0.083v-1.363
		C15.002,22.107,13.062,21.597,13.062,21.871z"/>
	<path fill="#B370B9" d="M16,9.5c-2.607,0-5.5,2.536-5.5,6.5s2.75,7,5.5,7V9.5z"/>
	<path fill="#B370B9" d="M15.216,10.394c-0.725-1.08-3.256-3.748-4.899-4.743c-0.199-0.12-0.439,0.08-0.362,0.299
		c0.747,2.108,2.954,5.588,2.954,5.588L15.216,10.394z"/>
	<path fill="#DADDDC" d="M16,13.25c-0.583,0-1.956,1.685-2.41,2.765c-0.038,0.092,0.053,0.179,0.147,0.146
		c0.71-0.244,1.704-0.411,2.263-0.411V13.25z"/>
	<path fill="#FFD96C" d="M13.437,11.344c0.844,0.031,1.719,1.156,1.719,1.156s-0.719,1.125-1.562,0.594
		C12.926,12.674,13.125,11.719,13.437,11.344z"/>
	<path fill="#8A323F" d="M13.776,11.412c-0.184,0.272-0.28,0.833,0.134,1.094c0.446,0.281,0.835-0.138,0.971-0.315
		C14.623,11.924,14.215,11.562,13.776,11.412z"/>
	<g>
		<path fill="#137FA0" d="M26.125,4.958c3-2.375,5.333-2.917,5.333-2.917c-1.657,1.617-2.648,4.802-2.706,9.975
			c-0.001,0.103-0.041,0.194-0.096,0.273l-5.294-4.458C24.186,6.788,25.131,5.745,26.125,4.958z"/>
		<path fill="#0A6F8E" d="M28.656,12.29c-0.087,0.125-0.224,0.214-0.387,0.221c-4.222,0.179-6.885,2.67-7.728,3.031v-3.5
			c0,0,1.158-2.105,2.82-4.211L28.656,12.29z"/>
	</g>
	<g>
		<g>
			<path fill="#945BA0" d="M20,13.542c-0.06,0-0.12-0.011-0.18-0.033c-0.258-0.099-0.386-0.388-0.287-0.646
				c0.235-0.613,2.373-4.307,5.101-7.244c2.666-2.872,6.56-4.049,6.725-4.098c0.263-0.08,0.543,0.073,0.621,0.337
				c0.078,0.265-0.072,0.542-0.337,0.622c-0.038,0.011-3.801,1.153-6.276,3.819c-2.72,2.93-4.746,6.522-4.899,6.922
				C20.391,13.419,20.201,13.542,20,13.542z"/>
		</g>
		<g>
			<path fill="#945BA0" d="M20,13.542c-0.06,0-0.12-0.011-0.18-0.033c-0.258-0.099-0.386-0.388-0.287-0.646
				c0.235-0.613,2.373-4.307,5.101-7.244c2.666-2.872,6.56-4.049,6.725-4.098c0.263-0.08,0.543,0.073,0.621,0.337
				c0.078,0.265-0.072,0.542-0.337,0.622c-0.038,0.011-3.801,1.153-6.276,3.819c-2.72,2.93-4.746,6.522-4.899,6.922
				C20.391,13.419,20.201,13.542,20,13.542z"/>
		</g>
	</g>
	<path fill="#945BA0" d="M20,19c1.205,0,8.304,0.521,10.979,5.649c0.122,0.233-0.215,0.518-0.375,0.31
		c-1.021-1.333-4.29-2.323-5.346-1.045c-0.123,0.149-0.352,0.101-0.42-0.08C24.132,21.951,22.454,20,20,20V19z"/>
	<path fill="#945BA0" d="M18.938,21.871c0,0.243,0.022,1.009,0.034,1.405c0.003,0.098-0.115,0.155-0.198,0.096l-0.29-0.206
		l-0.389,0.646c-0.047,0.079-0.167,0.079-0.215,0.001l-0.346-0.568l-0.325,0.309c-0.078,0.074-0.211,0.022-0.211-0.083v-1.363
		C16.998,22.107,18.938,21.597,18.938,21.871z"/>
	<path fill="#A366AD" d="M16,9.5c2.607,0,5.5,2.536,5.5,6.5s-2.75,7-5.5,7V9.5z"/>
	<path fill="#A366AD" d="M16.784,10.394c0.725-1.08,3.256-3.748,4.899-4.743c0.199-0.12,0.439,0.08,0.362,0.299
		c-0.747,2.108-2.954,5.588-2.954,5.588L16.784,10.394z"/>
	<path fill="#FFD96C" d="M18.562,11.344c-0.844,0.031-1.719,1.156-1.719,1.156s0.719,1.125,1.562,0.594
		C19.074,12.674,18.875,11.719,18.562,11.344z"/>
	<path fill="#8A323F" d="M18.224,11.412c0.184,0.272,0.28,0.833-0.134,1.094c-0.446,0.281-0.835-0.138-0.971-0.315
		C17.377,11.924,17.785,11.562,18.224,11.412z"/>
	<path fill="#EDEEEE" d="M14.719,14.262c-0.463,0.55-0.906,1.223-1.128,1.752c-0.038,0.092,0.053,0.179,0.147,0.146
		c0.295-0.102,0.64-0.185,0.982-0.253V14.262z"/>
	<path fill="#C8CCCB" d="M16,13.25c0.583,0,1.956,1.685,2.41,2.765c0.038,0.092-0.053,0.179-0.147,0.146
		c-0.71-0.244-1.704-0.411-2.263-0.411V13.25z"/>
	<path fill="#ABB2B1" d="M17.281,14.262c0.463,0.55,0.906,1.223,1.128,1.752c0.038,0.092-0.053,0.179-0.147,0.146
		c-0.295-0.102-0.64-0.185-0.982-0.253V14.262z"/>
</g>
</svg>
