<?xml version="1.0" encoding="utf-8"?>
<!-- Generator: Adobe Illustrator 21.0.2, SVG Export Plug-In . SVG Version: 6.00 Build 0)  -->
<svg version="1.1" id="icons" xmlns="http://www.w3.org/2000/svg" xmlns:xlink="http://www.w3.org/1999/xlink" x="0px" y="0px"
	 width="32px" height="32px" viewBox="0 0 32 32" enable-background="new 0 0 32 32" xml:space="preserve">
<g>
	<path fill="#5C699E" d="M23.863,22.862c0-0.593,0.392-2.198,1.632-4.893s3.484-5.121,4.239-5.121c0.755,0-2.131,7-0.862,8.679
		c0.47-0.048,1.582-0.411,1.582-0.411c0.303-0.079,0.52,0.287,0.306,0.515c-0.553,0.589-1.187,1.18-1.187,1.782
		c0,0.775,0.734,1.091,1.299,1.505c0.218,0.16,0.146,0.498-0.118,0.556c-0.859,0.189-2.152,0.658-2.259,1.766
		c-0.065,0.67,0.061,1.34,0.235,1.902c0.181,0.584-0.456,1.077-0.968,0.745c-0.641-0.415-1.186-1.161-1.854-2.054
		c-1.829-2.444-3.391-2.772-5.516-2.85c-1.36-0.05,1.676-3.286,1.784-3.448C22.283,21.374,23.27,22.754,23.863,22.862z"/>
	<path fill="#FFD04D" d="M30.758,25.474c0.262-0.058,0.332-0.395,0.116-0.553c-0.566-0.415-1.301-0.731-1.301-1.507
		c0-0.603,0.634-1.193,1.187-1.782c0.214-0.229-0.003-0.594-0.306-0.516c0,0-1.111,0.363-1.582,0.411
		c-0.413,0.657-0.33,1.24-0.247,1.99c0.106,0.952,0.325,1.432-0.417,2.208c-1,1.047-4.438-1.627-7.188-0.711
		c1.917,0.25,3.167,0.583,4.887,2.819c0.685,0.891,1.222,1.651,1.869,2.064c0.509,0.325,1.132-0.178,0.953-0.755
		c-0.174-0.562-0.3-1.232-0.235-1.902C28.602,26.131,29.899,25.663,30.758,25.474z"/>
	<path fill="#E3DBF4" d="M11.5,21.265c-1.031,0-2.188,0.062-3-0.5s-1.406-1.5-2.5-1.5c-1.125,0-2,0.938-2,2c0,1,0.146,4.125,7.5,2.5
		V21.265z"/>
	<path fill="#7C8AC4" d="M10.5,16c0.067,0.653,0.341,2.04,0,3c-0.224,0.629-1,1.688-1,3c0,3.469,2.406,6,6.5,6V10
		C13.014,10,10.094,12.031,10.5,16z"/>
	<path fill="#707EB7" d="M16,20.605c-2.542,0-4.377-1.581-5.335-2.726C10.661,18.272,10.62,18.662,10.5,19c-0.224,0.629-1,1.688-1,3
		c0,3.469,2.406,6,6.5,6V20.605z"/>
	<path fill="#F6B392" d="M16,17.296c-0.688,0-2.844-0.125-3.094-0.156c0.562,0.719,1.688,1.625,3.094,1.625V17.296z"/>
	<path fill="#FFE28A" d="M16,13.702c-1.406,0-1.5-0.856-2.75-0.856c-1.105,0-2,0.985-2,2.2s0.86,1.795,1.656,2.094
		c1,0.375,1.812,0.375,3.094,0.375V13.702z"/>
	<path fill="#F1EDFA" d="M12.238,15.84c0.36,0.54,2.407,0.562,2.7,0.135c0.198-0.289-0.562-2.34-1.71-2.272
		C12.08,13.77,11.978,15.45,12.238,15.84z"/>
	<path fill="#D84459" d="M14.938,15.975c0.156-0.228-0.288-1.555-1.047-2.069c-0.674,0.471-0.758,1.831-0.586,2.338
		C13.99,16.317,14.766,16.226,14.938,15.975z"/>
	<ellipse fill="#2B3332" cx="14.129" cy="15.353" rx="0.371" ry="0.71"/>
	<ellipse fill="#F1EDFA" cx="13.953" cy="14.796" rx="0.281" ry="0.359"/>
	<path fill="#E3DBF4" d="M20.5,21.265c1.031,0,2.188,0.062,3-0.5s1.406-1.5,2.5-1.5c1.125,0,2,0.938,2,2c0,1-0.146,4.125-7.5,2.5
		V21.265z"/>
	<path fill="#7C8AC4" d="M16.5,5.542l-1.5,0.5c0.052-1.789-0.677-3.294-1.987-3.533c-1.159-0.212-2.25,0.499-2.692,1.485
		L9.969,3.812c0.64-1.427,1.75-2.656,3.254-2.532C15.162,1.441,16.5,2.656,16.5,5.542z"/>
	<circle fill="#FFD96C" cx="10.448" cy="4.123" r="1.5"/>
	<path fill="#707EB7" d="M21.5,16c-0.067,0.653-0.341,2.04,0,3c0.224,0.629,1,1.688,1,3c0,3.469-2.406,6-6.5,6V10
		C18.986,10,21.906,12.031,21.5,16z"/>
	<path fill="#6673AA" d="M16,20.605c2.625,0,4.377-1.581,5.335-2.726C21.339,18.272,21.38,18.662,21.5,19c0.224,0.629,1,1.688,1,3
		c0,3.469-2.406,6-6.5,6V20.605z"/>
	<path fill="#EA9C7A" d="M16,17.296c0.688,0,2.844-0.125,3.094-0.156c-0.562,0.719-1.688,1.625-3.094,1.625V17.296z"/>
	<path fill="#FFD96C" d="M16,13.702c1.406,0,1.5-0.856,2.75-0.856c1.105,0,2,0.985,2,2.2s-0.86,1.795-1.656,2.094
		c-1,0.375-1.812,0.375-3.094,0.375V13.702z"/>
	<path fill="#F1EDFA" d="M19.762,15.84c-0.36,0.54-2.407,0.562-2.7,0.135c-0.198-0.289,0.562-2.34,1.71-2.272
		C19.92,13.77,20.022,15.45,19.762,15.84z"/>
	<path fill="#D84459" d="M17.062,15.975c-0.156-0.228,0.288-1.555,1.047-2.069c0.674,0.471,0.758,1.831,0.586,2.338
		C18.01,16.317,17.234,16.226,17.062,15.975z"/>
	<ellipse fill="#2B3332" cx="17.871" cy="15.353" rx="0.371" ry="0.71"/>
	<ellipse fill="#F1EDFA" cx="18.047" cy="14.796" rx="0.281" ry="0.359"/>
	<g>
		<path fill="#7C8AC4" d="M15,5.787c0,1.901,0,3.783,0,4.86h1V2.97C15.359,4.126,15,5.292,15,5.787z"/>
		<path fill="#707EB7" d="M19.75,0C17.937,0,16.5,1.625,16,2.97v7.677h1v-4.87c0-2.464,1.249-3.763,2.5-4.003
			c3.917-0.75,6,3.25,6,7.25h0.75C26.25,2.482,23.312,0,19.75,0z"/>
	</g>
	<circle fill="#FFD96C" cx="25.688" cy="8.958" r="2"/>
</g>
</svg>
