<?xml version="1.0" encoding="utf-8"?>
<!-- Generator: Adobe Illustrator 21.0.2, SVG Export Plug-In . SVG Version: 6.00 Build 0)  -->
<svg version="1.1" id="icons" xmlns="http://www.w3.org/2000/svg" xmlns:xlink="http://www.w3.org/1999/xlink" x="0px" y="0px"
	 width="32px" height="32px" viewBox="0 0 32 32" enable-background="new 0 0 32 32" xml:space="preserve">
<g>
	<path fill="#D84459" d="M20.984,29.994c-0.142,0-0.309,0.009-0.484,0.023V28.26H19v2.08c-0.562,0.218-1,0.552-1,1.061
		c0,0.438,1.281,0.562,3,0.562s5,0.188,5-0.281S23.219,29.994,20.984,29.994z"/>
	<path fill="#E85160" d="M13,30.34v-2.08h-1.5v1.758c-0.176-0.014-0.342-0.023-0.484-0.023C8.781,29.994,6,31.213,6,31.682
		s3.281,0.281,5,0.281s3-0.125,3-0.562C14,30.892,13.562,30.558,13,30.34z"/>
	<path fill="#A93949" d="M16,9.137L8,23.5l-3.63-3.176c-0.205-0.18-0.229-0.491-0.052-0.699L16,5.813V9.137z"/>
	<path fill="#9ACC2E" d="M14.5,9C13.973,9.527,6,17.25,6,28c2.75,1.167,8.083,1,10,1V9C16,9,14.917,9,14.5,9z"/>
	<g>
		<path fill="#FFD96C" d="M8.305,26.532c-0.729-0.046-1.635-0.284-2.189-0.704c-0.028,0.28-0.038,0.567-0.056,0.852
			c0.681,0.372,1.525,0.558,2.198,0.6L8.305,26.532z"/>
		<path fill="#FFD96C" d="M8.258,25.062l0.047-0.748c-0.609-0.038-1.342-0.212-1.892-0.513c-0.049,0.255-0.09,0.515-0.13,0.775
			C6.919,24.871,7.657,25.024,8.258,25.062z"/>
	</g>
	<path fill="#373F3F" d="M14.5,9c-0.296,0.296-2.933,2.856-5.193,6.943c0.163-0.159,2.951-2.854,4.105-3.404
		c0.056-0.027,0.116-0.015,0.162,0.026C14.44,13.347,15.555,15,16,15V9C16,9,14.917,9,14.5,9z"/>
	<path fill="#FF6B8B" d="M14.5,16.403c0,0.317-0.765,0.854-1.708,0.854c-0.943,0-1.708-0.355-1.708-0.854
		c0-0.499,0.765-0.903,1.708-0.903C13.735,15.5,14.5,16.086,14.5,16.403z"/>
	<path fill="#EDEEEE" d="M10.284,14.309c-1.353,2.129-2.705,4.806-3.519,7.905C7.323,23.295,8,24,8,24v4.566
		c2.801,0.532,6.461,0.436,8,0.434v-9.5C13.344,19.5,11.46,16.349,10.284,14.309z"/>
	<path fill="#2B3332" d="M12.914,16.389c0,0.519-0.055,0.868-0.122,0.868c-0.067,0-0.122-0.349-0.122-0.868
		c0-0.519,0.055-0.889,0.122-0.889C12.859,15.5,12.914,15.87,12.914,16.389z"/>
	<path fill="#C84054" d="M11.303,18.627c0.124-0.069,0.166-0.228,0.092-0.349l-1.288-2.1c-0.064-0.104-0.193-0.147-0.306-0.101
		l-0.7,0.281c-0.731,1.368-1.396,2.903-1.932,4.57L11.303,18.627z"/>
	<path fill="#FFD96C" d="M10.428,18.211l-0.803-1.31c-0.04-0.065-0.12-0.091-0.191-0.063l-0.723,0.29
		c-0.458,0.92-0.894,1.886-1.271,2.931l2.931-1.631C10.448,18.385,10.474,18.286,10.428,18.211z"/>
	<path fill="#C84054" d="M7.999,25.372v3.188c2.801,0.532,6.449,0.442,7.989,0.44L16,25.813
		C14.467,25.814,10.807,25.906,7.999,25.372z"/>
	<g>
		<g>
			<path fill="#A2D336" d="M10.5,5.5c0,3.038,2.462,5.5,5.5,5.5V0C12.962,0,10.5,2.462,10.5,5.5z"/>
		</g>
		<g>
			<path fill="#AADB3D" d="M10.5,5.5c0,3.038,2.462,5.5,5.5,5.5V0C12.962,0,10.5,2.462,10.5,5.5z"/>
		</g>
	</g>
	<path fill="#373F3F" d="M7.999,26.909v1.656C10.8,29.098,14.461,29.002,16,29v-1.656C14.464,27.345,10.804,27.442,7.999,26.909z"/>
	<path fill="#F9F8F5" d="M11.86,3c-0.279,0-0.535,0.021-0.779,0.051c-0.302,0.606-0.497,1.274-0.557,1.982
		C12.152,5.334,14.5,4.981,14.5,4C14.5,3.738,13.622,3,11.86,3z"/>
	<path fill="#2B3332" d="M11.344,3.99c0,0.558,0.393,1.004,0.911,1.132c0.305-0.022,0.599-0.066,0.871-0.127
		c0.348-0.207,0.593-0.57,0.593-1.005c0-0.291-0.117-0.547-0.29-0.754c-0.396-0.133-0.902-0.228-1.519-0.233
		C11.577,3.213,11.344,3.567,11.344,3.99z"/>
	<path fill="#F9F8F5" d="M12.542,3.042C12.522,3.11,12.5,3.176,12.5,3.25C12.5,3.664,12.836,4,13.25,4
		c0.337,0,0.611-0.226,0.706-0.532C13.631,3.286,13.164,3.117,12.542,3.042z"/>
	<path fill="#FFD96C" d="M16,5.5c-1,0-2,0.438-2,1.031c0,0.969,0.744,1.331,0.969,1.5c0.25,0.188,0.656,1.5,1.031,1.5V5.5z"/>
	<path fill="#E3E5E5" d="M7.877,30.589c0.432,0.282,0.716,0.727,0.716,1.233c0,0.06-0.013,0.117-0.02,0.176
		C7.227,32.009,6,31.968,6,31.682C6,31.431,6.797,30.967,7.877,30.589z M12.999,30.321c0.09,0.242,0.143,0.503,0.143,0.777
		c0,0.275-0.054,0.536-0.144,0.779c0.624-0.086,1.011-0.233,1.011-0.474C14.009,30.886,13.567,30.545,12.999,30.321z"/>
	<path fill="#9A3644" d="M16,5.813l11.682,13.811c0.176,0.208,0.153,0.52-0.052,0.699L24,23.5L16,9.137V5.813z"/>
	<path fill="#93C427" d="M17.5,9c0.527,0.527,8.5,8.25,8.5,19c-2.75,1.167-8.083,1-10,1V9C16,9,17.083,9,17.5,9z"/>
	<g>
		<path fill="#FFD04D" d="M23.695,26.532c0.729-0.046,1.635-0.284,2.189-0.704c0.028,0.28,0.038,0.567,0.056,0.852
			c-0.681,0.372-1.525,0.558-2.198,0.6L23.695,26.532z"/>
		<path fill="#FFD04D" d="M23.742,25.062l-0.047-0.748c0.609-0.038,1.342-0.212,1.892-0.513c0.049,0.255,0.09,0.515,0.13,0.775
			C25.081,24.871,24.343,25.024,23.742,25.062z"/>
	</g>
	<path fill="#2B3332" d="M17.5,9c0.296,0.296,2.933,2.856,5.193,6.943c-0.163-0.159-2.951-2.854-4.105-3.404
		c-0.056-0.027-0.116-0.015-0.162,0.026C17.56,13.347,16.445,15,16,15V9C16,9,17.083,9,17.5,9z"/>
	<path fill="#FF6B8B" d="M17.5,16.403c0,0.317,0.765,0.854,1.708,0.854c0.943,0,1.708-0.355,1.708-0.854
		c0-0.499-0.765-0.903-1.708-0.903C18.265,15.5,17.5,16.086,17.5,16.403z"/>
	<path fill="#DADDDC" d="M21.716,14.309c1.353,2.129,2.705,4.806,3.519,7.905C24.677,23.295,24,24,24,24v4.566
		c-2.801,0.532-6.461,0.436-8,0.434v-9.5C18.656,19.5,20.54,16.349,21.716,14.309z"/>
	<path fill="#2B3332" d="M19.086,16.389c0,0.519,0.055,0.868,0.122,0.868c0.067,0,0.122-0.349,0.122-0.868
		c0-0.519-0.055-0.889-0.122-0.889C19.141,15.5,19.086,15.87,19.086,16.389z"/>
	<path fill="#B93D4F" d="M20.697,18.627c-0.124-0.069-0.166-0.228-0.092-0.349l1.288-2.1c0.064-0.104,0.193-0.147,0.306-0.101
		l0.7,0.281c0.731,1.368,1.396,2.903,1.932,4.57L20.697,18.627z"/>
	<path fill="#FFD04D" d="M21.572,18.211l0.803-1.31c0.04-0.065,0.12-0.091,0.191-0.063l0.723,0.29
		c0.458,0.92,0.894,1.886,1.271,2.931l-2.931-1.631C21.552,18.385,21.526,18.286,21.572,18.211z"/>
	<path fill="#B93D4F" d="M24.001,25.372v3.188c-2.801,0.532-6.449,0.442-7.989,0.44L16,25.813
		C17.533,25.814,21.193,25.906,24.001,25.372z"/>
	<g>
		<g>
			<path fill="#9ACC2E" d="M21.5,5.5c0,3.038-2.462,5.5-5.5,5.5V0C19.038,0,21.5,2.462,21.5,5.5z"/>
		</g>
		<g>
			<path fill="#A2D336" d="M21.5,5.5c0,3.038-2.462,5.5-5.5,5.5V0C19.038,0,21.5,2.462,21.5,5.5z"/>
		</g>
	</g>
	<path fill="#2B3332" d="M24.001,26.909v1.656C21.2,29.098,17.539,29.002,16,29v-1.656C17.536,27.345,21.196,27.442,24.001,26.909z"
		/>
	<path fill="#F9F8F5" d="M20.14,3c0.279,0,0.535,0.021,0.779,0.051c0.302,0.606,0.497,1.274,0.557,1.982
		C19.848,5.334,17.5,4.981,17.5,4C17.5,3.738,18.378,3,20.14,3z"/>
	<path fill="#2B3332" d="M20.656,3.99c0,0.558-0.393,1.004-0.911,1.132c-0.305-0.022-0.599-0.066-0.871-0.127
		c-0.348-0.207-0.593-0.57-0.593-1.005c0-0.291,0.117-0.547,0.29-0.754c0.396-0.133,0.902-0.228,1.519-0.233
		C20.423,3.213,20.656,3.567,20.656,3.99z"/>
	<path fill="#F9F8F5" d="M19.458,3.042C19.478,3.11,19.5,3.176,19.5,3.25C19.5,3.664,19.164,4,18.75,4
		c-0.337,0-0.611-0.226-0.706-0.532C18.369,3.286,18.836,3.117,19.458,3.042z"/>
	<path fill="#FFD04D" d="M16,5.5c1,0,2,0.438,2,1.031c0,0.969-0.744,1.331-0.969,1.5c-0.25,0.188-0.656,1.5-1.031,1.5V5.5z"/>
	<path fill="#DADDDC" d="M26,31.682c0,0.287-1.227,0.328-2.573,0.316c-0.008-0.058-0.02-0.116-0.02-0.176
		c0-0.506,0.284-0.951,0.716-1.233C25.203,30.967,26,31.431,26,31.682z M17.991,31.403c0,0.241,0.387,0.388,1.011,0.474
		c-0.09-0.243-0.144-0.504-0.144-0.779c0-0.274,0.053-0.535,0.143-0.777C18.433,30.545,17.991,30.886,17.991,31.403z"/>
</g>
</svg>
