<?xml version="1.0" encoding="utf-8"?>
<!-- Generator: Adobe Illustrator 21.0.2, SVG Export Plug-In . SVG Version: 6.00 Build 0)  -->
<svg version="1.1" id="icons" xmlns="http://www.w3.org/2000/svg" xmlns:xlink="http://www.w3.org/1999/xlink" x="0px" y="0px"
	 width="32px" height="32px" viewBox="0 0 32 32" enable-background="new 0 0 32 32" xml:space="preserve">
<g>
	<g>
		<path fill="#D196A6" d="M30.015,8.823c-1.666,5.189-4.8,8.688-9.328,8.688v4.83c4.919,0,9.323-3.187,9.687-13.442
			C30.383,8.667,30.086,8.604,30.015,8.823z"/>
		<path fill="#2B3332" d="M30.015,8.823c-1.666,5.189-4.8,8.688-9.328,8.688v4.83c4.919,0,9.323-3.187,9.687-13.442
			C30.383,8.667,30.086,8.604,30.015,8.823z"/>
	</g>
	<path fill="#E5AC38" d="M29.867,11.684c-0.293-0.106-0.561-0.247-0.82-0.399c-0.388,0.821-0.823,1.576-1.304,2.258
		c0.372,0.261,0.766,0.497,1.215,0.659c0.229,0.083,0.461,0.14,0.692,0.188c0.203-0.803,0.365-1.682,0.488-2.634
		C30.047,11.729,29.956,11.716,29.867,11.684z"/>
	<circle fill="#F57552" cx="29.75" cy="8.438" r="2.25"/>
	<path fill="#424B7E" d="M22.945,23.667c0,1.708,0.5,6.417-1.5,6.417c-2.292,0-2.061-3-2.061-5.5L22.945,23.667z"/>
	<path fill="#FDEBBB" d="M10.542,5.46c0-3.015,2.444-5.458,5.458-5.458v10.917C12.985,10.918,10.542,8.474,10.542,5.46z"/>
	<path fill="#FFF3D9" d="M16,7c-1.312,0-2.375-0.938-2.375-2.25S14.688,2.5,16,2.5V7z"/>
	<path fill="#495587" d="M20.82,25.583c0,1.708,0.5,6.417-1.5,6.417c-2.333,0-2.061-3-2.061-5.5L20.82,25.583z"/>
	<circle fill="#F3E7C0" cx="23.125" cy="22.125" r="4.125"/>
	<path fill="#F7D684" d="M27.75,22.125c0-0.389,0-1.375-0.75-2.375c-1.595,1.748-4.75,5-7.5,2.375c0,2.278,1.847,4.125,4.125,4.125
		S27.75,24.403,27.75,22.125z"/>
	<path fill="#FAE09F" d="M25.171,21.298c0,5.065-6.114,7.94-9.171,7.94V13C21.065,13,25.171,16.233,25.171,21.298z"/>
	<path fill="#F7D684" d="M25.171,21.298c0,5.065-6.114,7.94-9.171,7.94V26.5C18.75,26.5,21.109,25.359,25.171,21.298z"/>
	<path fill="#FAE09F" d="M28.75,17.375c0-1.673-1.066-3.085-2.551-3.628c-0.24-1.416-1.465-2.497-2.949-2.497c-1.657,0-3,1.343-3,3
		c0,0.836,0.343,1.59,0.894,2.134c-0.038,0.145-0.067,0.291-0.089,0.442C19.831,17.542,19,18.855,19,20.375
		c0,2.278,1.847,4.125,4.125,4.125c2.263,0,4.096-1.823,4.12-4.08C28.155,19.711,28.75,18.617,28.75,17.375z"/>
	<path fill="#495587" d="M22.347,11.255C22.25,14.5,18.116,17.25,16,17.25V5.512C18.75,5.512,22.452,7.751,22.347,11.255z"/>
	<ellipse fill="#111511" cx="18.25" cy="10.625" rx="1" ry="1.125"/>
	<circle fill="#FFFFFF" cx="18.125" cy="10.375" r="0.375"/>
	<path fill="#424B7E" d="M22.347,11.255C22.25,14.5,18.116,17.5,16,17.5v-2C18,15.5,21,13.25,22.347,11.255z"/>
	<path fill="#373F3F" d="M22.702,6.089c1.857-0.245,5.844,1.687,6.04,3.18c0.197,1.494-3.341,2.972-5.175,3.214
		c-0.849,0.112-1.862-0.203-2.492-0.646c-0.795-0.901-0.925-3.122-0.703-4.327C20.866,6.829,21.767,6.212,22.702,6.089z"/>
	<path fill="#E5AC38" d="M24.743,9.035c-0.119-0.904,0.15-1.763,0.683-2.42c-0.531-0.21-1.066-0.37-1.558-0.461
		c-1.149,0.614-1.824,1.867-1.647,3.214c0.19,1.444,1.308,2.578,2.728,2.792c0.528-0.164,1.081-0.377,1.598-0.628
		C25.588,11.065,24.889,10.146,24.743,9.035z"/>
	<path fill="#495587" d="M9.055,23.667c0,1.708-0.5,6.417,1.5,6.417c2.292,0,2.061-3,2.061-5.5L9.055,23.667z"/>
	<path fill="#515E91" d="M11.18,25.583c0,1.708-0.5,6.417,1.5,6.417c2.333,0,2.061-3,2.061-5.5L11.18,25.583z"/>
	<circle fill="#F3E7C0" cx="8.875" cy="22.125" r="4.125"/>
	<path fill="#FAE09F" d="M4.25,22.125c0-0.389,0-1.375,0.75-2.375c1.595,1.748,4.75,5,7.5,2.375c0,2.278-1.847,4.125-4.125,4.125
		S4.25,24.403,4.25,22.125z"/>
	<path fill="#FDEBBB" d="M16,13v16.238c-3.057,0-9.171-2.875-9.171-7.94S10.935,13,16,13z"/>
	<path fill="#FAE09F" d="M16,26.5v2.738c-3.057,0-9.171-2.875-9.171-7.94C10.891,25.359,13.25,26.5,16,26.5z"/>
	<path fill="#FDEBBB" d="M10.945,16.826c-0.022-0.151-0.05-0.297-0.089-0.442c0.551-0.544,0.894-1.298,0.894-2.134
		c0-1.657-1.343-3-3-3c-1.485,0-2.709,1.081-2.949,2.497C4.316,14.29,3.25,15.702,3.25,17.375c0,1.242,0.595,2.336,1.505,3.045
		c0.025,2.257,1.858,4.08,4.12,4.08c2.278,0,4.125-1.847,4.125-4.125C13,18.855,12.169,17.542,10.945,16.826z"/>
	<path fill="#515E91" d="M16,5.512V17.25c-2.116,0-6.25-2.75-6.347-5.995C9.548,7.751,13.25,5.512,16,5.512z"/>
	<ellipse fill="#111511" cx="13.75" cy="10.625" rx="1" ry="1.125"/>
	<circle fill="#FFFFFF" cx="13.875" cy="10.375" r="0.375"/>
	<path fill="#495587" d="M16,15.5v2c-2.116,0-6.25-3-6.347-6.245C11,13.25,14,15.5,16,15.5z"/>
	<path fill="#373F3F" d="M9.298,6.089c-1.857-0.245-5.844,1.687-6.04,3.18s3.341,2.972,5.175,3.214
		c0.849,0.112,1.862-0.203,2.492-0.646c0.795-0.901,0.925-3.122,0.703-4.327C11.134,6.829,10.233,6.212,9.298,6.089z"/>
	<path fill="#EFB43F" d="M9.779,9.367c0.177-1.346-0.498-2.6-1.647-3.214C7.64,6.245,7.105,6.405,6.574,6.615
		c0.533,0.657,0.802,1.516,0.683,2.42c-0.146,1.111-0.845,2.03-1.804,2.496c0.518,0.251,1.07,0.464,1.598,0.628
		C8.471,11.946,9.589,10.812,9.779,9.367z"/>
	<path fill="#FAE09F" d="M20.5,4.501C20.5,6.986,18.486,9,16.001,9V0.001C18.486,0.001,20.5,2.016,20.5,4.501z"/>
	<path fill="#FDEBBB" d="M16,7c1.294,0,2.344-0.956,2.344-2.25S17.294,2.5,16,2.5V7z"/>
	<path fill="#FDEBBB" d="M16,9c-1.312,0-2.375-0.938-2.375-2.25S14.688,4.5,16,4.5V9z"/>
	<path fill="#FFF3D9" d="M16,7c-0.437,0-0.792-0.313-0.792-0.75S15.563,5.5,16,5.5V7z"/>
	<path fill="#FAE09F" d="M16,4.5c0.292,0,0.529,0.209,0.529,0.502S16.292,5.504,16,5.504V4.5z"/>
</g>
</svg>
