<?xml version="1.0" encoding="utf-8"?>
<!-- Generator: Adobe Illustrator 21.0.2, SVG Export Plug-In . SVG Version: 6.00 Build 0)  -->
<svg version="1.1" id="icons" xmlns="http://www.w3.org/2000/svg" xmlns:xlink="http://www.w3.org/1999/xlink" x="0px" y="0px"
	 width="32px" height="32px" viewBox="0 0 32 32" enable-background="new 0 0 32 32" xml:space="preserve">
<g>
	<g>
		<path fill="#D196A6" d="M28.486,12.381C26.256,18.761,22.061,23.062,16,23.062V29c6.584,0,12.48-3.918,12.967-16.525
			C28.978,12.19,28.581,12.112,28.486,12.381z"/>
		<path fill="#EA8BB4" d="M28.486,12.381C26.256,18.761,22.061,23.062,16,23.062V29c6.584,0,12.48-3.918,12.967-16.525
			C28.978,12.19,28.581,12.112,28.486,12.381z"/>
		<path fill="#3A3A38" d="M28.486,12.381c-0.204,0.583-0.43,1.142-0.666,1.688c0.253,0.084,0.512,0.158,0.779,0.213
			c0.081,0.017,0.162,0.024,0.243,0.038c0.052-0.598,0.1-1.203,0.125-1.845C28.979,12.19,28.581,12.112,28.486,12.381z"/>
		<path fill="#2B3332" d="M27.209,21.537c0.599-1.43,1.067-3.097,1.372-5.038c-0.587-0.131-1.149-0.313-1.684-0.539
			c-0.861,1.555-1.879,2.903-3.054,3.996C24.829,20.675,25.963,21.216,27.209,21.537z"/>
	</g>
	<path fill="#B0D3EA" d="M28.75,14.5c-1.243,0-2.25-1.007-2.25-2.25S27.507,10,28.75,10S31,11.007,31,12.25S29.993,14.5,28.75,14.5z
		"/>
	<g>
		<path fill="#F9ADC8" d="M12.146,22.207l-3.575,0.511c-1.881,0.269-3.314,1.84-3.314,3.744c0,0.913,0.278,1.822,0.994,2.538l1,1.04
			l-1.417,0.708c-0.332,0.166-0.583,0.345-0.583,0.876c0,0.251,0.152,0.374,0.287,0.374L11.901,32c0.135,0,0.349-0.125,0.349-0.575
			c0-0.362-0.207-0.509-0.391-0.692l-0.692-0.692L12.146,29V22.207z"/>
		<path fill="#C8CCCB" d="M7.25,31.938c0-0.625-0.243-1.185-0.627-1.584l-0.79,0.395c-0.332,0.166-0.583,0.345-0.583,0.876
			c0,0.251,0.152,0.374,0.287,0.374l1.707,0C7.245,31.978,7.25,31.958,7.25,31.938z"/>
	</g>
	<g>
		<path fill="#F8A1C4" d="M19.854,22.207l3.575,0.511c1.881,0.269,3.314,1.84,3.314,3.744c0,0.913-0.278,1.822-0.994,2.538l-1,1.04
			l1.417,0.708c0.332,0.166,0.583,0.345,0.583,0.876c0,0.251-0.152,0.374-0.287,0.374L20.099,32c-0.135,0-0.349-0.125-0.349-0.575
			c0-0.362,0.207-0.509,0.391-0.692l0.692-0.692L19.854,29V22.207z"/>
		<path fill="#ABB2B1" d="M24.75,31.938c0-0.625,0.243-1.185,0.627-1.584l0.79,0.395c0.332,0.166,0.583,0.345,0.583,0.876
			c0,0.251-0.152,0.374-0.287,0.374l-1.707,0C24.755,31.978,24.75,31.958,24.75,31.938z"/>
	</g>
	<path fill="#FAC4D1" d="M16,12.562h-2.875C13.125,12.562,8,17.25,8,22s3.875,8,8,8V12.562z"/>
	<path fill="#FAB8CD" d="M16,26.25c-3.625,0-6.938-3.062-8-4.25c0,4.75,3.875,8,8,8V26.25z"/>
	<path fill="#FAC4D1" d="M3.065,19.568c0.692,1.608,7.011-1.982,7.368-2.692c0.357-0.71-0.719-3.145-1.398-2.825
		C8.28,14.406,2.316,17.83,3.065,19.568z"/>
	<path fill="#FAB8CD" d="M28.935,19.568c-0.692,1.608-7.011-1.982-7.368-2.692c-0.357-0.71,0.719-3.145,1.398-2.825
		C23.72,14.406,29.684,17.83,28.935,19.568z"/>
	<circle fill="#E3E5E5" cx="10.072" cy="11.219" r="2.197"/>
	<circle fill="#E3E5E5" cx="11.988" cy="16.281" r="2.344"/>
	<circle fill="#F7F7F7" cx="10.955" cy="13.875" r="2.917"/>
	<path fill="#F7F7F7" d="M16,12.104v8.104c-2.238,0-4.052-1.814-4.052-4.052C11.948,13.918,13.762,12.104,16,12.104z"/>
	<circle fill="#E3E6E4" cx="12.413" cy="8.892" r="1.329"/>
	
		<ellipse transform="matrix(0.6737 -0.739 0.739 0.6737 -3.9681 13.3691)" fill="#E3E5E5" cx="13.154" cy="11.178" rx="2.01" ry="2.221"/>
	<path fill="#E3E5E5" d="M16,10.071v5.569c-1.538,0-2.784-1.247-2.784-2.784C13.216,11.318,14.462,10.071,16,10.071z"/>
	<path fill="#FBCFD6" d="M16,5.04c-2.245,0-4.75,0.289-4.75,3.21c0,3.237,1.494,4.299,3.218,5.408C15,14,15.375,14.317,16,14.317
		V5.04z"/>
	<g>
		<g>
			<path fill="#D1D4D4" d="M16,0.708c-2.227,0-4.033,1.798-4.033,4.015c0,0.027,0.008,0.042,0.008,0.068H16V0.708z"/>
		</g>
		<g>
			<path fill="#D1D6D2" d="M16,0.708c-2.227,0-4.033,1.798-4.033,4.015c0,0.027,0.008,0.042,0.008,0.068H16V0.708z"/>
		</g>
	</g>
	<g>
		<path fill="#373F3F" d="M12.205,6.758c0.155,0.842,0.064,2.395-0.492,3.024c-0.44,0.309-1.148,0.53-1.742,0.452
			c-1.282-0.169-3.755-1.202-3.617-2.246s2.924-2.394,4.222-2.223C11.23,5.851,11.859,6.283,12.205,6.758z"/>
		<path fill="#F8C4CF" d="M10.912,8.056c0.124-0.941-0.348-1.817-1.151-2.246C9.417,5.874,9.043,5.986,8.672,6.133
			c0.372,0.459,0.561,1.06,0.478,1.691C9.047,8.601,8.558,9.243,7.888,9.569c0.362,0.175,0.748,0.324,1.117,0.439
			C9.998,9.859,10.779,9.066,10.912,8.056z"/>
	</g>
	<ellipse fill="#D1D4D4" cx="11.695" cy="3.823" rx="2.597" ry="2.823"/>
	<path fill="#D1D4D4" d="M16,4.878V4.011c0-0.909-1.377-1.427-2.369-1.427c-1.308,0-2.369,1.027-2.369,2.295
		s1.061,2.295,2.369,2.295S16,6.145,16,4.878z"/>
	<ellipse fill="#D1D4D4" cx="11.873" cy="5.295" rx="2.111" ry="2.295"/>
	<g>
		<path fill="#E3E5E5" d="M15.5,2.99C15.5,1.338,14.269,0,12.75,0S10,1.338,10,2.99s1.461,2.74,2.75,2.74
			C14.043,5.729,15.5,4.641,15.5,2.99z"/>
		<path fill="#F7F7F7" d="M12.75,1.062v2.958c-0.751,0-1.361-0.662-1.361-1.479S11.999,1.062,12.75,1.062z"/>
		<path fill="#F7F7F7" d="M12.754,4.021V0.016c1.017,0,1.842,0.897,1.842,2.003S13.771,4.021,12.754,4.021z"/>
	</g>
	<g>
		<circle fill="#373F3F" cx="13.905" cy="9.375" r="0.75"/>
		<path fill="#0A6F8E" d="M14.149,9.881c-0.414,0-0.75-0.336-0.75-0.75c0-0.144,0.051-0.27,0.121-0.385
			c-0.215,0.132-0.365,0.358-0.365,0.629c0,0.414,0.336,0.75,0.75,0.75c0.27,0,0.497-0.151,0.629-0.365
			C14.419,9.83,14.293,9.881,14.149,9.881z"/>
		<circle fill="#E3E6E4" cx="14.135" cy="9.088" r="0.286"/>
	</g>
	<path fill="#FAB8CD" d="M16,12.562h2.875c0,0,5.125,4.688,5.125,9.438s-3.875,8-8,8V12.562z"/>
	<circle fill="#D1D4D4" cx="21.928" cy="11.219" r="2.197"/>
	<circle fill="#D1D4D4" cx="20.012" cy="16.281" r="2.344"/>
	<circle fill="#E3E5E5" cx="21.045" cy="13.875" r="2.917"/>
	<path fill="#E3E5E5" d="M20.052,16.156c0,2.238-1.814,4.052-4.052,4.052v-8.104C18.238,12.104,20.052,13.918,20.052,16.156z"/>
	<circle fill="#E3E6E4" cx="19.587" cy="8.892" r="1.329"/>
	
		<ellipse transform="matrix(0.739 -0.6737 0.6737 0.739 -2.612 15.6127)" fill="#D1D4D4" cx="18.846" cy="11.178" rx="2.221" ry="2.01"/>
	<path fill="#D1D4D4" d="M18.784,12.855c0,1.538-1.247,2.784-2.784,2.784v-5.569C17.538,10.071,18.784,11.318,18.784,12.855z"/>
	<path fill="#FAC4D1" d="M16,5.04c2.245,0,4.75,0.289,4.75,3.21c0,3.237-1.494,4.299-3.218,5.408C17,14,16.625,14.317,16,14.317
		V5.04z"/>
	<path fill="#C8CCCB" d="M16,0.708c2.227,0,4.033,1.798,4.033,4.015c0,0.027-0.008,0.042-0.008,0.068H16V0.708z"/>
	<g>
		<path fill="#2B3332" d="M21.424,5.765c1.298-0.171,4.085,1.179,4.222,2.223s-2.335,2.078-3.617,2.246
			c-0.593,0.078-1.302-0.142-1.742-0.452c-0.556-0.63-0.647-2.182-0.492-3.024C20.141,6.283,20.77,5.851,21.424,5.765z"/>
		<path fill="#F8C4CF" d="M21.088,8.056c-0.124-0.941,0.348-1.817,1.151-2.246c0.344,0.064,0.718,0.176,1.089,0.323
			c-0.372,0.459-0.561,1.06-0.478,1.691c0.102,0.776,0.591,1.419,1.261,1.745c-0.362,0.175-0.748,0.324-1.117,0.439
			C22.002,9.859,21.221,9.066,21.088,8.056z"/>
	</g>
	<ellipse fill="#C8CCCB" cx="20.305" cy="3.823" rx="2.597" ry="2.823"/>
	<path fill="#C8CCCB" d="M16,4.878V4.011c0-0.909,1.377-1.427,2.369-1.427c1.308,0,2.369,1.027,2.369,2.295
		s-1.061,2.295-2.369,2.295C17.061,7.173,16,6.145,16,4.878z"/>
	<ellipse fill="#C8CCCB" cx="20.127" cy="5.295" rx="2.111" ry="2.295"/>
	<g>
		<path fill="#D1D4D4" d="M16.5,2.99C16.5,1.338,17.731,0,19.25,0S22,1.338,22,2.99s-1.461,2.74-2.75,2.74
			C17.957,5.729,16.5,4.641,16.5,2.99z"/>
		<path fill="#E3E5E5" d="M20.611,2.542c0,0.817-0.609,1.479-1.361,1.479V1.062C20.001,1.062,20.611,1.725,20.611,2.542z
			 M19.246,4.021V0.016c-1.017,0-1.842,0.897-1.842,2.003S18.229,4.021,19.246,4.021z"/>
	</g>
	<g>
		<circle fill="#2B3332" cx="18.095" cy="9.375" r="0.75"/>
		<path fill="#0A6F8E" d="M17.851,9.881c0.414,0,0.75-0.336,0.75-0.75c0-0.144-0.051-0.27-0.121-0.385
			c0.215,0.132,0.365,0.358,0.365,0.629c0,0.414-0.336,0.75-0.75,0.75c-0.27,0-0.497-0.151-0.629-0.365
			C17.581,9.83,17.707,9.881,17.851,9.881z"/>
		<circle fill="#E3E6E4" cx="17.865" cy="9.088" r="0.286"/>
	</g>
	<path fill="#F9ADC8" d="M16,26.25c3.625,0,6.938-3.062,8-4.25c0,4.75-3.875,8-8,8V26.25z"/>
</g>
</svg>
