<?xml version="1.0" encoding="utf-8"?>
<!-- Generator: Adobe Illustrator 21.0.2, SVG Export Plug-In . SVG Version: 6.00 Build 0)  -->
<svg version="1.1" id="icons" xmlns="http://www.w3.org/2000/svg" xmlns:xlink="http://www.w3.org/1999/xlink" x="0px" y="0px"
	 width="32px" height="32px" viewBox="0 0 32 32" enable-background="new 0 0 32 32" xml:space="preserve">
<g>
	<g>
		<path fill="#D196A6" d="M28.828,12.948c-1.666,5.189-4.8,8.688-9.328,8.688v4.83c4.919,0,9.323-3.187,9.687-13.442
			C29.196,12.792,28.898,12.729,28.828,12.948z"/>
		<path fill="#F0C13E" d="M28.828,12.948c-1.666,5.189-4.8,8.688-9.328,8.688v4.83c4.919,0,9.323-3.187,9.687-13.442
			C29.196,12.792,28.898,12.729,28.828,12.948z"/>
		<path fill="#3A3A38" d="M28.828,12.947c-0.152,0.474-0.321,0.929-0.498,1.373c0.189,0.068,0.382,0.128,0.582,0.173
			c0.061,0.014,0.121,0.019,0.181,0.031c0.039-0.486,0.075-0.978,0.094-1.501C29.196,12.792,28.898,12.729,28.828,12.947z"/>
		<path fill="#2B3332" d="M27.874,20.395c0.447-1.163,0.797-2.519,1.025-4.098c-0.438-0.107-0.858-0.255-1.258-0.438
			c-0.643,1.265-1.404,2.361-2.281,3.25C26.096,19.693,26.943,20.134,27.874,20.395z"/>
	</g>
	<path fill="#2B3332" d="M26.212,23.377c-0.61-0.311-1.203-0.673-1.771-1.094c-0.573-0.425-1.097-0.891-1.574-1.389
		c-1.02,0.477-2.141,0.742-3.367,0.742v3.951c0.285,0.293,0.586,0.573,0.904,0.84C22.603,26.242,24.645,25.339,26.212,23.377z"/>
	<path fill="#FFD96C" d="M14.317,14.526c-1.436-0.031-3.078,0.183-5.352,1.174c-2.276,0.992-5.021,2.992-4.965,3.336
		s3.539,0.524,5.682-0.25c2.302-0.831,3.617-2.023,4.667-3.15C14.465,15.335,14.317,14.526,14.317,14.526z"/>
	<path fill="#FFD04D" d="M17.683,14.526c1.436-0.031,3.078,0.183,5.352,1.174c2.276,0.992,5.021,2.992,4.965,3.336
		c-0.056,0.343-3.539,0.524-5.682-0.25c-2.302-0.831-3.617-2.023-4.667-3.15C17.535,15.335,17.683,14.526,17.683,14.526z"/>
	<path fill="#FFD04D" d="M9.788,21.03c-0.373,0-3.172,3.172-3.172,4.945s2.053,2.193,2.053,3.079S5,29.957,5,31.03
		c0,1.073,2.879,1.119,3.958,0.792c1.375-0.417,1.995-0.949,1.995-1.415s-0.606-0.653-0.606-1.026c0-0.373,1.819-1.12,1.819-1.12
		L9.788,21.03z"/>
	<path fill="#FFD96C" d="M16,8.958L13.333,9c0,0,0.667,0.792,0.667,4.708C14,17.833,9,18.042,9,24c0,4.042,4.583,6,7,6V8.958z"/>
	<path fill="#EDEEEE" d="M16,17.167c-1.542,0-3.083,4.159-6.606,4.159C9.148,22.097,9,22.974,9,24c0,4.042,4.583,6,7,6V17.167z"/>
	<path fill="#FFE28A" d="M16,2c-1.92,0-4.5,1.206-4.5,4.75c0,2.363,2.875,5,4.5,5V2z"/>
	<path fill="#434C4B" d="M14.49,2.23c-0.134-0.715-0.591-1.545-1.5-1.909c-0.909-0.364-2.162-0.433-2.408-0.136
		c-0.227,0.273-0.207,1.898,0.5,2.726c0.752,0.881,1.29,0.884,1.772,1.045C13.399,4.139,14.626,2.957,14.49,2.23z"/>
	<g>
		<path fill="#434C4B" d="M13.996,13.345C13.997,13.466,14,13.581,14,13.708c0,0.162-0.02,0.308-0.035,0.459
			c0.521,0.286,1.1,0.487,1.726,0.564c0.105,0.013,0.206,0.001,0.309,0.007v-0.787c-0.071-0.006-0.141,0.003-0.213-0.006
			C15.134,13.865,14.532,13.652,13.996,13.345z"/>
		<path fill="#434C4B" d="M13.942,11.624c0.019,0.271,0.033,0.571,0.043,0.892c0.557,0.33,1.186,0.557,1.869,0.641
			c0.049,0.006,0.097-0.001,0.146,0.003v-0.788c-0.017-0.002-0.033,0.001-0.05-0.001C15.203,12.28,14.531,12.007,13.942,11.624z"/>
	</g>
	<path fill="#FFE28A" d="M13.745,0.839c-0.209-0.207-0.447-0.395-0.755-0.518c-0.057-0.023-0.118-0.041-0.177-0.061
		c-0.259,1.029-1.024,1.847-2.019,2.186c0.081,0.169,0.172,0.33,0.288,0.466c0.161,0.189,0.311,0.332,0.455,0.45
		C12.691,3.026,13.563,2.051,13.745,0.839z"/>
	<g>
		<circle fill="#373F3F" cx="13.639" cy="6.281" r="0.75"/>
		<path fill="#0A6F8E" d="M13.883,6.787c-0.414,0-0.75-0.336-0.75-0.75c0-0.144,0.051-0.27,0.121-0.385
			c-0.215,0.132-0.365,0.358-0.365,0.629c0,0.414,0.336,0.75,0.75,0.75c0.27,0,0.497-0.151,0.629-0.365
			C14.154,6.736,14.027,6.787,13.883,6.787z"/>
		<circle fill="#FFFFFF" cx="13.869" cy="5.994" r="0.286"/>
	</g>
	<path fill="#E85160" d="M16,3.808v2.093c-0.552,0-1-0.469-1-1.047C15,4.276,15.448,3.808,16,3.808z"/>
	<path fill="#F7C845" d="M22.212,21.03c0.373,0,3.172,3.172,3.172,4.945s-2.053,2.193-2.053,3.079S27,29.957,27,31.03
		c0,1.073-2.879,1.119-3.958,0.792c-1.375-0.417-1.995-0.949-1.995-1.415s0.606-0.653,0.606-1.026c0-0.373-1.819-1.12-1.819-1.12
		L22.212,21.03z"/>
	<path fill="#FFD04D" d="M16,8.958L18.667,9c0,0-0.667,0.792-0.667,4.708c0,4.125,5,4.333,5,10.292c0,4.042-4.583,6-7,6V8.958z"/>
	<path fill="#E3E5E5" d="M16,17.167c1.542,0,3.083,4.159,6.606,4.159C22.852,22.097,23,22.974,23,24c0,4.042-4.583,6-7,6V17.167z"/>
	<path fill="#FFD96C" d="M16,2c1.92,0,4.5,1.206,4.5,4.75c0,2.363-2.875,5-4.5,5V2z"/>
	<path fill="#373F3F" d="M17.51,2.23c0.134-0.715,0.591-1.545,1.5-1.909c0.909-0.364,2.162-0.433,2.408-0.136
		c0.227,0.273,0.207,1.898-0.5,2.726c-0.752,0.881-1.29,0.884-1.772,1.045C18.601,4.139,17.374,2.957,17.51,2.23z"/>
	<g>
		<path fill="#373F3F" d="M18.004,13.345C18.003,13.466,18,13.581,18,13.708c0,0.162,0.02,0.308,0.035,0.459
			c-0.521,0.286-1.1,0.487-1.726,0.564c-0.105,0.013-0.206,0.001-0.309,0.007v-0.787c0.071-0.006,0.141,0.003,0.213-0.006
			C16.866,13.865,17.468,13.652,18.004,13.345z"/>
		<path fill="#373F3F" d="M18.058,11.624c-0.019,0.271-0.033,0.571-0.043,0.892c-0.557,0.33-1.186,0.557-1.869,0.641
			c-0.049,0.006-0.097-0.001-0.146,0.003v-0.788c0.017-0.002,0.033,0.001,0.05-0.001C16.797,12.28,17.469,12.007,18.058,11.624z"/>
	</g>
	<path fill="#FFD96C" d="M18.255,0.839c0.209-0.207,0.447-0.395,0.755-0.518c0.057-0.023,0.118-0.041,0.177-0.061
		c0.259,1.029,1.024,1.847,2.019,2.186c-0.081,0.169-0.172,0.33-0.288,0.466c-0.161,0.189-0.311,0.332-0.455,0.45
		C19.309,3.026,18.437,2.051,18.255,0.839z"/>
	<g>
		<circle fill="#2B3332" cx="18.361" cy="6.281" r="0.75"/>
		<path fill="#0A6F8E" d="M18.117,6.787c0.414,0,0.75-0.336,0.75-0.75c0-0.144-0.051-0.27-0.121-0.385
			c0.215,0.132,0.365,0.358,0.365,0.629c0,0.414-0.336,0.75-0.75,0.75c-0.27,0-0.497-0.151-0.629-0.365
			C17.846,6.736,17.973,6.787,18.117,6.787z"/>
		<circle fill="#F7F7F7" cx="18.131" cy="5.994" r="0.286"/>
	</g>
	<path fill="#D84459" d="M17,4.854c0,0.578-0.448,1.047-1,1.047V3.808C16.552,3.808,17,4.276,17,4.854z"/>
	<path fill="#D84459" d="M28.75,15.625c-1.243,0-2.25-1.007-2.25-2.25s1.007-2.25,2.25-2.25c1.243,0,2.25,1.007,2.25,2.25
		S29.993,15.625,28.75,15.625z"/>
</g>
</svg>
