<?xml version="1.0" encoding="utf-8"?>
<!-- Generator: Adobe Illustrator 21.0.2, SVG Export Plug-In . SVG Version: 6.00 Build 0)  -->
<svg version="1.1" id="icons" xmlns="http://www.w3.org/2000/svg" xmlns:xlink="http://www.w3.org/1999/xlink" x="0px" y="0px"
	 width="32px" height="32px" viewBox="0 0 32 32" enable-background="new 0 0 32 32" xml:space="preserve">
<g>
	<path fill="#2B3332" d="M19.371,32.044c-0.021,0-0.041-0.001-0.062-0.002c-0.253-0.021-0.477-0.167-0.598-0.39l-4.437-8.435
		c-0.129-0.245-0.035-0.547,0.209-0.675c0.245-0.127,0.547-0.035,0.675,0.209l4.247,8.074l3.545-4.822l7.663,4.628l-2.84-8.811
		c-0.084-0.263,0.06-0.544,0.323-0.629c0.262-0.083,0.545,0.06,0.629,0.323l3.045,9.447c0.097,0.301-0.001,0.623-0.249,0.818
		c-0.249,0.196-0.584,0.216-0.853,0.053l-7.453-4.501l-3.245,4.413C19.82,31.938,19.602,32.044,19.371,32.044z M30.819,31.267h0.01
		H30.819z"/>
	<path fill="#65A9DC" d="M11.815,5.625C11.414,2.472,8.94,0.042,5.939,0.042C2.659,0.042,0,2.943,0,6.52
		c0,3.436,2.454,6.239,5.554,6.456c-0.262,0.868-0.435,1.779-0.509,2.722C4.442,15.97,3.743,16.122,3,16.122c-0.917,0-3-0.625-3,1.5
		c0,1.75,1.958,1.875,3,1.5c0.538-0.194,1.302-0.719,2.047-1.301C5.551,23.947,10.259,28.75,16,28.75V4.719
		C14.517,4.719,13.105,5.044,11.815,5.625z"/>
	<circle fill="#529CCF" cx="28.396" cy="23.688" r="3.604"/>
	<path fill="#5CA3D5" d="M29,16.122c-0.743,0-1.442-0.151-2.045-0.424c-0.074-0.943-0.247-1.854-0.509-2.722
		c3.098-0.22,5.551-3.022,5.551-6.457c0-3.578-2.659-6.479-5.94-6.479c-3.001,0-5.476,2.43-5.877,5.582
		c-1.289-0.579-2.7-0.903-4.18-0.903V28.75c5.741,0,10.449-4.803,10.953-10.929c0.745,0.582,1.509,1.107,2.047,1.301
		c1.042,0.375,3,0.25,3-1.5C32,15.497,29.917,16.122,29,16.122z"/>
	<path fill="#65A9DC" d="M9.792,25c-0.833,0.917-2.568,2.916-2.958,4c-0.375,1.042-0.25,3,1.5,3c2.125,0,1.5-2.083,1.5-3
		c0-1.162,0.333-2.25,1-2.958C10.208,25.458,9.792,25,9.792,25z"/>
	<path fill="#E55D53" d="M2.006,8.038c0-2.592,1.839-4.538,3.96-4.538c2.467,0,3.887,2.14,4.023,3.268
		c0.012,0.104-0.052,0.194-0.147,0.237c-1.846,0.85-3.395,3.306-3.74,4.796c-0.027,0.118-0.125,0.201-0.246,0.195
		C4.136,11.92,2.006,10.529,2.006,8.038z"/>
	<path fill="#5CA3D5" d="M22.539,25c0.833,0.917,2.568,2.916,2.958,4c0.375,1.042,0.25,3-1.5,3c-2.125,0-1.5-2.083-1.5-3
		c0-1.162-0.333-2.25-1-2.958C22.122,25.458,22.539,25,22.539,25z"/>
	<path fill="#D64F45" d="M29.991,8.038c0-2.592-1.839-4.538-3.96-4.538c-2.467,0-3.887,2.14-4.023,3.268
		c-0.012,0.104,0.052,0.194,0.147,0.237c1.846,0.85,3.395,3.306,3.74,4.796c0.027,0.118,0.125,0.201,0.246,0.195
		C27.861,11.92,29.991,10.529,29.991,8.038z"/>
	<path fill="#EDEEEE" d="M6.148,22.092C7.952,26.039,11.686,28.75,16,28.75v-9.083C11.667,19.667,7.75,21.083,6.148,22.092z"/>
	<path fill="#E55D53" d="M16,12.585v0.981v2.237c-1.188,0-2.198-1.625-2.249-2.551c-0.006-0.102,0.079-0.172,0.175-0.207
		C14.309,12.905,14.933,12.591,16,12.585z"/>
	<path fill="#D64F45" d="M18.075,13.045c0.096,0.035,0.181,0.105,0.175,0.207c-0.051,0.926-1.062,2.551-2.249,2.551v-3.218
		C17.068,12.591,17.692,12.905,18.075,13.045z"/>
	<g>
		<ellipse fill="#373F3F" cx="12.499" cy="10.028" rx="1.499" ry="1.665"/>
		<circle fill="#FFFFFF" cx="12.499" cy="9.395" r="0.833"/>
	</g>
	<g>
		<ellipse fill="#2B3332" cx="19.501" cy="10.028" rx="1.499" ry="1.665"/>
		<circle fill="#F7F7F7" cx="19.501" cy="9.395" r="0.833"/>
	</g>
	<path fill="#E3E5E5" d="M25.852,22.092C24.048,26.039,20.314,28.75,16,28.75v-9.083C20.333,19.667,24.25,21.083,25.852,22.092z"/>
</g>
</svg>
