<?xml version="1.0" encoding="utf-8"?>
<!-- Generator: Adobe Illustrator 21.0.2, SVG Export Plug-In . SVG Version: 6.00 Build 0)  -->
<svg version="1.1" id="icons" xmlns="http://www.w3.org/2000/svg" xmlns:xlink="http://www.w3.org/1999/xlink" x="0px" y="0px"
	 width="32px" height="32px" viewBox="0 0 32 32" enable-background="new 0 0 32 32" xml:space="preserve">
<g>
	<path fill="#2B3332" d="M29.347,32.026c-0.15,0-0.3-0.045-0.429-0.136l-4.497-3.62c-0.076-0.062-0.177-0.081-0.273-0.059
		l-6.715,1.741l-3.018-4.959c-0.144-0.236-0.068-0.543,0.167-0.687c0.236-0.144,0.544-0.068,0.687,0.167l2.631,4.324l5.996-1.554
		c0.399-0.103,0.83-0.011,1.152,0.248l3.917,3.155l-1.081-5.381c-0.054-0.271,0.121-0.535,0.392-0.589
		c0.268-0.054,0.534,0.121,0.589,0.392l1.218,6.062c0.058,0.306-0.071,0.608-0.328,0.775C29.63,31.985,29.488,32.026,29.347,32.026z
		 M29.102,31.321h0.01H29.102z"/>
	<circle fill="#4896C8" cx="28.375" cy="25.125" r="3.604"/>
	<path fill="#5CA3D5" d="M25,17.664c0.917,0.833,2.916,2.568,4,2.958c1.042,0.375,3,0.25,3-1.5c0-2.125-2.083-1.5-3-1.5
		c-1.162,0-2.25-0.333-2.958-1C25.458,17.247,25,17.664,25,17.664z"/>
	<path fill="#5CA3D5" d="M22.33,32c-1.458,0-3.958-2.625-4.542-3.5c0.667-0.625,1.083-1,1.083-1s2,1.5,3.375,1.5
		s2.042,0.542,2.042,1.5C24.289,31.5,23.455,32,22.33,32z"/>
	<path fill="#5CA3D5" d="M17.725,10.769c0.498-1.195,2.07-5.924,2.717-6.571c0.647-0.647,9.264-5.974,11.326-3.584
		c1.512,1.752-4.821,5.54-6.251,6.438c-0.203,0.127-0.381,0.282-0.538,0.464l-4.865,5.644L17.725,10.769z"/>
	<path fill="#D64F45" d="M19.836,8.733c0.265-0.886,1.336-3.571,1.758-3.992c0.421-0.421,6.44-3.737,7.155-2.513
		c0.596,1.022-3.742,3.722-4.131,4.046s-2.705,3.341-2.705,3.341S20.85,9.01,19.836,8.733z"/>
	<path fill="#5CA3D5" d="M16,7.5v23c5.816,0,10.531-5.149,10.531-11.5C26.531,12.649,21.816,7.5,16,7.5z"/>
	<path fill="#CE8683" d="M16,14.763L16,14.763c-0.506,0-1.169,0.133-1.479,0.733c0.149,0.289,0.355,0.529,0.595,0.704
		c0.022,0.016,0.044,0.029,0.067,0.044c0.096,0.063,0.197,0.112,0.303,0.152c0.033,0.012,0.065,0.027,0.099,0.037
		C15.718,16.473,15.856,16.5,16,16.5V14.763z"/>
	<path fill="#65A9DC" d="M14.274,11.022c-0.523-1.254-2.512-6.662-2.904-7.524c-0.211-0.463-0.679-2.456-3.814-2.456
		c-3.031,0-7.472,1.933-7.472,4.337c0,1.933,6.897,0.627,6.897,0.627l4.785,7.524L14.274,11.022z"/>
	<path fill="#65A9DC" d="M7,17.664c-0.917,0.833-2.916,2.568-4,2.958c-1.042,0.375-3,0.25-3-1.5c0-2.125,2.083-1.5,3-1.5
		c1.162,0,2.25-0.333,2.958-1C6.542,17.247,7,17.664,7,17.664z"/>
	<path fill="#65A9DC" d="M9.67,32c1.458,0,3.958-2.625,4.542-3.5c-0.667-0.625-1.083-1-1.083-1s-2,1.5-3.375,1.5
		s-2.042,0.542-2.042,1.5C7.711,31.5,8.545,32,9.67,32z"/>
	<path fill="#E55D53" d="M12.417,8.975c-0.532-1.29-1.625-4.1-1.897-4.654C9.917,4.958,8.583,5.667,7.917,5.909
		c0.243,0.419,2.447,3.895,2.447,3.895S11.419,9.206,12.417,8.975z"/>
	<path fill="#65A9DC" d="M5.469,19c0,6.351,4.715,11.5,10.531,11.5v-23C10.184,7.5,5.469,12.649,5.469,19z"/>
	<path fill="#F7F7F7" d="M6.376,23.694C6.804,23.312,7.303,23,8.083,23C10.042,23,10,25.042,12,25.042S14.042,23,16,23v7.5
		C11.531,30.5,8.023,27.699,6.376,23.694z M11.167,18.604c-1.036,0-1.875,0.895-1.875,2c0,1.105,0.839,2,1.875,2
		s1.875-0.895,1.875-2C13.042,19.5,12.202,18.604,11.167,18.604z M7.583,16.792c-0.483,0-0.875,0.448-0.875,1
		c0,0.552,0.392,1,0.875,1s0.875-0.448,0.875-1C8.458,17.239,8.067,16.792,7.583,16.792z M14.625,20.5
		c0,0.81,0.616,1.467,1.375,1.467v-2.933C15.241,19.033,14.625,19.69,14.625,20.5z"/>
	<path fill="#EDEEEE" d="M16,30.5V23c1.958,0,2,2.042,4,2.042S21.958,23,23.917,23c0.78,0,1.268,0.324,1.695,0.706
		C24.024,27.647,20.281,30.5,16,30.5z M18.958,20.604c0,1.105,0.839,2,1.875,2s1.875-0.895,1.875-2c0-1.105-0.839-2-1.875-2
		S18.958,19.5,18.958,20.604z M23.542,17.792c0,0.552,0.392,1,0.875,1c0.483,0,0.875-0.448,0.875-1c0-0.552-0.392-1-0.875-1
		C23.933,16.792,23.542,17.239,23.542,17.792z M16,19.033v2.933c0.759,0,1.375-0.657,1.375-1.467
		C17.375,19.69,16.759,19.033,16,19.033z"/>
	<path fill="#E55D53" d="M16,14.752v0.981v2.237c-1.188,0-2.198-1.625-2.249-2.551c-0.006-0.102,0.079-0.172,0.175-0.207
		C14.309,15.072,14.933,14.758,16,14.752z"/>
	<path fill="#D64F45" d="M18.075,15.212c0.096,0.035,0.181,0.105,0.175,0.207c-0.051,0.926-1.062,2.551-2.249,2.551v-3.218
		C17.068,14.758,17.692,15.072,18.075,15.212z"/>
	<g>
		<g>
			<ellipse fill="#373F3F" cx="12.5" cy="12.167" rx="1.5" ry="1.667"/>
			<circle fill="#373F3F" cx="12.5" cy="11.533" r="0.833"/>
		</g>
		<g>
			<ellipse fill="#373F3F" cx="12.5" cy="12.167" rx="1.5" ry="1.667"/>
			<circle fill="#FFFFFF" cx="12.5" cy="11.533" r="0.833"/>
		</g>
	</g>
	<g>
		<ellipse fill="#2B3332" cx="19.5" cy="12.167" rx="1.5" ry="1.667"/>
		<circle fill="#F7F7F7" cx="19.5" cy="11.533" r="0.833"/>
	</g>
</g>
</svg>
