<?xml version="1.0" encoding="utf-8"?>
<!-- Generator: Adobe Illustrator 21.0.2, SVG Export Plug-In . SVG Version: 6.00 Build 0)  -->
<svg version="1.1" id="icons" xmlns="http://www.w3.org/2000/svg" xmlns:xlink="http://www.w3.org/1999/xlink" x="0px" y="0px"
	 width="32px" height="32px" viewBox="0 0 32 32" enable-background="new 0 0 32 32" xml:space="preserve">
<g>
	<path fill="#6CD275" d="M15,26.5c0,1.933-0.895,3.5-2,3.5s-2-1.567-2-3.5S15,24.567,15,26.5z"/>
	<path fill="#60C46F" d="M21,26.5c0,1.933-0.895,3.5-2,3.5s-2-1.567-2-3.5S21,24.567,21,26.5z"/>
	<path fill="#6CD275" d="M22.801,10.146C22.801,10.146,32,12,32,16s-3,6.5-6.5,6.5S22.801,10.146,22.801,10.146z"/>
	<path fill="#78DF7C" d="M9.199,10.146C9.199,10.146,0,12,0,16s3,6.5,6.5,6.5S9.199,10.146,9.199,10.146z"/>
	<path fill="#84ED82" d="M16,8C9.925,8,5,12.477,5,18c0,5.523,4.925,10,11,10V8z"/>
	<path fill="#78DF7C" d="M27,18c0-5.523-4.925-10-11-10v20C22.075,28,27,23.523,27,18z"/>
	<circle fill="#F3586F" cx="12" cy="16" r="1"/>
	<circle fill="#E85160" cx="20" cy="16" r="1"/>
	<path fill="#78DF7C" d="M10,22c-1.628,0-3.826-1.32-4.71-1.749C6.415,24.688,10.778,28,16,28v-5C14,23,15,22,10,22z"/>
	<path fill="#6CD275" d="M22,22c1.628,0,3.826-1.32,4.71-1.749C25.585,24.688,21.222,28,16,28v-5C18,23,17,22,22,22z"/>
	<path fill="#78DF7C" d="M10.265,26.563c-1.367,1.367-3.108,1.842-3.889,1.061c-0.781-0.781-0.306-2.522,1.061-3.889
		C8.804,22.368,11.632,25.196,10.265,26.563z"/>
	<path fill="#6CD275" d="M21.735,26.563c1.367,1.367,3.108,1.842,3.889,1.061c0.781-0.781,0.306-2.522-1.061-3.889
		C23.196,22.368,20.368,25.196,21.735,26.563z"/>
	<path fill="#FFD96C" d="M16,4c-1.657,0-3,0.895-3,2c0,1.105,1.343,2,3,2V4z"/>
	<path fill="#FFD04D" d="M19,6c0-1.105-1.343-2-3-2v4C17.657,8,19,7.105,19,6z"/>
	<ellipse fill="#FFE28A" cx="12" cy="7" rx="3" ry="2"/>
	<ellipse fill="#FFD96C" cx="20" cy="7" rx="3" ry="2"/>
	<path fill="#FFFFFF" d="M16,6c-2.209,0-4,0.895-4,2c0,1.105,1.791,2,4,2V6z"/>
	<path fill="#F7F7F7" d="M20,8c0-1.105-1.791-2-4-2v4C18.209,10,20,9.105,20,8z"/>
	<ellipse fill="#FFEAA7" cx="12" cy="9" rx="3" ry="2"/>
	<ellipse fill="#FFE28A" cx="20" cy="9" rx="3" ry="2"/>
	<path fill="#FEF1C6" d="M16,8c-1.657,0-3,0.895-3,2c0,1.105,1.343,2,3,2V8z"/>
	<path fill="#FFEAA7" d="M19,10c0-1.105-1.343-2-3-2v4C17.657,12,19,11.105,19,10z"/>
	<circle fill="#FFFFFF" cx="12" cy="15.75" r="0.25"/>
	<circle fill="#F7F7F7" cx="20" cy="15.75" r="0.25"/>
</g>
</svg>
