<?xml version="1.0" encoding="utf-8"?>
<!-- Generator: Adobe Illustrator 21.0.2, SVG Export Plug-In . SVG Version: 6.00 Build 0)  -->
<svg version="1.1" id="icons" xmlns="http://www.w3.org/2000/svg" xmlns:xlink="http://www.w3.org/1999/xlink" x="0px" y="0px"
	 width="32px" height="32px" viewBox="0 0 32 32" enable-background="new 0 0 32 32" xml:space="preserve">
<g>
	<path fill="#845194" d="M22.169,28.724c-0.134,0-0.27-0.004-0.408-0.012c-3.191-0.18-7.438-2.553-8.259-3.689l1.619-1.173
		c0.433,0.56,4.098,2.759,6.84,2.87c0.882,0.033,1.541-0.159,1.924-0.58c0.674-0.741-0.188-3.621-0.881-5.934
		c-0.53-1.77-1.078-3.6-1.288-5.269l1.984-0.249c0.188,1.503,0.713,3.252,1.22,4.944c1.008,3.368,1.879,6.276,0.445,7.854
		C24.617,28.308,23.543,28.724,22.169,28.724z"/>
	<g>
		
			<ellipse transform="matrix(0.7123 -0.7019 0.7019 0.7123 -3.5709 20.2549)" fill="#F7D684" cx="22.921" cy="14.483" rx="4.474" ry="4.474"/>
		<g>
			<path fill="#F7D684" d="M17.909,8.862C17.19,7.527,17.882,5.81,19.47,5.42c0.802-0.196,1.686,0.071,2.246,0.677
				c0.595,0.644,0.761,1.459,0.585,2.188c-0.108,0.447-0.074,0.914,0.143,1.319l1.59,2.954l-2.237,1.204l-1.59-2.954
				c-0.217-0.404-0.588-0.69-1.019-0.845C18.66,9.773,18.196,9.396,17.909,8.862z"/>
			<path fill="#F7D684" d="M28.468,19.577c1.324,0.738,3.052,0.072,3.464-1.511c0.208-0.799-0.046-1.687-0.644-2.256
				c-0.635-0.605-1.447-0.783-2.18-0.617c-0.448,0.101-0.915,0.061-1.317-0.163l-2.93-1.633l-1.237,2.219l2.931,1.633
				c0.4,0.223,0.681,0.598,0.83,1.032C27.568,18.813,27.938,19.282,28.468,19.577z"/>
		</g>
		<path fill="#F7D684" d="M26.317,7.806c1.085-1.059,2.926-0.868,3.739,0.551c0.41,0.716,0.397,1.64-0.031,2.346
			c-0.454,0.75-1.192,1.134-1.942,1.166c-0.459,0.02-0.899,0.181-1.228,0.502l-2.401,2.344l-1.774-1.818l2.401-2.344
			c0.328-0.32,0.501-0.755,0.531-1.213C25.648,8.78,25.882,8.23,26.317,7.806z"/>
	</g>
	<path fill="#B370B9" d="M11.417,14.333C5.792,14.333,1,19.281,1,21c0,1.333,1.92,2.356,3.417,1.458
		c1.042-0.625,0.393-1.968,1.292-2.708c1.417-1.167,3.285-2.434,5.62-2.434L11.417,14.333z"/>
	<polygon fill="#A366AD" points="11.5,31.241 8.5,30.991 8,23.333 11.5,25.218 	"/>
	<path fill="#B370B9" d="M12.5,3.742v11c-4.287,0-7-2.324-7-5.5C5.5,6.066,8.213,3.742,12.5,3.742z"/>
	<path fill="#B370B9" d="M12.5,12.742c-1.375,0-2,0-2,0s-2.792,5.375-2.792,9s2.375,5.5,4.792,5.5V12.742z"/>
	<path fill="#FDEBBB" d="M12.5,19.167c-1.375,0-3.458,0.667-4.792,2.575c0,3.625,2.375,5.5,4.792,5.5V19.167z"/>
	<path fill="#B370B9" d="M6.861,6.786c1.248,2.73,0.702,5.54-0.91,6.277S2.02,12.185,0.772,9.455s-0.952-5.54,0.66-6.277
		S5.613,4.057,6.861,6.786z"/>
	
		<ellipse transform="matrix(0.9095 -0.4158 0.4158 0.9095 -3.5118 2.0672)" fill="#FDEBBB" cx="2.991" cy="9.098" rx="1.283" ry="2.936"/>
	<path fill="#B370B9" d="M12.5,0c-0.458,0-1.063,2.417-1.25,3.062C11.104,2.75,10.667,1.854,10.5,1.5
		c-0.375,0.688-0.625,2.438-0.063,3.312c0.563,0.875,2.063,0,2.063,0V0z"/>
	<path fill="#FDEBBB" d="M8.437,7.104c1.365-0.211,2.604,1.153,4.063,1.153v6.235c-2.884,0-6.208-2.313-6.208-4.449
		C6.292,8.284,6.958,7.333,8.437,7.104z"/>
	<g>
		<path fill="#FFFFFF" d="M10.208,13.167c0.458,0.458,1.417,0.825,2.292,0.825v-1.141c-1.208,0-1.542-0.511-2.048-0.511
			C9.995,12.341,9.879,12.837,10.208,13.167z"/>
	</g>
	<path fill="#FDEBBB" d="M5.92,31.265c0.134,0.912,1.305,0.734,2.915,0.734s2.915,0.134,2.915-0.734
		c0-0.553-1.305-1.268-2.915-1.268S5.84,30.718,5.92,31.265z"/>
	<circle fill="#FFFFFF" cx="8.833" cy="9.75" r="1.792"/>
	<circle fill="#0F0E0D" cx="8.833" cy="9.75" r="1.107"/>
	
		<ellipse transform="matrix(0.7071 -0.7071 0.7071 0.7071 -4.1388 8.7702)" fill="#F9F7F2" cx="8.517" cy="9.381" rx="0.474" ry="0.474"/>
	<path fill="#A366AD" d="M13.583,14.333C19.208,14.333,24,19.281,24,21c0,1.333-1.92,2.356-3.417,1.458
		c-1.042-0.625-0.393-1.968-1.292-2.708c-1.417-1.167-3.285-2.434-5.62-2.434L13.583,14.333z"/>
	<polygon fill="#945BA0" points="13.5,31.241 16.5,30.991 17,23.333 13.5,25.218 	"/>
	<path fill="#A366AD" d="M19.5,9.242c0,3.176-2.713,5.5-7,5.5v-11C16.787,3.742,19.5,6.066,19.5,9.242z"/>
	<path fill="#A366AD" d="M12.5,12.742c1.375,0,2,0,2,0s2.792,5.375,2.792,9s-2.375,5.5-4.792,5.5V12.742z"/>
	<path fill="#A366AD" d="M18.139,6.786c-1.248,2.73-0.702,5.54,0.91,6.277c1.612,0.737,3.931-0.878,5.179-3.608
		c1.248-2.73,0.952-5.54-0.66-6.277C21.955,2.441,19.387,4.057,18.139,6.786z"/>
	
		<ellipse transform="matrix(0.4158 -0.9095 0.9095 0.4158 4.5839 25.332)" fill="#FAE09F" cx="22.009" cy="9.098" rx="2.936" ry="1.283"/>
	<path fill="#A366AD" d="M12.5,0c0.458,0,1.063,2.417,1.25,3.062C13.896,2.75,14.333,1.854,14.5,1.5
		c0.375,0.688,0.625,2.438,0.063,3.312c-0.563,0.875-2.063,0-2.063,0V0z"/>
	<path fill="#FAE09F" d="M18.708,10.042c0,2.136-3.325,4.449-6.208,4.449V8.257c1.458,0,2.698-1.364,4.063-1.153
		C18.042,7.333,18.708,8.284,18.708,10.042z"/>
	<g>
		<path fill="#F7F7F7" d="M14.792,13.167c-0.458,0.458-1.417,0.825-2.292,0.825v-1.141c1.208,0,1.542-0.511,2.048-0.511
			C15.005,12.341,15.121,12.837,14.792,13.167z"/>
	</g>
	<path fill="#FAE09F" d="M19.08,31.265c-0.134,0.912-1.305,0.734-2.915,0.734s-2.915,0.134-2.915-0.734
		c0-0.553,1.305-1.268,2.915-1.268S19.16,30.718,19.08,31.265z"/>
	<circle fill="#FFFFFF" cx="16.167" cy="9.75" r="1.792"/>
	<circle fill="#0F0E0D" cx="16.167" cy="9.75" r="1.107"/>
	
		<ellipse transform="matrix(0.7071 -0.7071 0.7071 0.7071 -1.8057 14.4028)" fill="#F9F7F2" cx="16.483" cy="9.381" rx="0.474" ry="0.474"/>
	<path fill="#FAE09F" d="M12.5,19.167c1.375,0,3.458,0.667,4.792,2.575c0,3.625-2.375,5.5-4.792,5.5V19.167z"/>
</g>
</svg>
