<?xml version="1.0" encoding="utf-8"?>
<!-- Generator: Adobe Illustrator 21.0.2, SVG Export Plug-In . SVG Version: 6.00 Build 0)  -->
<svg version="1.1" id="icons" xmlns="http://www.w3.org/2000/svg" xmlns:xlink="http://www.w3.org/1999/xlink" x="0px" y="0px"
	 width="32px" height="32px" viewBox="0 0 32 32" enable-background="new 0 0 32 32" xml:space="preserve">
<g>
	<path fill="#9FC9E4" d="M21.359,29.854c0.238,1.243-0.858,2.128-1.921,2.128c-1.205,0-2.079-0.67-2.079-1.764
		c0-1.172,0.567-1.813,1.875-2.031C20.359,28,21.171,28.875,21.359,29.854z"/>
	<path fill="#B0D3EA" d="M10.641,29.854c-0.238,1.243,0.858,2.128,1.921,2.128c1.205,0,2.079-0.67,2.079-1.764
		c0-1.172-0.567-1.813-1.875-2.031C11.641,28,10.829,28.875,10.641,29.854z"/>
	<path fill="#9FC9E4" d="M26.25,16.688c-3.537,2.432-3.563,6.188-6,6.188c0,0.875,0,2.625,0,3.375c2.312,0,3.455-3,7.062-3
		c3.063,0,4.688-1.75,4.688-4.312C32,16.25,28.25,15.312,26.25,16.688z"/>
	<g>
		<g>
			<path fill="#B0D3EA" d="M25,7.5c0,3.14-2.315,5.828-5.6,6.945c-0.421,0.143-0.672,0.561-0.672,1.006
				c0,2.924,3.773,4.299,3.773,8.667c0,3.694-3,5.381-6.5,5.381V0C20.971,0,25,3.358,25,7.5z"/>
		</g>
		<g>
			<path fill="#B0D3EA" d="M25,7.5c0,3.14-2.315,5.828-5.6,6.945c-0.421,0.143-0.672,0.561-0.672,1.006
				c0,2.924,3.773,4.299,3.773,8.667c0,3.694-3,5.381-6.5,5.381V0C20.971,0,25,3.358,25,7.5z"/>
		</g>
	</g>
	<path fill="#8EC0E0" d="M18.458,18.749c0-0.348-0.379-0.598-0.794-0.332c-0.359,0.23-0.873,0.461-1.664,0.461v1.261
		c0.67,0,1.664-0.224,2.158-0.717C18.343,19.236,18.458,19.013,18.458,18.749z"/>
	<path fill="#7FB8E0" d="M19.854,21.376c0-0.545-0.595-0.938-1.245-0.521c-0.562,0.361-1.368,0.723-2.61,0.723v1.977
		c1.05,0,2.609-0.352,3.383-1.124C19.674,22.14,19.854,21.79,19.854,21.376z"/>
	<path fill="#71B1E1" d="M21.192,25.002c0-0.734-0.801-1.264-1.676-0.701c-0.757,0.487-1.843,0.973-3.515,0.973v2.663
		c1.415,0,3.514-0.474,4.557-1.514C20.949,26.031,21.192,25.559,21.192,25.002z"/>
	<path fill="#C1DDEE" d="M16,0v29.5c-3.5,0-6.5-1.688-6.5-5.381c0-4.369,3.773-5.744,3.773-8.667c0-0.445-0.251-0.863-0.672-1.006
		C9.315,13.328,7,10.64,7,7.5C7,3.358,11.029,0,16,0z"/>
	<path fill="#D2E6F3" d="M16,0c0,0,0,10.219,0,14.934c-1.906,0.004-2.978-0.345-3.4-0.488C9.315,13.328,7,10.64,7,7.5
		C7,3.358,11.029,0,16,0z"/>
	<g>
		<g>
			<path fill="#C1DDEE" d="M25,7.5c0,3.14-2.315,5.828-5.6,6.945c-0.421,0.143-1.493,0.492-3.4,0.488C16,10.219,16,0,16,0
				C20.971,0,25,3.358,25,7.5z"/>
		</g>
		<g>
			<path fill="#C1DDEE" d="M25,7.5c0,3.14-2.315,5.828-5.6,6.945c-0.421,0.143-1.493,0.492-3.4,0.488C16,10.219,16,0,16,0
				C20.971,0,25,3.358,25,7.5z"/>
		</g>
	</g>
	<path fill="#C27BC6" d="M9,7.5c-0.498,0-1.223,0.013-2.041,0.04c-0.414-0.391-4.88-4.586-5.278-4.188
		C1.339,3.694,3.609,6.194,4.968,7.63C4.472,7.659,3.977,7.693,3.499,7.734c-0.456-0.429-3.22-3.007-3.476-2.751
		c-0.23,0.23,1.313,1.925,2.216,2.878C0.942,8.018,0,8.236,0,8.53c0,0.351,0.929,0.575,2.224,0.718
		c-0.905,0.955-2.43,2.633-2.201,2.862c0.255,0.255,3.019-2.322,3.476-2.751C3.963,9.39,4.446,9.415,4.933,9.434
		c-1.363,1.442-3.592,3.903-3.253,4.242c0.399,0.399,4.88-3.812,5.28-4.189C7.727,9.497,8.436,9.5,9,9.5
		C9.39,9.187,9.358,7.849,9,7.5z"/>
	<path fill="#B370B9" d="M32,8.53c0-0.294-0.942-0.512-2.239-0.67c0.903-0.953,2.446-2.648,2.216-2.878
		c-0.256-0.255-3.02,2.323-3.476,2.751c-0.478-0.04-0.973-0.075-1.469-0.103c1.359-1.436,3.629-3.936,3.287-4.278
		c-0.398-0.398-4.864,3.797-5.278,4.188C24.223,7.513,23.498,7.5,23,7.5c-0.358,0.349-0.39,1.687,0,2
		c0.564,0,1.273-0.003,2.039-0.014c0.4,0.377,4.881,4.589,5.28,4.189c0.339-0.339-1.89-2.8-3.253-4.242
		c0.487-0.019,0.97-0.043,1.434-0.074c0.457,0.429,3.22,3.007,3.476,2.751c0.229-0.229-1.296-1.907-2.201-2.862
		C31.071,9.105,32,8.882,32,8.53z"/>
	<circle fill="#FFFFFF" cx="12.488" cy="7.988" r="0.938"/>
	<path fill="#373F3F" d="M12.488,7.35c0.352,0,0.638,0.286,0.638,0.638c0,0.352-0.286,0.638-0.638,0.638S11.85,8.34,11.85,7.988
		C11.85,7.636,12.136,7.35,12.488,7.35 M12.488,6.75c-0.684,0-1.238,0.554-1.238,1.238c0,0.684,0.554,1.238,1.238,1.238
		s1.238-0.554,1.238-1.238C13.726,7.304,13.172,6.75,12.488,6.75L12.488,6.75z"/>
	<circle fill="#F7F7F7" cx="19.512" cy="7.988" r="0.938"/>
	<path fill="#2B3332" d="M19.512,7.35c0.352,0,0.638,0.286,0.638,0.638c0,0.352-0.286,0.638-0.638,0.638s-0.638-0.286-0.638-0.638
		C18.874,7.636,19.16,7.35,19.512,7.35 M19.512,6.75c-0.684,0-1.238,0.554-1.238,1.238c0,0.684,0.554,1.238,1.238,1.238
		s1.238-0.554,1.238-1.238C20.75,7.304,20.196,6.75,19.512,6.75L19.512,6.75z"/>
	<g>
		<path fill="#E2EFF7" d="M16,4.938V0c-2.383,0-4.544,0.778-6.154,2.038C11.051,3.749,13.588,4.938,16,4.938z"/>
		<path fill="#D2E6F3" d="M16,4.938V0c2.383,0,4.544,0.778,6.154,2.038C20.949,3.749,18.412,4.938,16,4.938z"/>
	</g>
	<g>
		<path fill="#F6B392" d="M15,11.125c0,1.105,0.448,2,1,2v-4C15.448,9.125,15,10.02,15,11.125z"/>
	</g>
	<g>
		<path fill="#F4A984" d="M17,11.125c0,1.105-0.448,2-1,2v-4C16.552,9.125,17,10.02,17,11.125z"/>
	</g>
	<path fill="#9FC9E4" d="M13.542,18.749c0-0.348,0.379-0.598,0.794-0.332c0.359,0.23,0.873,0.461,1.664,0.461v1.261
		c-0.67,0-1.664-0.224-2.158-0.717C13.657,19.236,13.542,19.013,13.542,18.749z"/>
	<path fill="#8EC0E0" d="M12.146,21.376c0-0.545,0.595-0.938,1.245-0.521c0.562,0.361,1.368,0.723,2.61,0.723v1.977
		c-1.05,0-2.609-0.352-3.383-1.124C12.326,22.14,12.146,21.79,12.146,21.376z"/>
	<path fill="#7FB8E0" d="M10.808,25.002c0-0.734,0.801-1.264,1.676-0.701c0.757,0.487,1.843,0.973,3.515,0.973v2.663
		c-1.415,0-3.514-0.474-4.557-1.514C11.051,26.031,10.808,25.559,10.808,25.002z"/>
</g>
</svg>
