<?xml version="1.0" encoding="utf-8"?>
<!-- Generator: Adobe Illustrator 21.0.2, SVG Export Plug-In . SVG Version: 6.00 Build 0)  -->
<svg version="1.1" id="icons" xmlns="http://www.w3.org/2000/svg" xmlns:xlink="http://www.w3.org/1999/xlink" x="0px" y="0px"
	 width="32px" height="32px" viewBox="0 0 32 32" enable-background="new 0 0 32 32" xml:space="preserve">
<g>
	<path fill="#4390BF" d="M24.667,20.833c-3.75,2.833-1.167,3.917-10.724,3.917c1.661,1.94,6.638,3,10.039,2.659
		c0.982-0.098,5.851-1.409,5.851-3.825C29.833,20.5,27.045,19.036,24.667,20.833z"/>
	<path fill="#529CCF" d="M26.5,21.25c-3.75,2.833-3.333,4-10.391,4c1.661,1.94,6.823,2.591,10.224,2.25
		c0.982-0.098,5.667-1,5.667-3.417C32,21,28.879,19.453,26.5,21.25z"/>
	<path fill="#65A9DC" d="M26.833,22.833c-3.75,2.833-3,5.167-10.833,3.25c1.833,3.167,8.833,3.333,11.583,3
		C29.403,28.863,32,28,32,25.583C32,22.5,29.212,21.036,26.833,22.833z"/>
	<path fill="#B0D3EA" d="M16,0v28.5c-2.083,0-2.689,1.07-4.5,1c-4.333-0.167-5.452-3.832-5.5-6c-0.083-3.75,2.25-6.333,2.5-8.75
		C9.048,9.453,8,0,16,0z"/>
	<path fill="#C1DDEE" d="M9.386,5.659C10.161,2.505,11.882,0,16,0v7.062C12.562,7.312,10.75,6.5,9.386,5.659z"/>
	<path fill="#8EC0E0" d="M11.25,28.625l-2.018,2.018C9.084,30.791,9,30.993,9,31.204v0.003C9,31.645,9.355,32,9.793,32h2.914
		c0.438,0,0.793-0.355,0.793-0.793v-2.582H11.25z"/>
	<path fill="#B0D3EA" d="M10.5,17.5c0,0-3.299-0.609-5.583-2c-1.774-1.081-4.148-2.922-4.773-4.61
		c-0.516-1.393,0.524-1.538,0.524-1.538S0.174,8.814,0.814,8.159c0.613-0.627,1.264-0.192,1.264-0.192s0.075-0.702,0.69-0.702
		c1.625,0,2.125,6.697,7.75,6.697L10.5,17.5z"/>
	<g>
		<g>
			<path fill="#675099" d="M7.992,16.609C7.234,18.531,5.938,20.687,6,23.5c0.875-2.188,2.5-0.812,3.062-3.062
				C9.437,18.94,8.125,18.375,7.992,16.609z"/>
		</g>
		<g>
			<path fill="#6E57A0" d="M7.992,16.609C7.234,18.531,5.938,20.687,6,23.5c0.875-2.188,2.5-0.812,3.062-3.062
				C9.437,18.94,8.125,18.375,7.992,16.609z"/>
		</g>
	</g>
	<path fill="#9FC9E4" d="M23.5,14.75c0.25,2.417,2.583,5,2.5,8.75c-0.048,2.168-1.167,5.833-5.5,6c-1.811,0.07-2.417-1-4.5-1V0
		C24.042,0,22.952,9.453,23.5,14.75z"/>
	<path fill="#9FC9E4" d="M21.481,13.962c5.625,0,6.125-6.697,7.75-6.697c0.615,0,0.69,0.702,0.69,0.702s0.652-0.434,1.264,0.192
		c0.64,0.655,0.147,1.193,0.147,1.193s1.04,0.145,0.524,1.538c-0.625,1.688-2.999,3.529-4.773,4.61c-2.284,1.391-5.583,2-5.583,2
		L21.481,13.962z"/>
	<g>
		<g>
			<path fill="#F9BDA0" d="M16,6.417c-1.878,0-1.625,0.562-4.375,0.292c0.348,1.844,2.229,3.333,4.375,3.333V6.417z"/>
		</g>
		<g>
			<path fill="#F6B392" d="M16,6.417c-1.878,0-1.625,0.562-4.375,0.292c0.348,1.844,2.229,3.333,4.375,3.333V6.417z"/>
		</g>
	</g>
	<path fill="#7FB8E0" d="M20.75,28.625l2.018,2.018C22.916,30.791,23,30.993,23,31.204v0.003C23,31.645,22.645,32,22.207,32h-2.914
		c-0.438,0-0.793-0.355-0.793-0.793v-2.582H20.75z"/>
	<path fill="#9FC9E4" d="M16,25.438V28.5c-2.083,0-2.689,1.07-4.5,1c-4.333-0.167-5.417-3.833-5.5-6
		C7.875,24.625,11.5,25.438,16,25.438z"/>
	<path fill="#8EC0E0" d="M26,23.5c-0.083,2.167-1.167,5.833-5.5,6c-1.811,0.07-2.417-1-4.5-1v-3.062
		C20.5,25.438,24.125,24.625,26,23.5z"/>
	<g>
		<g>
			<path fill="#604893" d="M24.01,16.609c0.758,1.922,2.055,4.078,1.992,6.891c-0.875-2.188-2.5-0.812-3.062-3.062
				C22.565,18.94,23.877,18.375,24.01,16.609z"/>
		</g>
		<g>
			<path fill="#604893" d="M24.01,16.609c0.758,1.922,2.055,4.078,1.992,6.891c-0.875-2.188-2.5-0.812-3.062-3.062
				C22.565,18.94,23.877,18.375,24.01,16.609z"/>
		</g>
	</g>
	<path fill="#B0D3EA" d="M16,7.062V0c4.118,0,5.839,2.505,6.614,5.659C21.25,6.5,19.438,7.312,16,7.062z"/>
	<g>
		<path fill="#F4A984" d="M16,6.417c1.878,0,1.521,0.5,4.375,0.271c-0.348,1.844-2.229,3.354-4.375,3.354V6.417z"/>
	</g>
	<circle fill="#2B3332" cx="18.875" cy="4.458" r="0.375"/>
	<circle fill="#373F3F" cx="13.125" cy="4.458" r="0.375"/>
	<g>
		<g>
			<path fill="#F6B392" d="M16,7.594c-1.521-0.031-3.083,0.344-3.667,0.668c0.81,1.059,2.174,1.78,3.667,1.78V7.594z"/>
		</g>
		<g>
			<path fill="#F4A984" d="M16,7.594c-1.521-0.031-3.083,0.344-3.667,0.668c0.81,1.059,2.174,1.78,3.667,1.78V7.594z"/>
		</g>
	</g>
	<path fill="#EA9C7A" d="M16,7.594c1.521-0.031,3.083,0.344,3.667,0.668c-0.81,1.059-2.174,1.78-3.667,1.78V7.594z"/>
</g>
</svg>
