<?xml version="1.0" encoding="utf-8"?>
<!-- Generator: Adobe Illustrator 21.0.2, SVG Export Plug-In . SVG Version: 6.00 Build 0)  -->
<svg version="1.1" id="icons" xmlns="http://www.w3.org/2000/svg" xmlns:xlink="http://www.w3.org/1999/xlink" x="0px" y="0px"
	 width="32px" height="32px" viewBox="0 0 32 32" enable-background="new 0 0 32 32" xml:space="preserve">
<g>
	<path fill="#D285D2" d="M16,26.292c4.042,0,8.37-2.279,9.5-7.292c0.958-4.25,2.47-7.121,3.75-9.042
		c0.667-1,1.625-0.542,1.208,0.125c-0.353,0.565-1.333,1.75-1.667,2.625c0.875-1,1.771-1.838,2.083-2.042
		c1.083-0.708,1.552,0.585,0.583,1.125c-2.167,1.208-4.337,4.358-4.958,7.25C25.417,24.083,21.875,27.5,16,27.5V26.292z"/>
	<path fill="#EBCEEB" d="M11.086,8.525C9.913,8.323,6.382,8.522,5.451,9.25c0.85,0.566,2.467,0.79,2.75,0.75
		c-0.364,0.202-1.169,0.805-1.25,1.25c3.204-0.412,4.499-1.997,4.499-1.997L11.086,8.525z"/>
	<path fill="#E5BDE5" d="M20.899,8.525c1.173-0.202,4.704-0.003,5.635,0.725c-0.85,0.566-2.467,0.79-2.75,0.75
		c0.364,0.202,1.169,0.805,1.25,1.25c-3.204-0.412-4.499-1.997-4.499-1.997L20.899,8.525z"/>
	<path fill="#E5BDE5" d="M30.679,0.056c0.075-0.098,0.239-0.06,0.268,0.06c0.355,1.503-1.094,3.26-3.427,5.26
		c-1.346,1.154-4.701,3.129-6.784,3.421c-2.083,0.292-5.105-2.595-4.083-3.458C19.27,3.125,24.53,2.135,28.27,1.333
		C29.819,1.001,30.215,0.661,30.679,0.056z"/>
	<path fill="#3A4274" d="M27.52,5.375c-1.346,1.154-4.701,3.129-6.784,3.421c-2.083,0.292-3.029-1.766-2.008-2.629
		c2.541-2.148,6.981-2.914,10.403-3.833c0.123-0.033,0.22,0.098,0.166,0.213C28.756,3.683,28.404,4.298,27.52,5.375z"/>
	<path fill="#D285D2" d="M19.5,16.143c0,4.107,3.611,6.948,1.935,10.778c-0.192,0.439-0.355,0.815-0.503,1.147
		c0.622,0.183,1.079,0.751,1.079,1.433c0,0.828-0.672,1.5-1.5,1.5c-0.608,0-1.13-0.364-1.365-0.884
		c-0.626,0.082-1.557-0.055-3.147-0.152V16.143H19.5z"/>
	<path fill="#E5BDE5" d="M17.012,30.232C17.012,30.232,16.25,19,16,19v-5l2-0.75c0,0,2.592,3.085,2.385,5.5
		c-0.341,3.984-0.817,9.549-0.941,11.064c0.514,0.206,0.861,0.578,0.861,1.007c0,0.651-0.792,1.179-1.769,1.179
		c-0.977,0-1.769-0.528-1.769-1.179C16.767,30.605,16.86,30.406,17.012,30.232z"/>
	<path fill="#D285D2" d="M16,17.25V14l2-0.75c0,0,1.036,1.233,1.746,2.75C18,17.25,16,17.25,16,17.25z"/>
	<path fill="#E5BDE5" d="M21.51,7.179c0.373,2.014,0.52,3.818-0.879,5.217c-0.889,0.889-3.466,1.644-4.326,1.909
		c-0.101,0.031-0.203,0.044-0.305,0.043c0,0,0-8.871,0-11.371C18.26,2.977,21.01,4.477,21.51,7.179z"/>
	<path fill="#EBCEEB" d="M1.382,0.056c-0.075-0.098-0.239-0.06-0.268,0.06c-0.355,1.503,1.094,3.26,3.427,5.26
		c1.346,1.154,4.701,3.129,6.784,3.421c2.083,0.292,5.105-2.595,4.083-3.458C12.792,3.125,7.531,2.135,3.792,1.333
		C2.242,1.001,1.846,0.661,1.382,0.056z"/>
	<path fill="#3A4274" d="M4.542,5.375c1.346,1.154,4.701,3.129,6.784,3.421c2.083,0.292,3.029-1.766,2.008-2.629
		C10.793,4.018,6.352,3.253,2.931,2.333C2.807,2.3,2.71,2.431,2.765,2.547C3.305,3.683,3.657,4.298,4.542,5.375z"/>
	<path fill="#D799D6" d="M12.5,16.143c0,4.107-3.611,6.948-1.935,10.778c0.192,0.439,0.355,0.815,0.503,1.147
		c-0.622,0.183-1.079,0.751-1.079,1.433c0,0.828,0.672,1.5,1.5,1.5c0.608,0,1.13-0.364,1.365-0.884
		c0.626,0.082,1.557-0.055,3.147-0.152V16.143H12.5z"/>
	<path fill="#EBCEEB" d="M14.988,30.232C14.988,30.232,15.75,19,16,19v-5l-2-0.75c0,0-2.592,3.085-2.385,5.5
		c0.341,3.984,0.817,9.549,0.941,11.064c-0.514,0.206-0.861,0.578-0.861,1.007c0,0.651,0.792,1.179,1.769,1.179
		c0.977,0,1.769-0.528,1.769-1.179C15.233,30.605,15.14,30.406,14.988,30.232z"/>
	<path fill="#E0ABDF" d="M16,17.25V14l-2-0.75c0,0-1.036,1.233-1.746,2.75C14,17.25,16,17.25,16,17.25z"/>
	<path fill="#EBCEEB" d="M10.5,7.179c-0.373,2.014-0.52,3.818,0.879,5.217c0.889,0.889,3.466,1.644,4.326,1.909
		c0.101,0.031,0.203,0.044,0.305,0.043c0,0,0-8.871,0-11.371C13.75,2.977,11,4.477,10.5,7.179z"/>
	<path fill="#675099" d="M12.771,7c-1.188,0.688-1.042,3.333,1.208,3.25C14.542,9.667,13.5,6.979,12.771,7z"/>
	<path fill="#FFFFFF" d="M14.111,9.329c-0.077-0.522-0.3-1.143-0.57-1.612C12.125,8.062,12.875,9.938,14.111,9.329z"/>
	<path fill="#675099" d="M19.29,7c1.188,0.688,1.042,3.333-1.208,3.25C17.52,9.667,18.561,6.979,19.29,7z"/>
	<path fill="#FFFFFF" d="M17.951,9.329c0.077-0.522,0.3-1.143,0.57-1.612C19.936,8.062,19.186,9.938,17.951,9.329z"/>
	<g>
		<path fill="#C84054" d="M15.167,6.333c0,0.46,0.373,0.833,0.833,0.833V5.5C15.54,5.5,15.167,5.873,15.167,6.333z"/>
		<path fill="#B93D4F" d="M16,5.5v1.667c0.46,0,0.833-0.373,0.833-0.833C16.833,5.873,16.46,5.5,16,5.5z"/>
	</g>
	<g>
		<path fill="#2B3332" d="M15.5,12.448c0,0.138,0.224,0.25,0.5,0.25v-0.5C15.724,12.198,15.5,12.31,15.5,12.448z"/>
	</g>
	<g>
		<path fill="#2B3332" d="M16.5,12.448c0,0.138-0.224,0.25-0.5,0.25v-0.5C16.276,12.198,16.5,12.31,16.5,12.448z"/>
	</g>
</g>
</svg>
