<?xml version="1.0" encoding="utf-8"?>
<!-- Generator: Adobe Illustrator 21.0.2, SVG Export Plug-In . SVG Version: 6.00 Build 0)  -->
<svg version="1.1" id="icons" xmlns="http://www.w3.org/2000/svg" xmlns:xlink="http://www.w3.org/1999/xlink" x="0px" y="0px"
	 width="32px" height="32px" viewBox="0 0 32 32" enable-background="new 0 0 32 32" xml:space="preserve">
<g>
	<path fill="#373F3F" d="M31.735,14.655c-6.776,0.044-9.023,7.624-13.218,9.845v1.75C22.225,22.789,31.801,22.812,32,14.926
		C32.004,14.783,31.879,14.654,31.735,14.655z"/>
	<path fill="#505957" d="M12.5,16.143c0,4.107-3.611,6.948-1.935,10.778c0.192,0.439,0.355,0.815,0.503,1.147
		c-0.622,0.183-1.079,0.751-1.079,1.433c0,0.828,0.672,1.5,1.5,1.5c0.608,0,1.13-0.364,1.365-0.884
		c0.626,0.082,1.557-0.055,3.147-0.152V16.143H12.5z"/>
	<path fill="#5C6664" d="M14.988,30.232C14.988,30.232,15.75,19,16,19v-5l-2-0.75c0,0-2.592,3.085-2.385,5.5
		c0.341,3.984,0.817,9.549,0.941,11.064c-0.514,0.206-0.861,0.578-0.861,1.007c0,0.651,0.792,1.179,1.769,1.179
		c0.977,0,1.769-0.528,1.769-1.179C15.233,30.605,15.14,30.406,14.988,30.232z"/>
	<path fill="#FFD96C" d="M13.609,21.107c-0.068-0.692-0.365-1.316-0.795-1.668c-0.28-0.229-0.596-0.334-0.907-0.299
		c-0.088,0.009-0.172,0.034-0.254,0.062c0.023,0.267,0.046,0.54,0.07,0.817c0.071-0.067,0.155-0.123,0.256-0.133
		c0.013-0.001,0.025-0.001,0.037-0.001c0.131,0,0.247,0.073,0.322,0.134c0.275,0.226,0.477,0.671,0.524,1.162
		c0.036,0.364-0.016,0.732-0.144,1.01c-0.117,0.256-0.287,0.414-0.469,0.432c-0.115,0.016-0.224-0.036-0.313-0.102
		c0.024,0.276,0.047,0.551,0.071,0.826c0.116,0.023,0.282,0.026,0.319,0.022C13.163,23.287,13.727,22.293,13.609,21.107z"/>
	<path fill="#FFD04D" d="M11.859,25.348c-0.053-0.536-0.241-1.032-0.529-1.396c-0.287-0.364-0.651-0.555-1.021-0.57
		c-0.05,0.174-0.11,0.517-0.142,0.777c0.016-0.015,0.054-0.034,0.101-0.034c0.211,0,0.389,0.184,0.476,0.293
		c0.199,0.252,0.331,0.608,0.37,1.004c0.039,0.394-0.02,0.769-0.166,1.055c-0.065,0.127-0.209,0.336-0.411,0.378
		c0.033,0.078,0.217,0.497,0.302,0.691c0.317-0.111,0.588-0.358,0.778-0.728C11.826,26.406,11.913,25.883,11.859,25.348z"/>
	<path fill="#505957" d="M16,17.25V14l-2-0.75c0,0-1.036,1.233-1.746,2.75C14,17.25,16,17.25,16,17.25z"/>
	<path fill="#5C6664" d="M10.5,7.179c-0.373,2.014-0.52,3.818,0.879,5.217c0.889,0.889,3.466,1.644,4.326,1.909
		c0.101,0.031,0.203,0.044,0.305,0.043c0,0,0-8.871,0-11.371C13.75,2.977,11,4.477,10.5,7.179z"/>
	<path fill="#5C6664" d="M13.365,5.052C11.75,4,10.781,2.413,8.544,1.269C6.062,0,2.875,0,1.75,0C1.812,1,4.919,3.459,6.5,4.25
		C8,5,10.75,4.75,13,5.5C13.133,5.445,13.365,5.052,13.365,5.052z"/>
	<path fill="#FFD96C" d="M6.756,0.58C6.164,0.412,5.568,0.293,5,0.208C3.75,0.75,3.5,1.25,3.246,1.933
		c0.389,0.349,0.821,0.701,1.255,1.028C4.75,2.25,5.5,1.25,6.756,0.58z"/>
	<path fill="#E07552" d="M11.25,7.75C11,9,11.5,10.5,12.5,10.5c0.5,0,1.5-0.331,1.5-0.75C14,8,11.348,7.26,11.25,7.75z"/>
	<g>
		<path fill="none" d="M15.25,6.25c0,0.811,0.396,1.375,0.75,1.375v-2.75C15.646,4.875,15.25,5.439,15.25,6.25z"/>
		<path fill="#FFD96C" d="M15.25,6.25c0-0.811,0.396-1.375,0.75-1.375v-0.75c-0.841,0-1.5,0.934-1.5,2.125s0.659,2.125,1.5,2.125
			v-0.75C15.646,7.625,15.25,7.061,15.25,6.25z"/>
	</g>
	<g>
		<defs>
			<path id="SVGID_3_" d="M11.25,7.75C11,9,11.5,10.5,12.5,10.5c0.5,0,1.5-0.331,1.5-0.75C14,8,11.348,7.26,11.25,7.75z"/>
		</defs>
		<use xlink:href="#SVGID_3_"  overflow="visible" fill="#DD7731"/>
		<clipPath id="SVGID_2_">
			<use xlink:href="#SVGID_3_"  overflow="visible"/>
		</clipPath>
		<ellipse clip-path="url(#SVGID_2_)" fill="#2B3332" cx="12.625" cy="8.5" rx="0.375" ry="1"/>
	</g>
	<path fill="#434C4B" d="M19.5,16.143c0,4.107,3.611,6.948,1.935,10.778c-0.192,0.439-0.355,0.815-0.503,1.147
		c0.622,0.183,1.079,0.751,1.079,1.433c0,0.828-0.672,1.5-1.5,1.5c-0.608,0-1.13-0.364-1.365-0.884
		c-0.626,0.082-1.557-0.055-3.147-0.152V16.143H19.5z"/>
	<path fill="#505957" d="M17.012,30.232C17.012,30.232,16.25,19,16,19v-5l2-0.75c0,0,2.592,3.085,2.385,5.5
		c-0.341,3.984-0.817,9.549-0.941,11.064c0.514,0.206,0.861,0.578,0.861,1.007c0,0.651-0.792,1.179-1.769,1.179
		c-0.977,0-1.769-0.528-1.769-1.179C16.767,30.605,16.86,30.406,17.012,30.232z"/>
	<path fill="#434C4B" d="M16,17.25V14l2-0.75c0,0,1.036,1.233,1.746,2.75C18,17.25,16,17.25,16,17.25z"/>
	<path fill="#505957" d="M21.51,7.179c0.373,2.014,0.52,3.818-0.879,5.217c-0.889,0.889-3.466,1.644-4.326,1.909
		c-0.101,0.031-0.203,0.044-0.305,0.043c0,0,0-8.871,0-11.371C18.26,2.977,21.01,4.477,21.51,7.179z"/>
	<path fill="#505957" d="M18.645,5.052C20.26,4,21.23,2.413,23.467,1.269C25.948,0,29.135,0,30.26,0c-0.062,1-3.169,3.459-4.75,4.25
		c-1.5,0.75-4.25,0.5-6.5,1.25C18.877,5.445,18.645,5.052,18.645,5.052z"/>
	<path fill="#FFD04D" d="M25.254,0.58c0.592-0.168,1.188-0.287,1.756-0.371c1.25,0.542,1.5,1.042,1.754,1.724
		c-0.389,0.349-0.821,0.701-1.255,1.028C27.26,2.25,26.51,1.25,25.254,0.58z"/>
	<path fill="#D8714F" d="M20.76,7.75c0.25,1.25-0.25,2.75-1.25,2.75c-0.5,0-1.5-0.331-1.5-0.75C18.01,8,20.662,7.26,20.76,7.75z"/>
	<g>
		<path fill="none" d="M16.76,6.25c0,0.811-0.396,1.375-0.75,1.375v-2.75C16.365,4.875,16.76,5.439,16.76,6.25z"/>
		<path fill="#FFD04D" d="M16.76,6.25c0-0.811-0.396-1.375-0.75-1.375v-0.75c0.841,0,1.5,0.934,1.5,2.125s-0.659,2.125-1.5,2.125
			v-0.75C16.365,7.625,16.76,7.061,16.76,6.25z"/>
	</g>
	<g>
		<defs>
			<path id="SVGID_5_" d="M20.76,7.75c0.25,1.25-0.25,2.75-1.25,2.75c-0.5,0-1.5-0.331-1.5-0.75C18.01,8,20.662,7.26,20.76,7.75z"/>
		</defs>
		<use xlink:href="#SVGID_5_"  overflow="visible" fill="#DD7731"/>
		<clipPath id="SVGID_4_">
			<use xlink:href="#SVGID_5_"  overflow="visible"/>
		</clipPath>
		<ellipse clip-path="url(#SVGID_4_)" fill="#2B3332" cx="19.385" cy="8.5" rx="0.375" ry="1"/>
	</g>
	<path fill="#F0C13E" d="M27.25,15.994c-0.876,0.558-1.659,1.252-2.388,2.006C24.75,19.5,27,21.25,28.25,21.313
		c0.978-0.63,1.841-1.377,2.493-2.313C29.25,18.5,27.5,17.25,27.25,15.994z"/>
	<path fill="#FFD04D" d="M18.401,21.107c0.068-0.692,0.365-1.316,0.795-1.668c0.28-0.229,0.596-0.334,0.907-0.299
		c0.088,0.009,0.172,0.034,0.254,0.062c-0.023,0.267-0.046,0.54-0.07,0.817c-0.071-0.067-0.155-0.123-0.256-0.133
		c-0.013-0.001-0.025-0.001-0.037-0.001c-0.131,0-0.247,0.073-0.322,0.134c-0.275,0.226-0.477,0.671-0.524,1.162
		c-0.036,0.364,0.016,0.732,0.144,1.01c0.117,0.256,0.287,0.414,0.469,0.432c0.115,0.016,0.224-0.036,0.313-0.102
		c-0.024,0.276-0.047,0.551-0.071,0.826c-0.116,0.023-0.282,0.026-0.319,0.022C18.847,23.287,18.284,22.293,18.401,21.107z"/>
	<path fill="#F7C845" d="M20.151,25.348c0.053-0.536,0.241-1.032,0.529-1.396c0.287-0.364,0.651-0.555,1.021-0.57
		c0.05,0.174,0.11,0.517,0.142,0.777c-0.016-0.015-0.054-0.034-0.101-0.034c-0.211,0-0.389,0.184-0.476,0.293
		c-0.199,0.252-0.331,0.608-0.37,1.004c-0.039,0.394,0.02,0.769,0.166,1.055c0.065,0.127,0.209,0.336,0.411,0.378
		c-0.033,0.078-0.217,0.497-0.302,0.691c-0.317-0.111-0.588-0.358-0.778-0.728C20.184,26.406,20.097,25.883,20.151,25.348z"/>
	<g>
		<path fill="#2B3332" d="M15.5,12.448c0,0.138,0.224,0.25,0.5,0.25v-0.5C15.724,12.198,15.5,12.31,15.5,12.448z"/>
	</g>
	<g>
		<g>
			<path fill="#2B3332" d="M16.5,12.448c0,0.138-0.224,0.25-0.5,0.25v-0.5C16.276,12.198,16.5,12.31,16.5,12.448z"/>
		</g>
		<g>
			<path d="M16.5,12.448c0,0.138-0.224,0.25-0.5,0.25v-0.5C16.276,12.198,16.5,12.31,16.5,12.448z"/>
		</g>
	</g>
</g>
</svg>
