<?xml version="1.0" encoding="utf-8"?>
<!-- Generator: Adobe Illustrator 21.0.2, SVG Export Plug-In . SVG Version: 6.00 Build 0)  -->
<svg version="1.1" id="icons" xmlns="http://www.w3.org/2000/svg" xmlns:xlink="http://www.w3.org/1999/xlink" x="0px" y="0px"
	 width="32px" height="32px" viewBox="0 0 32 32" enable-background="new 0 0 32 32" xml:space="preserve">
<g>
	<path fill="#EDEEEE" d="M9.426,18.044c-4.53,0-8.079-3.667-8.079-8.349s3.549-8.349,8.079-8.349s8.079,3.667,8.079,8.349
		S13.956,18.044,9.426,18.044z"/>
	<path fill="#434C4B" d="M9.426,2.693c3.775,0,6.733,3.076,6.733,7.002c0,3.926-2.957,7.002-6.733,7.002s-6.733-3.076-6.733-7.002
		C2.693,5.769,5.651,2.693,9.426,2.693 M9.426,0C4.071,0,0,4.341,0,9.695c0,5.355,4.071,9.695,9.426,9.695s9.426-4.341,9.426-9.695
		C18.852,4.341,14.781,0,9.426,0L9.426,0z"/>
	<path fill="#434C4B" d="M28.273,9.371l-2.318,4.693l-7-2.839V9.711L28.273,9.371 M30.924,6.58c-0.015,0-0.03,0-0.046,0.001
		L16.262,7.114v5.925l10.019,4.063c0.148,0.069,0.303,0.102,0.456,0.102c0.398,0,0.779-0.221,0.967-0.6l4.183-8.469
		C32.242,7.415,31.715,6.58,30.924,6.58L30.924,6.58z"/>
	<g>
		<ellipse fill="#2B3332" cx="9.583" cy="9.695" rx="2.267" ry="2.561"/>
		<ellipse transform="matrix(0.5 -0.866 0.866 0.5 -2.9636 11.8723)" fill="#FFFFFF" cx="8.8" cy="8.503" rx="1.225" ry="1.084"/>
		
			<ellipse transform="matrix(0.5 -0.866 0.866 0.5 -4.1821 14.3326)" fill="#0A6F8E" cx="10.321" cy="10.788" rx="1.274" ry="1.127"/>
	</g>
	<path fill="#434C4B" d="M9.479,24.207c1.896,0,4.507-0.518,6.497-1.939c0.562-0.401,0.691-1.182,0.291-1.744
		c-0.401-0.562-1.185-0.691-1.744-0.291c-1.768,1.263-4.177,1.555-5.497,1.459l0.758-3.557L7.34,17.614l-1.802,8.451l-5.098,3.808
		c-0.553,0.413-0.667,1.196-0.253,1.75c0.245,0.329,0.621,0.502,1.002,0.502c0.26,0,0.522-0.081,0.747-0.249l4.46-3.332l4.571,3.226
		c0.563,0.399,1.344,0.264,1.742-0.3c0.397-0.564,0.264-1.344-0.301-1.742L7.98,26.602l0.523-2.453
		C8.8,24.184,9.122,24.207,9.479,24.207z"/>
</g>
</svg>
