<?xml version="1.0" encoding="utf-8"?>
<!-- Generator: Adobe Illustrator 21.0.2, SVG Export Plug-In . SVG Version: 6.00 Build 0)  -->
<svg version="1.1" id="icons" xmlns="http://www.w3.org/2000/svg" xmlns:xlink="http://www.w3.org/1999/xlink" x="0px" y="0px"
	 width="32px" height="32px" viewBox="0 0 32 32" enable-background="new 0 0 32 32" xml:space="preserve">
<g>
	<path fill="#D64F45" d="M16,5C8.82,5,3,9.701,3,15.5C3,21.299,8.82,26,16,26V5z"/>
	<path fill="#D1473D" d="M29,15.5C29,9.701,23.18,5,16,5v21C23.18,26,29,21.299,29,15.5z"/>
	<path fill="#373F3F" d="M16,15h-1.55c-0.232-1.141-1.24-2-2.45-2s-2.218,0.859-2.45,2H7v1h2.55c0.232,1.141,1.24,2,2.45,2
		s2.218-0.859,2.45-2H16V15z"/>
	<path fill="#2B3332" d="M25,15h-2.55c-0.232-1.141-1.24-2-2.45-2s-2.218,0.859-2.45,2H16v1h1.55c0.232,1.141,1.24,2,2.45,2
		s2.218-0.859,2.45-2H25V15z"/>
	<circle fill="#FFFFFF" cx="12" cy="15.5" r="1.5"/>
	<circle fill="#373F3F" cx="12" cy="15.5" r="1"/>
	<circle fill="#F7F7F7" cx="20" cy="15.5" r="1.5"/>
	<circle fill="#2B3332" cx="20" cy="15.5" r="1"/>
	<path fill="#FDE2E6" d="M15,18l-1,3h-2l-1-2H9l-1,1.5L6,20l-2-4H3c0,0,0.001,1.385,0.671,3.123L3.19,19.752
		c-0.116,0.152-0.135,0.356-0.05,0.527l0.722,1.444C3.946,21.893,4.12,22,4.309,22h1.065c0.389,0.457,0.843,0.903,1.371,1.321
		l0.224,2.355c0.019,0.197,0.152,0.364,0.34,0.427l2.398,0.799c0.18,0.06,0.378,0.013,0.512-0.121l1.267-1.267
		c0.559,0.132,1.156,0.237,1.791,0.317l0.609,1.827C13.954,27.862,14.145,28,14.36,28H16v-2v-1v-7H15z"/>
	<path fill="#FCD8DE" d="M28.329,19.123C28.999,17.385,29,16,29,16h-1l-2,4l-2,0.5L23,19h-2l-1,2h-2l-1-3h-1v7v1v2h1.64
		c0.215,0,0.406-0.138,0.474-0.342l0.609-1.827c0.532-0.067,1.044-0.148,1.523-0.252l1.203,1.203
		c0.134,0.134,0.332,0.181,0.512,0.121l2.398-0.799c0.188-0.063,0.321-0.23,0.34-0.427l0.199-2.086
		c0.684-0.494,1.255-1.033,1.73-1.59h1.065c0.189,0,0.363-0.107,0.447-0.276l0.722-1.444c0.085-0.171,0.066-0.376-0.05-0.527
		L28.329,19.123z"/>
	<path fill="#FDECEF" d="M14.36,3c-0.215,0-0.406,0.138-0.474,0.342l-0.609,1.827c-0.635,0.08-1.233,0.185-1.791,0.317l-1.267-1.267
		c-0.134-0.134-0.332-0.181-0.512-0.121L7.309,4.897c-0.188,0.063-0.321,0.23-0.34,0.427L6.745,7.679
		C6.217,8.097,5.763,8.543,5.374,9H4.309C4.12,9,3.946,9.107,3.862,9.276L3.14,10.721c-0.085,0.171-0.066,0.376,0.05,0.527
		l0.481,0.629C3.001,13.615,3,15,3,15h1l2-4l2-0.5L9,12h2l1-2h2l1,3h1V6V5V3H14.36z"/>
	<path fill="#FDE2E6" d="M28.329,11.877l0.481-0.629c0.116-0.152,0.135-0.356,0.05-0.527l-0.722-1.444
		C28.054,9.107,27.88,9,27.691,9h-1.065c-0.475-0.558-1.046-1.097-1.73-1.59l-0.199-2.086c-0.019-0.197-0.152-0.364-0.34-0.427
		L21.96,4.098c-0.18-0.06-0.378-0.013-0.512,0.121l-1.203,1.203c-0.479-0.104-0.99-0.185-1.523-0.252l-0.609-1.827
		C18.046,3.138,17.855,3,17.64,3H16v2v1v7h1l1-3h2l1,2h2l1-1.5l2,0.5l2,4h1C29,15,28.999,13.615,28.329,11.877z"/>
	<path fill="#E55D53" d="M6.175,17.823l-5.78-1.239C0.165,16.535,0,16.332,0,16.096v-1.192c0-0.236,0.165-0.44,0.395-0.489
		l5.78-1.239c0.476-0.102,0.957,0.154,1.138,0.606l0.093,0.231c0.381,0.954,0.381,2.017,0,2.971l-0.092,0.231
		C7.132,17.669,6.652,17.925,6.175,17.823z"/>
	<path fill="#D64F45" d="M25.825,13.177l5.78,1.239C31.835,14.465,32,14.668,32,14.904v1.192c0,0.236-0.165,0.44-0.395,0.489
		l-5.78,1.239c-0.476,0.102-0.957-0.154-1.138-0.606l-0.093-0.231c-0.381-0.954-0.381-2.017,0-2.971l0.092-0.231
		C24.868,13.331,25.348,13.075,25.825,13.177z"/>
</g>
</svg>
