<?xml version="1.0" encoding="utf-8"?>
<!-- Generator: Adobe Illustrator 21.0.2, SVG Export Plug-In . SVG Version: 6.00 Build 0)  -->
<svg version="1.1" id="icons" xmlns="http://www.w3.org/2000/svg" xmlns:xlink="http://www.w3.org/1999/xlink" x="0px" y="0px"
	 width="32px" height="32px" viewBox="0 0 32 32" enable-background="new 0 0 32 32" xml:space="preserve">
<g>
	<path fill="#FFD04D" d="M16,0c-0.438,0-2.5,2.375-2.5,4c0,1.626,0.812,3,2.5,3V0z"/>
	<path fill="#FFD96C" d="M13.548,3.66C13.53,3.774,13.5,3.892,13.5,4c0,1.626,0.812,3,2.5,3V2.188
		C14.813,2.188,14.005,2.778,13.548,3.66z"/>
	<path fill="#FFE28A" d="M16,5.5V20c-4.971,0-7-2.315-7-6c0-4.938,6-4.375,6-8.5C15.562,5.5,16,5.5,16,5.5z"/>
	<g>
		<path fill="#FDF2D2" d="M9.521,11.795C9.197,12.39,9,13.104,9,14c0,3.685,2.029,6,7,6V9.562
			C13.187,9.562,10.937,10.438,9.521,11.795z"/>
	</g>
	<g>
		<g>
			<path fill="#FFF3D9" d="M9.521,11.795C9.197,12.39,9,13.104,9,14c0,3.685,2.029,6,7,6V9.562
				C13.187,9.562,10.937,10.438,9.521,11.795z"/>
		</g>
		<g>
			<path fill="#FDF2D2" d="M9.521,11.795C9.197,12.39,9,13.104,9,14c0,3.685,2.029,6,7,6V9.562
				C13.187,9.562,10.937,10.438,9.521,11.795z"/>
		</g>
	</g>
	<path fill="#60C4BC" d="M9,14c0,3.685,2.029,6,7,6v-8.625c-2.964,0-5.365,0.865-6.977,2.224C9.013,13.731,9,13.859,9,14z"/>
	<path fill="#FFF3D9" d="M16,20v-6.875c-2.871,0-5.235,0.773-6.924,2.006C9.473,18.15,11.561,20,16,20z"/>
	<path fill="#60C4BC" d="M16,20v-5.062c-2.645,0-4.852,0.661-6.505,1.729C10.346,18.756,12.382,20,16,20z"/>
	<path fill="#FFE28A" d="M13.917,5.781C14.316,6.512,15.001,7,16,7V4.562C15.001,4.562,14.316,5.051,13.917,5.781z"/>
	<path fill="#EDEEEE" d="M1.069,11.873c0.634-1.557,3.546-0.75,5.478,0.548c3.136,2.106,4.469,5.478,4.44,7.121
		C7.383,18.446,0.22,13.958,1.069,11.873z"/>
	<path fill="#DADDDC" d="M2.627,15.159C3,13.708,5.838,14.415,7.845,15.592c1.672,0.98,3.056,2.998,3.171,3.95
		C7.471,19.138,2.103,17.195,2.627,15.159z"/>
	<path fill="#FFE28A" d="M16,16.656V30c-4.971,0-9-2.987-9-6.672S11.029,16.656,16,16.656z"/>
	<path fill="#45A396" d="M16,26.188V30c-2.249,0-4.305-0.612-5.883-1.623C12.312,28.377,12.5,26.188,16,26.188z"/>
	<path fill="#4EAFA3" d="M7,23.328c0,1.338,0.537,2.582,1.452,3.626C10.445,26.727,12,25.054,12,23c0-1.862-1.279-3.414-3.002-3.859
		C7.75,20.286,7,21.741,7,23.328z"/>
	<path fill="#FDEBBB" d="M7.022,23h3.728c0,1.519-1.231,2.75-2.75,2.75c-0.137,0-0.268-0.021-0.399-0.04
		C7.219,24.969,7,24.168,7,23.328C7,23.217,7.015,23.109,7.022,23z"/>
	<path fill="#FFF3D9" d="M7.022,23h3.728c0-1.512-1.221-2.738-2.731-2.748C7.436,21.081,7.087,22.012,7.022,23z"/>
	<path fill="#45A396" d="M13.486,31.833l0.983-2.781h-2.437l0.983,2.781C13.093,32.056,13.407,32.056,13.486,31.833z"/>
	<path fill="#F7C845" d="M16,0c0.438,0,2.5,2.375,2.5,4c0,1.626-0.812,3-2.5,3V0z"/>
	<path fill="#FFD04D" d="M18.452,3.66C18.47,3.774,18.5,3.892,18.5,4c0,1.626-0.812,3-2.5,3V2.188
		C17.187,2.188,17.995,2.778,18.452,3.66z"/>
	<path fill="#FFD96C" d="M17,5.5c0,4.125,6,3.562,6,8.5c0,3.685-2.029,6-7,6V5.5C16,5.5,16.438,5.5,17,5.5z"/>
	<g>
		<path fill="#FDF2D2" d="M22.479,11.795C22.803,12.39,23,13.104,23,14c0,3.685-2.029,6-7,6V9.562
			C18.812,9.562,21.062,10.438,22.479,11.795z"/>
	</g>
	<path fill="#FDEBBB" d="M22.479,11.795C22.803,12.39,23,13.104,23,14c0,3.685-2.029,6-7,6V9.562
		C18.812,9.562,21.062,10.438,22.479,11.795z"/>
	<path fill="#58B7AE" d="M23,14c0,3.685-2.029,6-7,6v-8.625c2.964,0,5.365,0.865,6.977,2.224C22.987,13.731,23,13.859,23,14z"/>
	<path fill="#FDEBBB" d="M16,20v-6.875c2.871,0,5.235,0.773,6.924,2.006C22.527,18.15,20.439,20,16,20z"/>
	<path fill="#58B7AE" d="M16,20v-5.062c2.645,0,4.852,0.661,6.505,1.729C21.654,18.756,19.618,20,16,20z"/>
	<path fill="#FFD96C" d="M18.083,5.781C17.684,6.512,16.999,7,16,7V4.562C16.999,4.562,17.684,5.051,18.083,5.781z"/>
	<path fill="#E3E5E5" d="M21.013,19.542c-0.029-1.643,1.304-5.015,4.44-7.121c1.932-1.297,4.844-2.105,5.478-0.548
		C31.78,13.958,24.617,18.446,21.013,19.542z"/>
	<path fill="#D1D4D4" d="M29.373,15.159c-0.373-1.451-3.211-0.744-5.218,0.432c-1.672,0.98-3.056,2.998-3.171,3.95
		C24.529,19.138,29.897,17.195,29.373,15.159z"/>
	<path fill="#FFD96C" d="M25,23.328C25,27.013,20.971,30,16,30V16.656C20.971,16.656,25,19.643,25,23.328z"/>
	<path fill="#3A9384" d="M21.883,28.377C20.305,29.388,18.249,30,16,30v-3.812C19.5,26.188,19.688,28.377,21.883,28.377z"/>
	<path fill="#45A396" d="M25,23.328c0,1.338-0.537,2.582-1.452,3.626C21.555,26.727,20,25.054,20,23
		c0-1.862,1.279-3.414,3.002-3.859C24.25,20.286,25,21.741,25,23.328z"/>
	<path fill="#FAE09F" d="M25,23.328c0,0.84-0.219,1.641-0.601,2.382c-0.131,0.019-0.262,0.04-0.399,0.04
		c-1.519,0-2.75-1.231-2.75-2.75h3.728C24.985,23.109,25,23.217,25,23.328z"/>
	<path fill="#FDEBBB" d="M24.978,23H21.25c0-1.512,1.221-2.738,2.731-2.748C24.564,21.081,24.913,22.012,24.978,23z"/>
	<path fill="#3A9384" d="M18.514,31.833l-0.983-2.781h2.437l-0.983,2.781C18.907,32.056,18.593,32.056,18.514,31.833z"/>
</g>
</svg>
