<?xml version="1.0" encoding="utf-8"?>
<!-- Generator: Adobe Illustrator 21.0.2, SVG Export Plug-In . SVG Version: 6.00 Build 0)  -->
<svg version="1.1" id="icons" xmlns="http://www.w3.org/2000/svg" xmlns:xlink="http://www.w3.org/1999/xlink" x="0px" y="0px"
	 width="32px" height="32px" viewBox="0 0 32 32" enable-background="new 0 0 32 32" xml:space="preserve">
<g>
	<path fill="#D799D6" d="M19.458,13.917C19.958,13.75,24.875,12.5,26,12.5c1.031,0,5,2.125,5,2.75c0,0.973-1.292,2.75-2,2.75
		s-1.673-0.815-3.5-1.5c-0.667-0.25-4.167,1.458-4.167,1.458L19.458,13.917z"/>
	<path fill="#373F3F" d="M27.73,13.064c0.599,0.272,1.242,0.61,1.802,0.946c-1.321,0.516-2.263,1.763-2.344,3.247
		c-0.444-0.227-0.969-0.48-1.594-0.72c-0.001-0.041-0.01-0.08-0.01-0.121C25.583,14.929,26.465,13.655,27.73,13.064z"/>
	<path fill="#E0ABDF" d="M12.542,13.917C12.042,13.75,7.125,12.5,6,12.5c-1.031,0-5,2.125-5,2.75C1,16.223,2.292,18,3,18
		s1.673-0.815,3.5-1.5c0.667-0.25,4.167,1.458,4.167,1.458L12.542,13.917z"/>
	<path fill="#434C4B" d="M4.395,13.064c-0.599,0.272-1.242,0.61-1.802,0.946c1.321,0.516,2.263,1.763,2.344,3.247
		c0.444-0.227,0.969-0.48,1.594-0.72c0.001-0.041,0.01-0.08,0.01-0.121C6.542,14.929,5.66,13.655,4.395,13.064z"/>
	<path fill="#E0ABDF" d="M14,4.001c-0.313-0.562-2.563-4.067-5.75-4C6.031,0.048,4.219,3.423,4.267,4.236
		C4.276,4.38,4.372,4.503,4.516,4.504c1.728,0.007,3.612-0.199,4.234-0.44l0,1.699c0,0.067,0.039,0.129,0.103,0.149
		C10.211,6.332,13.78,5.503,14,5.001C14.146,4.668,14.121,4.219,14,4.001z"/>
	<path fill="#D799D6" d="M8.75,4.227C8.785,3.37,8.184,0.55,7.796,0.06C7.721,0.076,7.647,0.101,7.573,0.124
		C7.505,0.145,7.437,0.169,7.369,0.196c-1.797,0.73-3.143,3.338-3.102,4.041C4.276,4.38,4.372,4.503,4.516,4.504
		c1.728,0.007,3.612-0.199,4.234-0.44V4.227z"/>
	<path fill="#D799D6" d="M9,28.125c-0.723,0.924-1.562,2.234-1.957,2.813C7.014,30.979,7,31.027,7,31.077v0.673
		C7,31.888,7.112,32,7.25,32h3.56c0.092,0,0.176-0.05,0.22-0.131l2.054-3.786L9,28.125z"/>
	<path fill="#E0ABDF" d="M12.25,12.083H16V28c-2.875,0-2.291,2-5,2c-3.375,0-4.167-4.208-4-6.5
		C7.242,20.173,12.25,12.083,12.25,12.083z"/>
	<path fill="#D799D6" d="M16,26.062V28c-2.875,0-2.291,2-5,2c-3.375,0-4.167-4.208-4-6.5C9.375,26,16,26.062,16,26.062z"/>
	<path fill="#434C4B" d="M12.375,12.083h3.75v5.333C11.708,17.417,12.375,12.083,12.375,12.083z"/>
	<path fill="#E5BDE5" d="M16,14.5c-1.75,0-3.188-1.5-3.75-1.5l-2.096,0c-0.262,0-0.51-0.132-0.641-0.359
		C9.154,12.019,8.75,10.507,8.75,10c0-1.375,3.687-8,7.25-8V14.5z"/>
	<path fill="#EBCEEB" d="M16,9.531V14.5c-1.75,0-3.188-1.5-3.75-1.5h-2.096c-0.262,0-0.51-0.132-0.641-0.359
		c-0.069-0.119-0.357-0.735-0.419-1.079c0.25,0.062,0.156,0.062,0.531,0.094c-0.09-0.427,0.193-3.336,1.066-6.034
		c0.272-0.841,0.599-1.615,0.993-2.205c0.086-0.129,0.283-0.071,0.278,0.083c-0.006,0.177-0.006,0.383-0.002,0.6
		c0.035,2.36,0.595,6.354,1.353,7.243C13.5,10.812,14.781,9.531,16,9.531z"/>
	<path fill="#434C4B" d="M14.5,7.625c0-0.563,0.672-0.75,1.5-0.75V8.75C15.172,8.75,14.5,8.039,14.5,7.625z"/>
	<path fill="#FAF9F7" d="M12.88,4.242c0.43,0.217,2.183,1.59,2.543,2.01c0.034,0.04,0.003,0.101-0.049,0.101h-2.048
		c-0.295,0-0.535-0.239-0.535-0.535V4.299C12.792,4.253,12.839,4.221,12.88,4.242z"/>
	<ellipse fill="#373F3F" cx="13.861" cy="5.673" rx="0.25" ry="0.5"/>
	<path fill="#D799D6" d="M18,5.001c0.22,0.502,3.789,1.331,5.147,0.911c0.064-0.02,0.103-0.082,0.103-0.149l0-1.699
		c0.622,0.241,2.505,0.448,4.234,0.44c0.144-0.001,0.241-0.123,0.249-0.268c0.048-0.813-1.764-4.188-3.983-4.235
		c-3.187-0.067-5.438,3.438-5.75,4C17.879,4.219,17.854,4.668,18,5.001z"/>
	<path fill="#D285D2" d="M23.25,4.227C23.215,3.37,23.816,0.55,24.204,0.06c0.075,0.017,0.149,0.041,0.223,0.065
		c0.068,0.021,0.136,0.045,0.204,0.071c1.797,0.73,3.143,3.338,3.102,4.041c-0.009,0.144-0.105,0.267-0.249,0.268
		c-1.728,0.007-3.612-0.199-4.234-0.44V4.227z"/>
	<path fill="#D285D2" d="M23,28.125c0.723,0.924,1.562,2.234,1.957,2.813C24.986,30.979,25,31.027,25,31.077v0.673
		c0,0.138-0.112,0.25-0.25,0.25h-3.56c-0.092,0-0.176-0.05-0.22-0.131l-2.054-3.786L23,28.125z"/>
	<path fill="#D799D6" d="M19.75,12.083H16V28c2.875,0,2.291,2,5,2c3.375,0,4.167-4.208,4-6.5
		C24.758,20.173,19.75,12.083,19.75,12.083z"/>
	<path fill="#373F3F" d="M19.75,12.083H16v5.333C20.417,17.417,19.75,12.083,19.75,12.083z"/>
	<path fill="#E0ABDF" d="M16,14.5c1.75,0,3.188-1.5,3.75-1.5l2.096,0c0.262,0,0.51-0.132,0.641-0.359
		c0.359-0.622,0.763-2.134,0.763-2.641c0-1.375-3.688-8-7.25-8V14.5z"/>
	<path fill="#E5BDE5" d="M18.688,11.344c0.758-0.889,1.318-4.883,1.353-7.243c0.003-0.217,0.004-0.423-0.002-0.6
		c-0.005-0.155,0.192-0.212,0.278-0.083c0.393,0.59,0.721,1.364,0.993,2.205c0.873,2.698,1.156,5.607,1.066,6.034
		c0.375-0.031,0.281-0.031,0.531-0.094c-0.094,0.406-0.35,0.959-0.419,1.079C22.356,12.868,22.108,13,21.846,13H19.75
		c-0.562,0-2,1.5-3.75,1.5V9.531C17.219,9.531,18.5,10.812,18.688,11.344z"/>
	<path fill="#373F3F" d="M16,8.75V6.875c0.828,0,1.5,0.188,1.5,0.75C17.5,8.039,16.828,8.75,16,8.75z"/>
	<path fill="#FAF9F7" d="M19.12,4.242c-0.43,0.217-2.183,1.59-2.543,2.01c-0.034,0.04-0.003,0.101,0.049,0.101h2.048
		c0.295,0,0.535-0.239,0.535-0.535V4.299C19.208,4.253,19.161,4.221,19.12,4.242z"/>
	<ellipse fill="#282828" cx="18.139" cy="5.673" rx="0.25" ry="0.5"/>
	<path fill="#D285D2" d="M16,26.062V28c2.875,0,2.291,2,5,2c3.375,0,4.167-4.208,4-6.5C22.625,26,16,26.062,16,26.062z"/>
</g>
</svg>
