<?xml version="1.0" encoding="utf-8"?>
<!-- Generator: Adobe Illustrator 21.0.2, SVG Export Plug-In . SVG Version: 6.00 Build 0)  -->
<svg version="1.1" id="icons" xmlns="http://www.w3.org/2000/svg" xmlns:xlink="http://www.w3.org/1999/xlink" x="0px" y="0px"
	 width="32px" height="32px" viewBox="0 0 32 32" enable-background="new 0 0 32 32" xml:space="preserve">
<path fill="#ACD7DD" d="M2,2c1.833,0.125,11.75,6.958,13,11c-4.958,0-7.208-0.375-10-2.958C1.994,7.26,2,3.917,2,2z"/>
<path fill="#B9E2E7" d="M3.398,2.526C3.614,4.3,4.271,6.422,6.292,8.292c2.328,2.154,4.284,2.771,7.742,2.917
	C11.695,7.935,6.19,3.931,3.398,2.526z"/>
<path fill="#A0422C" d="M9.958,7.083c0.167,3.167,3.815,5.987,4.095,5.618s0.78-0.827,0.863-1.035C15,11.458,10.5,6.375,9.958,7.083
	z"/>
<path fill="#B9E2E7" d="M14.054,12.702c0.364,1.17,1.218,4.49,0.267,5.311c-0.951,0.821-5.072-1.093-4.612-2.179
	s2.478-2.89,3.034-3.331C13.298,12.061,14.054,12.702,14.054,12.702z"/>
<path fill="#923D27" d="M10.521,23.417c-0.292,0.25-2.167,3.042-2.208,5.083c-0.037,1.799,0.833,3.458,0.833,3.458
	s1.417,0.125,1.542-0.25c0.125-0.375,0.583-8.292,0.375-8.292S10.521,23.417,10.521,23.417z"/>
<path fill="#A0422C" d="M11.184,17.685c0.272-0.623,3.944-0.392,3.097,1.659C13.587,21.025,10.497,19.258,11.184,17.685z"/>
<path fill="#A0422C" d="M11.665,18.928c-0.486,0.839-1.694,4.164-1.339,5.201c0.338,0.989,2.756-4.627,2.524-4.854
	C12.617,19.046,11.665,18.928,11.665,18.928z"/>
<path fill="#EDF4E4" d="M8.271,32c0-0.333,1.125-1.083,1.458-1.083c0.333,0,0.606,0.751,0.583,1.083C9.479,32,9.083,32,8.271,32z"/>
<path fill="#AD4630" d="M15,10v1.031c0,0-1.062,0.594-1.75,0.875s-0.312,4.719,2.75,4.719V10H15z"/>
<path fill="#5C6664" d="M15,10v1.031c0,0,0.594,2.766,1,2.766V10H15z"/>
<path fill="#AD4630" d="M12.25,21.752c0,2.292,1.417,3.625,2.875,4.812c0.292,0.238,0.518,0.281,0.875,0.281v-9.656
	C14.375,17.189,12.25,19.439,12.25,21.752z"/>
<path fill="#AD4630" d="M16,17.682c0,0-2.268,0.613-1.958,0.402c1.042-0.708,0.458-2.827,0.458-2.827H16V17.682z"/>
<path fill="#AD4630" d="M13,5.422v3.031c0,0.225,0.086,0.441,0.252,0.594c0.462,0.427,1.441,1.116,2.092,1.537
	c0.266,0.172,0.46,0.281,0.656,0.293V5.625L13,5.422z"/>
<path fill="#B94A34" d="M16,0.001c-0.452-0.074-1.396,3.692-1.5,3.942c-0.312-0.188-4.073-2.427-4.5-2
	c-0.504,0.504,3.072,3.912,4.979,5.438C15.396,7.714,15.521,7.832,16,7.832V0.001z"/>
<path fill="#B94A34" d="M11.184,10.976c0.078-0.675,3.944-0.392,3.097,1.659C13.587,14.316,10.917,13.292,11.184,10.976z"/>
<g>
	<polygon fill="#B94A34" points="8.771,17.329 8.354,16.421 11.193,15.117 11.888,12.106 12.862,12.331 12.057,15.82 	"/>
</g>
<ellipse transform="matrix(0.9527 -0.3039 0.3039 0.9527 -5.2243 2.339)" fill="#B94A34" cx="4.902" cy="17.953" rx="4" ry="2.75"/>
<path fill="#923D27" d="M7.701,18.413c-0.009-0.049-0.043-0.086-0.092-0.097c-0.388-0.093-0.967-0.251-1.327-0.367
	c-0.041-0.013-0.082-0.005-0.115,0.022c-0.551,0.459-1.652,1.437-2.136,1.77c0.137-0.657,0.226-1.074,0.309-1.524
	c0.017-0.091-0.066-0.169-0.155-0.144c-0.543,0.149-1.367,0.402-1.809,0.552c-0.041,0.014-0.07,0.046-0.079,0.089
	c-0.078,0.337-0.229,0.984-0.35,1.536c0.905,0.62,2.335,0.788,3.791,0.324c0.88-0.281,1.612-0.749,2.147-1.299
	C7.823,19.014,7.75,18.688,7.701,18.413z"/>
<ellipse transform="matrix(0.9831 -0.1831 0.1831 0.9831 -2.934 1.5301)" fill="#434C4B" cx="6.821" cy="16.658" rx="0.824" ry="1.047"/>
<ellipse transform="matrix(0.9831 -0.1831 0.1831 0.9831 -2.934 1.5301)" fill="#CDAE5F" cx="6.821" cy="16.658" rx="0.375" ry="0.476"/>
<path fill="#434C4B" d="M12.467,20.44c0.57,1.219,1.569,2.129,2.596,2.966c0.313,0.255,0.555,0.301,0.938,0.301v-2.574
	c-0.918,0-1.985-3.248-2.747-2.209C12.92,19.379,12.645,19.895,12.467,20.44z"/>
<path fill="#505957" d="M12.882,19.494c0.581,0.861,1.372,1.564,2.18,2.222c0.313,0.255,0.556,0.302,0.938,0.302v-2.186
	c-0.719,0-1.69-0.878-2.215-1.528C13.445,18.646,13.135,19.051,12.882,19.494z"/>
<path fill="#5C6664" d="M13.408,18.717c0.494,0.562,1.07,1.058,1.652,1.533c0.314,0.255,0.557,0.302,0.94,0.302v-1.253
	c-0.613,0-1.58-0.965-1.906-1.282C13.852,18.221,13.621,18.457,13.408,18.717z"/>
<path fill="#FFFFFF" d="M13.595,7.078c-0.024-0.022-0.062-0.005-0.062,0.027c0.005,0.376,0.002,0.632,0.002,0.826
	c0,0.25,0.434,0.896,1.271,0.516c0.093-0.042,0.095-0.152,0.038-0.228C14.795,8.154,13.849,7.306,13.595,7.078z"/>
<path fill="#CDAE5F" d="M14.61,7.997c-0.193-0.177-0.465-0.424-0.691-0.627c-0.064,0.109-0.107,0.248-0.107,0.404
	c0,0.341,0.185,0.617,0.414,0.617C14.402,8.391,14.55,8.227,14.61,7.997z"/>
<path fill="#505957" d="M14.398,7.803c-0.086-0.078-0.175-0.159-0.264-0.24c-0.049,0.048-0.087,0.117-0.087,0.21
	c0,0.148,0.08,0.268,0.18,0.268C14.318,8.041,14.387,7.935,14.398,7.803z"/>
<path fill="#A5D1D8" d="M30,2c-1.833,0.125-11.75,6.958-13,11c4.958,0,7.208-0.375,10-2.958C30.006,7.26,30,3.917,30,2z"/>
<path fill="#ACD7DD" d="M28.602,2.526c-0.215,1.773-0.873,3.896-2.893,5.765c-2.328,2.154-4.284,2.771-7.742,2.917
	C20.305,7.935,25.81,3.931,28.602,2.526z"/>
<path fill="#923D27" d="M22.042,7.083c-0.167,3.167-3.815,5.987-4.095,5.618c-0.28-0.368-0.78-0.827-0.863-1.035
	C17,11.458,21.5,6.375,22.042,7.083z"/>
<path fill="#ACD7DD" d="M17.946,12.702c-0.364,1.17-1.218,4.49-0.267,5.311c0.951,0.821,5.072-1.093,4.612-2.179
	c-0.459-1.086-2.478-2.89-3.034-3.331C18.702,12.061,17.946,12.702,17.946,12.702z"/>
<path fill="#843822" d="M21.479,23.417c0.292,0.25,2.167,3.042,2.208,5.083c0.037,1.799-0.833,3.458-0.833,3.458
	s-1.417,0.125-1.542-0.25c-0.125-0.375-0.583-8.292-0.375-8.292S21.479,23.417,21.479,23.417z"/>
<path fill="#923D27" d="M20.816,17.685c-0.272-0.623-3.944-0.392-3.097,1.659C18.413,21.025,21.503,19.258,20.816,17.685z"/>
<path fill="#923D27" d="M20.335,18.928c0.486,0.839,1.694,4.164,1.339,5.201c-0.338,0.989-2.756-4.627-2.524-4.854
	S20.335,18.928,20.335,18.928z"/>
<path fill="#EDF4E4" d="M23.729,32c0-0.333-1.125-1.083-1.458-1.083c-0.333,0-0.606,0.751-0.583,1.083
	C22.521,32,22.917,32,23.729,32z"/>
<path fill="#A0422C" d="M17,10v1.031c0,0,1.062,0.594,1.75,0.875s0.312,4.719-2.75,4.719V10H17z"/>
<path fill="#505957" d="M17,10v1.031c0,0-0.594,2.766-1,2.766V10H17z"/>
<path fill="#A0422C" d="M19.75,21.752c0,2.292-1.417,3.625-2.875,4.812c-0.292,0.238-0.518,0.281-0.875,0.281v-9.656
	C17.625,17.189,19.75,19.439,19.75,21.752z"/>
<path fill="#A0422C" d="M16,17.682c0,0,2.268,0.613,1.958,0.402c-1.042-0.708-0.458-2.827-0.458-2.827H16V17.682z"/>
<path fill="#A0422C" d="M19,5.422v3.031c0,0.225-0.086,0.441-0.252,0.594c-0.462,0.427-1.441,1.116-2.092,1.537
	c-0.266,0.172-0.46,0.281-0.656,0.293V5.625L19,5.422z"/>
<path fill="#AD4630" d="M16,0.001c0.452-0.074,1.396,3.692,1.5,3.942c0.312-0.188,4.073-2.427,4.5-2
	c0.504,0.504-3.072,3.912-4.979,5.438C16.604,7.714,16.479,7.832,16,7.832V0.001z"/>
<path fill="#B94A34" d="M20.816,10.976c-0.078-0.675-3.944-0.392-3.097,1.659C18.413,14.316,21.083,13.292,20.816,10.976z"/>
<g>
	<polygon fill="#B94A34" points="23.229,17.329 19.943,15.82 19.138,12.331 20.112,12.106 20.807,15.117 23.646,16.421 	"/>
</g>
<ellipse transform="matrix(0.3039 -0.9527 0.9527 0.3039 1.7586 38.3131)" fill="#AD4630" cx="27.098" cy="17.953" rx="2.75" ry="4"/>
<path fill="#7D3119" d="M24.299,18.413c0.009-0.049,0.043-0.086,0.092-0.097c0.388-0.093,0.967-0.251,1.327-0.367
	c0.041-0.013,0.082-0.005,0.115,0.022c0.551,0.459,1.652,1.437,2.136,1.77c-0.137-0.657-0.226-1.074-0.309-1.524
	c-0.017-0.091,0.066-0.169,0.155-0.144c0.543,0.149,1.367,0.402,1.809,0.552c0.041,0.014,0.07,0.046,0.079,0.089
	c0.078,0.337,0.229,0.984,0.35,1.536c-0.905,0.62-2.335,0.788-3.791,0.324c-0.88-0.281-1.612-0.749-2.147-1.299
	C24.177,19.014,24.25,18.688,24.299,18.413z"/>
<ellipse transform="matrix(0.1831 -0.9831 0.9831 0.1831 4.1932 38.362)" fill="#373F3F" cx="25.179" cy="16.658" rx="1.047" ry="0.824"/>
<ellipse transform="matrix(0.1831 -0.9831 0.9831 0.1831 4.1932 38.362)" fill="#CDAE5F" cx="25.179" cy="16.658" rx="0.476" ry="0.375"/>
<path fill="#373F3F" d="M19.533,20.44c-0.57,1.219-1.569,2.129-2.596,2.966c-0.313,0.255-0.555,0.301-0.938,0.301v-2.574
	c0.918,0,1.985-3.248,2.747-2.209C19.08,19.379,19.355,19.895,19.533,20.44z"/>
<path fill="#434C4B" d="M19.118,19.494c-0.581,0.861-1.372,1.564-2.18,2.222c-0.313,0.255-0.556,0.302-0.938,0.302v-2.186
	c0.719,0,1.69-0.878,2.215-1.528C18.555,18.646,18.865,19.051,19.118,19.494z"/>
<path fill="#505957" d="M18.592,18.717c-0.494,0.562-1.07,1.058-1.652,1.533c-0.314,0.255-0.557,0.302-0.94,0.302v-1.253
	c0.613,0,1.58-0.965,1.906-1.282C18.148,18.221,18.379,18.457,18.592,18.717z"/>
<path fill="#FFFFFF" d="M18.405,7.078c0.024-0.022,0.062-0.005,0.062,0.027c-0.005,0.376-0.002,0.632-0.002,0.826
	c0,0.25-0.434,0.896-1.271,0.516c-0.093-0.042-0.095-0.152-0.038-0.228C17.205,8.154,18.151,7.306,18.405,7.078z"/>
<path fill="#CDAE5F" d="M17.39,7.997c0.193-0.177,0.465-0.424,0.691-0.627c0.064,0.109,0.107,0.248,0.107,0.404
	c0,0.341-0.185,0.617-0.414,0.617C17.598,8.391,17.45,8.227,17.39,7.997z"/>
<path fill="#434C4B" d="M17.602,7.803c0.086-0.078,0.175-0.159,0.264-0.24c0.049,0.048,0.087,0.117,0.087,0.21
	c0,0.148-0.08,0.268-0.18,0.268C17.682,8.041,17.613,7.935,17.602,7.803z"/>
</svg>
