<?xml version="1.0" encoding="utf-8"?>
<!-- Generator: Adobe Illustrator 21.0.2, SVG Export Plug-In . SVG Version: 6.00 Build 0)  -->
<svg version="1.1" id="icons" xmlns="http://www.w3.org/2000/svg" xmlns:xlink="http://www.w3.org/1999/xlink" x="0px" y="0px"
	 width="32px" height="32px" viewBox="0 0 32 32" enable-background="new 0 0 32 32" xml:space="preserve">
<path fill="#F7C845" d="M9.726,20.265c-0.298-0.444-0.971,0.047-1.539,0.047C6.125,20.312,6,18.45,4,18.45c-1.938,0-3,0.8-3,2.55
	c0,1.508,1.688,2,3,2c2.188,0,3.564-0.016,5.477-1.24C9.918,21.478,10.07,20.779,9.726,20.265z"/>
<path fill="#843822" d="M16,14v14c-5.5,0-9.5-2.688-9.5-5.781C6.5,17.188,10.375,14,16,14z"/>
<path fill="#FFEAA7" d="M16,15v5.5c-1.458,0-3.292-1-3.5-2.5C12.213,15.936,14.17,15,16,15z"/>
<ellipse transform="matrix(0.8173 -0.5762 0.5762 0.8173 -8.186 8.3851)" fill="#FFEAA7" cx="9.131" cy="17.103" rx="2.333" ry="1.325"/>
<ellipse transform="matrix(0.8173 -0.5762 0.5762 0.8173 -7.9831 8.118)" fill="#373F3F" cx="8.811" cy="16.649" rx="1.361" ry="0.478"/>
<g>
	<path fill="#FFEAA7" d="M7,26c-1.636-1.869-2.224-3.714-1-4.938c0.812-0.812,2.825-0.49,4.461,1.378s2.975,4.517,1.476,5.559
		C10.5,29,8.636,27.869,7,26z"/>
	<path fill="#373F3F" d="M6.627,23.726c-0.368,0.501,0.064,1.609,0.964,2.475c0.9,0.866,1.927,1.162,2.295,0.661
		c0.368-0.501-0.064-1.609-0.964-2.475C8.022,23.521,6.994,23.225,6.627,23.726z"/>
</g>
<path fill="#FFD04D" d="M8.688,24.875c-0.423-0.423-1.005-0.555-1.562-0.25C4.109,26.278,4.11,25,2.5,25C0.985,25,0,25.891,0,27.375
	C0,29.06,1.812,30,3,30c2.536,0,4.083-1.535,5.917-3.292C9.339,26.304,9.176,25.364,8.688,24.875z"/>
<path fill="#373F3F" d="M16,15.417v3.208c-1.125,0-2.278-0.419-2.458-1.458C13.375,16.208,14.762,15.417,16,15.417z"/>
<path fill="#FFD96C" d="M11.625,4.375c0,1.655,0.93,3.078,2.286,3.821C13.96,8.318,14,8.447,14,8.581v7.356
	c0,1.105,0.938,1.562,2,1.562V0C13.584,0,11.625,1.959,11.625,4.375z"/>
<ellipse fill="#373F3F" cx="14.333" cy="4.583" rx="0.5" ry="1"/>
<path fill="#F0C13E" d="M22.274,20.265c0.298-0.444,0.971,0.047,1.539,0.047c2.062,0,2.188-1.862,4.188-1.862c1.938,0,3,0.8,3,2.55
	c0,1.508-1.688,2-3,2c-2.188,0-3.564-0.016-5.477-1.24C22.082,21.478,21.93,20.779,22.274,20.265z"/>
<path fill="#7D3119" d="M25.5,22.219c0,3.094-4,5.781-9.5,5.781V14C21.625,14,25.5,17.188,25.5,22.219z"/>
<path fill="#FFE28A" d="M19.5,18c-0.208,1.5-2.042,2.5-3.5,2.5V15C17.83,15,19.787,15.936,19.5,18z"/>
<ellipse transform="matrix(0.5762 -0.8173 0.8173 0.5762 -4.286 25.9402)" fill="#FFE28A" cx="22.869" cy="17.103" rx="1.325" ry="2.333"/>
<ellipse transform="matrix(0.5762 -0.8173 0.8173 0.5762 -3.7796 26.0094)" fill="#2B3332" cx="23.189" cy="16.649" rx="0.478" ry="1.361"/>
<g>
	<path fill="#FFE28A" d="M25,26c1.636-1.869,2.224-3.714,1-4.938c-0.812-0.812-2.825-0.49-4.461,1.378
		c-1.636,1.869-2.975,4.517-1.476,5.559C21.5,29,23.364,27.869,25,26z"/>
	<path fill="#2B3332" d="M25.373,23.726c0.368,0.501-0.064,1.609-0.964,2.475c-0.9,0.866-1.927,1.162-2.295,0.661
		c-0.368-0.501,0.064-1.609,0.964-2.475C23.978,23.521,25.006,23.225,25.373,23.726z"/>
</g>
<path fill="#F7C845" d="M23.312,24.875c0.423-0.423,1.005-0.555,1.562-0.25C27.891,26.278,27.89,25,29.5,25
	c1.515,0,2.5,0.891,2.5,2.375C32,29.06,30.188,30,29,30c-2.536,0-4.083-1.535-5.917-3.292
	C22.661,26.304,22.824,25.364,23.312,24.875z"/>
<path fill="#2B3332" d="M18.458,17.167c-0.181,1.039-1.333,1.458-2.458,1.458v-3.208C17.238,15.417,18.625,16.208,18.458,17.167z"/>
<path fill="#FFD04D" d="M20.375,4.375c0,1.655-0.93,3.078-2.286,3.821C18.04,8.318,18,8.447,18,8.581v7.356
	c0,1.105-0.938,1.562-2,1.562V0C18.416,0,20.375,1.959,20.375,4.375z"/>
<path fill="#2B3332" d="M17.667,3.583c0.276,0,0.5,0.448,0.5,1s-0.224,1-0.5,1s-0.5-0.448-0.5-1S17.391,3.583,17.667,3.583z"/>
</svg>
