<?xml version="1.0" encoding="utf-8"?>
<!-- Generator: Adobe Illustrator 21.0.2, SVG Export Plug-In . SVG Version: 6.00 Build 0)  -->
<svg version="1.1" id="icons" xmlns="http://www.w3.org/2000/svg" xmlns:xlink="http://www.w3.org/1999/xlink" x="0px" y="0px"
	 width="32px" height="32px" viewBox="0 0 32 32" enable-background="new 0 0 32 32" xml:space="preserve">
<g>
	<path fill="#7D8091" d="M16,0v28c-2.667,0-8.495-0.17-10.917-5.083C2.167,17,2.083,7.333,6.75,3C8.883,1.019,11.5,0.167,16,0z"/>
	<path fill="#6673AA" d="M16,0v28c-2.667,0-8.495-0.17-10.917-5.083C2.167,17,2.083,7.333,6.75,3C8.883,1.019,11.5,0.167,16,0z"/>
	<path fill="#515E91" d="M5.083,22.917c0.355,0.72,0.79,1.328,1.271,1.859c0.481-0.531,0.916-1.139,1.271-1.859
		c2.829-5.738,2.979-14.989-1.271-19.495C2.105,7.928,2.255,17.179,5.083,22.917z"/>
	<path fill="#495587" d="M3.742,19.181c0.099-0.147,0.193-0.301,0.277-0.471c1.421-2.882,1.543-7.453-0.418-9.898
		C2.79,12.076,2.906,15.853,3.742,19.181z"/>
	<path fill="#5C699E" d="M16,0v28c2.667,0,8.495-0.17,10.917-5.083C29.833,17,29.917,7.333,25.25,3C23.117,1.019,20.5,0.167,16,0z"
		/>
	<path fill="#495587" d="M26.917,22.917c-0.355,0.72-0.79,1.328-1.271,1.859c-0.481-0.531-0.916-1.139-1.271-1.859
		c-2.829-5.738-2.979-14.989,1.271-19.495C29.895,7.928,29.745,17.179,26.917,22.917z"/>
	<path fill="#D1473D" d="M10.458,16.625c2.792,2.5,1.521,7.802-1.708,8.094c4,3,6.562,2.594,7.25,2.594c0-1.5,0-10.688,0-10.688
		H10.458z"/>
	<path fill="#D1473D" d="M16,32c-2.438,0-2.5-2.188-4-2.25S10.75,31,8,31c-2.25,0-1.339-2-3-2c-1.75,0-4.125,1.312-4-0.375
		c0.232-3.136,9.125-4.5,15-4.5V32z"/>
	
		<ellipse transform="matrix(0.9848 -0.1734 0.1734 0.9848 -4.4142 1.4387)" fill="#C23734" cx="6.026" cy="25.981" rx="2.287" ry="1.434"/>
	<ellipse fill="#C23734" cx="11.562" cy="25.875" rx="1.5" ry="0.94"/>
	<path fill="#CF3C35" d="M21.542,16.625c-2.792,2.5-1.521,7.802,1.708,8.094c-4,3-6.563,2.594-7.25,2.594c0-1.5,0-10.688,0-10.688
		H21.542z"/>
	<path fill="#CF3C35" d="M16,32c2.438,0,2.5-2.188,4-2.25S21.25,31,24,31c2.25,0,1.339-2,3-2c1.75,0,4.125,1.312,4-0.375
		c-0.232-3.136-9.125-4.5-15-4.5V32z"/>
	
		<ellipse transform="matrix(0.1734 -0.9848 0.9848 0.1734 -4.1177 47.0558)" fill="#A92F31" cx="25.974" cy="25.981" rx="1.434" ry="2.287"/>
	<path fill="#C23734" d="M16,26.312v3.75c-1.381,0-2.5-0.839-2.5-1.875S14.619,26.312,16,26.312z"/>
	<ellipse fill="#A92F31" cx="20.438" cy="25.875" rx="1.5" ry="0.94"/>
	<path fill="#A92F31" d="M18.5,28.188c0,1.036-1.119,1.875-2.5,1.875v-3.75C17.381,26.312,18.5,27.152,18.5,28.188z"/>
	<path fill="#D64F45" d="M19.207,4.485c1.496,0,2.536,1.925,2.708,4.286c0.208,2.854,1.396,3.053,1.396,4.354
		c0,3.314-3.274,6-7.312,6V6.375C17.311,6.375,17.811,4.485,19.207,4.485z"/>
	<path fill="#D1473D" d="M23.311,13.125c0,3.314-3.274,6-7.312,6v-4C19.248,15.125,19.311,13.125,23.311,13.125z"/>
	<path fill="#E55D53" d="M12.79,4.485c-1.496,0-2.536,1.925-2.708,4.286c-0.208,2.854-1.396,3.053-1.396,4.354
		c0,3.314,3.274,6,7.313,6V6.375C14.686,6.375,14.186,4.485,12.79,4.485z"/>
	<path fill="#D64F45" d="M8.686,13.125c0,3.314,3.274,6,7.313,6v-4C12.748,15.125,12.686,13.125,8.686,13.125z"/>
	<path fill="#FEF1C6" d="M14.665,8.521c0,1.639-1.056,2.967-1.875,2.967c-1.12,0-1.875-1.328-1.875-2.967s0.839-2.967,1.875-2.967
		S14.665,6.882,14.665,8.521z"/>
	<path fill="#373F3F" d="M13.106,8.625c0,0.276-0.178,0.5-0.316,0.5c-0.189,0-0.316-0.224-0.316-0.5s0.141-0.5,0.316-0.5
		S13.106,8.349,13.106,8.625z"/>
	<path fill="#E7685F" d="M15.998,9.562v6.875c-2.875,0-4.688-1.483-4.688-3.312C11.311,11.296,13.311,9.562,15.998,9.562z"/>
	<path fill="#E55D53" d="M10.266,16.019c0-0.379-0.205-3.144,0.467-3.953c-0.204,0-1.079,0-1.079,0s-0.452-0.003-0.656-0.003
		C8.311,13,8.977,14.625,9.043,16.019c-0.602,0.41-1.295,0.982-1.295,1.867c0,1.396,0.885,1.974,1.906,1.974
		c1.021,0,1.906-0.579,1.906-1.974C11.561,17.002,10.868,16.43,10.266,16.019z"/>
	<path fill="#E7685F" d="M12.579,17.144c0-0.379-0.033-3.272-0.033-3.953c-0.204,0-0.579,0-0.579,0s-0.374,0-0.579,0
		c0,0.682-0.033,3.574-0.033,3.953c-0.602,0.41-1.295,0.982-1.295,1.867c0,1.396,0.885,1.974,1.906,1.974
		c1.021,0,1.906-0.579,1.906-1.974C13.873,18.127,13.181,17.555,12.579,17.144z"/>
	<path fill="#FFEAA7" d="M17.332,8.521c0,1.639,1.056,2.967,1.875,2.967c1.12,0,1.875-1.328,1.875-2.967s-0.839-2.967-1.875-2.967
		S17.332,6.882,17.332,8.521z"/>
	<path fill="#2B3332" d="M18.891,8.625c0,0.276,0.178,0.5,0.316,0.5c0.189,0,0.316-0.224,0.316-0.5s-0.141-0.5-0.316-0.5
		C19.032,8.125,18.891,8.349,18.891,8.625z"/>
	<path fill="#E55D53" d="M20.686,13.125c0,1.829-1.812,3.312-4.688,3.312V9.562C18.686,9.562,20.686,11.296,20.686,13.125z"/>
	<path fill="#D64F45" d="M24.252,17.887c0-0.885-0.692-1.457-1.295-1.867c0.066-1.394,0.732-3.019,0.045-3.957
		c-0.204,0-0.656,0.003-0.656,0.003c-0.002,0-0.874,0-1.078,0c0.672,0.809,0.467,3.574,0.467,3.953
		c-0.602,0.41-1.295,0.982-1.295,1.867c0,1.396,0.885,1.974,1.906,1.974l0,0h0h0l0,0C23.367,19.861,24.252,19.282,24.252,17.887z"/>
	<path fill="#E55D53" d="M20.641,17.144c0-0.379-0.033-3.272-0.033-3.953c-0.204,0-0.579,0-0.579,0s-0.374,0-0.579,0
		c0,0.682-0.033,3.574-0.033,3.953c-0.602,0.41-1.295,0.982-1.295,1.867c0,1.396,0.885,1.974,1.906,1.974
		c1.021,0,1.906-0.579,1.906-1.974C21.936,18.127,21.243,17.555,20.641,17.144z"/>
	<path fill="#424B7E" d="M28.305,19.181c-0.099-0.147-0.193-0.301-0.277-0.471c-1.421-2.882-1.543-7.453,0.418-9.898
		C29.257,12.076,29.141,15.853,28.305,19.181z"/>
</g>
</svg>
