<?xml version="1.0" encoding="utf-8"?>
<!-- Generator: Adobe Illustrator 21.0.2, SVG Export Plug-In . SVG Version: 6.00 Build 0)  -->
<svg version="1.1" id="icons" xmlns="http://www.w3.org/2000/svg" xmlns:xlink="http://www.w3.org/1999/xlink" x="0px" y="0px"
	 width="32px" height="32px" viewBox="0 0 32 32" enable-background="new 0 0 32 32" xml:space="preserve">
<g>
	<path fill="#E08C96" d="M0.845,15.843c-0.241-0.34-0.182-0.647,0.039-0.862l2.569-2.484l1.444,2.041L1.7,16.135
		C1.424,16.273,1.13,16.247,0.845,15.843z"/>
	<path fill="#E08C96" d="M3.948,9.407C4.365,9.421,4.574,9.654,4.61,9.96l0.423,3.549l-2.499-0.085l0.663-3.512
		C3.255,9.609,3.454,9.39,3.948,9.407z"/>
	<path fill="#E08C96" d="M1.959,10.384l10.215,6.14l-2.388,3.425l-9.311-7.432c-0.631-0.485-0.568-1.094-0.193-1.594
		C0.622,10.47,1.194,9.918,1.959,10.384z"/>
	<path fill="#E2959E" d="M12.628,6.647c-0.695-0.48-2.29-1.582-4.018-2.78l0.714-0.63c0.231-0.204,0.303-0.508,0.078-0.859
		c-0.267-0.416-0.56-0.455-0.842-0.33L6.992,2.744C5.604,1.781,4.291,0.866,3.458,0.279C2.959-0.073,2-0.18,1.417,0.487
		C0.854,1.131,0.98,1.761,1.5,2.32c0.397,0.426,0.957,1.023,1.596,1.699L1.822,4.322c-0.3,0.071-0.507,0.306-0.473,0.721
		c0.04,0.493,0.28,0.665,0.587,0.687l2.984,0.215c1.266,1.335,2.557,2.692,3.458,3.638c-2.064,2.199-3.374,5.078-3.502,7.667
		C4.647,21.873,7.083,30.002,16,30.002v-24C14.816,6.002,13.686,6.237,12.628,6.647z"/>
	<g>
		<g>
			<path fill="#E08C96" d="M14.5,3.002c0,0-0.792,5.042-1,7c0.41,0.472,1.708,0.5,2.5,0.5c0-2.042,0-8.495,0-8.495
				C15.244,2.021,14.573,2.524,14.5,3.002z"/>
		</g>
		<g>
			<path fill="#E08C96" d="M14.5,3.002c0,0-0.792,5.042-1,7c0.41,0.472,1.708,0.5,2.5,0.5c0-2.042,0-8.495,0-8.495
				C15.244,2.021,14.573,2.524,14.5,3.002z"/>
		</g>
	</g>
	<path fill="#93C2CA" d="M9.469,26.502h5l-0.826,4.682c-0.109,0.581-0.695,0.941-1.262,0.776l-1.745-0.507
		c-0.386-0.112-0.667-0.444-0.714-0.843L9.469,26.502z"/>
	<path fill="#ACD7DD" d="M13.5,22.475l0.224,1.291c-3.871-0.778-6.966-3.399-8.869-5.743c-0.042,4.417,2.604,12,11.146,11.979
		v-3.197v-2.803v-2.97L13.5,22.475z"/>
	<path fill="#E2959E" d="M9.503,21.767l-0.44,2.543c-0.036,0.207,0.061,0.414,0.243,0.518l1.948,1.125
		c0.155,0.089,0.345,0.089,0.5,0l1.948-1.125c0.182-0.105,0.278-0.312,0.243-0.518l-0.44-2.543l-2-1.443L9.503,21.767z"/>
	<path fill="#E2959E" d="M8.611,20.638c-0.456,0.456-2.622,1.468-3.929,2.055c-0.575,0.258-1.249,0.045-1.573-0.495l-0.432-0.721
		c-0.295-0.492-0.215-1.123,0.195-1.525l2.802-2.752L8.611,20.638z"/>
	<path fill="#ACD7DD" d="M10.341,19.707l-0.025,0.854c-0.003,0.09,0.044,0.175,0.121,0.222l0.921,0.552
		c0.098,0.059,0.224,0.043,0.305-0.038l0.51-0.51c0.081-0.081,0.097-0.207,0.038-0.305l-0.552-0.921
		c-0.047-0.078-0.131-0.124-0.222-0.121l-0.854,0.025C10.452,19.468,10.345,19.574,10.341,19.707z"/>
	<path fill="#9FCCD3" d="M16,27.523v2.479c-5.459,0.013-8.51-3.08-9.99-6.467C9.057,26.128,11.062,27.523,16,27.523z"/>
	<path fill="#DE8490" d="M31.155,15.843c0.241-0.34,0.182-0.647-0.039-0.862l-2.569-2.484l-1.444,2.041l3.197,1.597
		C30.576,16.273,30.87,16.247,31.155,15.843z"/>
	<path fill="#DE8490" d="M28.052,9.407c-0.416,0.014-0.626,0.246-0.662,0.553l-0.423,3.549l2.499-0.085l-0.663-3.512
		C28.745,9.609,28.546,9.39,28.052,9.407z"/>
	<path fill="#DE8490" d="M30.041,10.384l-10.215,6.14l2.388,3.425l9.311-7.432c0.631-0.485,0.568-1.094,0.193-1.594
		C31.378,10.47,30.806,9.918,30.041,10.384z"/>
	<path fill="#E08C96" d="M30.178,4.322l-1.274-0.303c0.638-0.676,1.199-1.273,1.596-1.699c0.52-0.559,0.646-1.19,0.083-1.833
		C30-0.18,29.041-0.073,28.542,0.279c-0.833,0.587-2.146,1.502-3.534,2.465L23.44,2.047c-0.282-0.125-0.574-0.086-0.842,0.33
		c-0.225,0.351-0.153,0.655,0.078,0.859l0.714,0.63c-1.728,1.198-3.323,2.3-4.018,2.78C18.314,6.237,17.184,6.002,16,6.002v24
		c8.917,0,11.353-8.129,11.125-12.75c-0.128-2.589-1.438-5.468-3.502-7.667c0.901-0.947,2.192-2.303,3.458-3.638l2.984-0.215
		c0.308-0.022,0.547-0.194,0.587-0.687C30.685,4.628,30.478,4.393,30.178,4.322z"/>
	<path fill="#DE8490" d="M17.5,3.002c0,0,0.792,5.042,1,7c-0.41,0.472-1.708,0.5-2.5,0.5c0-2.042,0-8.495,0-8.495
		C16.756,2.021,17.427,2.524,17.5,3.002z"/>
	<path fill="#88B9C3" d="M22.531,26.502h-5l0.826,4.682c0.109,0.581,0.695,0.941,1.262,0.776l1.745-0.507
		c0.386-0.112,0.667-0.444,0.714-0.843L22.531,26.502z"/>
	<g>
		<line fill="#A3C0C6" x1="16" y1="30.002" x2="16" y2="26.502"/>
	</g>
	<path fill="#A5D1D8" d="M18.276,23.766l0.224-1.291L16,21.031v2.97v2.803v3.197c8.542,0.021,11.188-7.563,11.146-11.979
		C25.242,20.366,22.147,22.988,18.276,23.766z"/>
	<path fill="#E08C96" d="M22.497,21.767l0.44,2.543c0.036,0.207-0.061,0.414-0.243,0.518l-1.948,1.125
		c-0.155,0.089-0.345,0.089-0.5,0l-1.948-1.125c-0.182-0.105-0.278-0.312-0.243-0.518l0.44-2.543l2-1.443L22.497,21.767z"/>
	<path fill="#E08C96" d="M23.389,20.638c0.456,0.456,2.622,1.468,3.929,2.055c0.575,0.258,1.249,0.045,1.573-0.495l0.432-0.721
		c0.295-0.492,0.215-1.123-0.195-1.525l-2.802-2.752L23.389,20.638z"/>
	<path fill="#A5D1D8" d="M21.659,19.707l0.025,0.854c0.003,0.09-0.044,0.175-0.121,0.222l-0.921,0.552
		c-0.098,0.059-0.224,0.043-0.305-0.038l-0.51-0.51c-0.081-0.081-0.097-0.207-0.038-0.305l0.552-0.921
		c0.047-0.078,0.131-0.124,0.222-0.121l0.854,0.025C21.548,19.468,21.655,19.574,21.659,19.707z"/>
	<path fill="#99C7CE" d="M25.99,23.534c-1.48,3.387-4.531,6.48-9.99,6.467v-2.479C20.938,27.523,22.943,26.128,25.99,23.534z"/>
	
		<ellipse transform="matrix(0.2588 -0.9659 0.9659 0.2588 -3.6785 22.3895)" fill="#373F3F" cx="12.75" cy="13.592" rx="1.526" ry="0.821"/>
	
		<ellipse transform="matrix(0.2588 -0.9659 0.9659 0.2588 -3.096 22.1404)" fill="#FFFFFF" cx="12.879" cy="13.088" rx="0.702" ry="0.482"/>
	
		<ellipse transform="matrix(0.9659 -0.2588 0.2588 0.9659 -2.8619 5.4454)" fill="#2B3332" cx="19.25" cy="13.592" rx="0.821" ry="1.526"/>
	
		<ellipse transform="matrix(0.9659 -0.2588 0.2588 0.9659 -2.7358 5.3948)" fill="#F7F7F7" cx="19.121" cy="13.088" rx="0.482" ry="0.702"/>
	<path fill="#373F3F" d="M16,17.252c-1.462,0-2.33-0.684-2.338-0.69c-0.105-0.09-0.262-0.075-0.352,0.028
		c-0.089,0.105-0.077,0.263,0.027,0.352c0.039,0.033,1.006,0.811,2.663,0.811V17.252z"/>
	<path fill="#2B3332" d="M16,17.252c1.462,0,2.33-0.684,2.338-0.69c0.105-0.09,0.262-0.075,0.352,0.028
		c0.089,0.105,0.077,0.263-0.027,0.352c-0.039,0.033-1.006,0.811-2.663,0.811V17.252z"/>
</g>
</svg>
