<?xml version="1.0" encoding="utf-8"?>
<!-- Generator: Adobe Illustrator 21.0.2, SVG Export Plug-In . SVG Version: 6.00 Build 0)  -->
<svg version="1.1" id="icons" xmlns="http://www.w3.org/2000/svg" xmlns:xlink="http://www.w3.org/1999/xlink" x="0px" y="0px"
	 width="32px" height="32px" viewBox="0 0 32 32" enable-background="new 0 0 32 32" xml:space="preserve">
<g>
	<path fill="#E3E5E5" d="M16,12.551c0.241,0,0.482-0.158,0.622-0.474C18.122,8.684,21.432,0,16,0V12.551z"/>
	<path fill="#EDEEEE" d="M15.378,12.077c0.14,0.316,0.381,0.474,0.622,0.474V0C10.568,0,13.878,8.684,15.378,12.077z"/>
	<path fill="#E3E5E5" d="M16,19.449c-0.241,0-0.482,0.158-0.622,0.474C13.878,23.316,10.568,32,16,32V19.449z"/>
	<path fill="#DADDDC" d="M16.622,19.923c-0.14-0.316-0.381-0.474-0.622-0.474V32C21.432,32,18.122,23.316,16.622,19.923z"/>
	<path fill="#EDEEEE" d="M16,22.449c-0.167,0-0.333,0.083-0.43,0.247C14.533,24.467,12.245,29,16,29V22.449z"/>
	<path fill="#E3E5E5" d="M16.43,22.697c-0.097-0.165-0.263-0.247-0.43-0.247V29C19.755,29,17.467,24.467,16.43,22.697z"/>
	<path fill="#C8DAC8" d="M15.57,1.697c-0.478,0.817-1.217,2.219-1.512,3.495C9.465,6.096,6,10.142,6,15c0,5.523,4.477,10,10,10
		V1.449C15.833,1.449,15.667,1.532,15.57,1.697z"/>
	<path fill="#BAD3C1" d="M17.942,5.192c-0.295-1.276-1.034-2.679-1.512-3.495C16.333,1.532,16.167,1.449,16,1.449V25
		c5.523,0,10-4.477,10-10C26,10.142,22.535,6.096,17.942,5.192z"/>
	<path fill="#BAD3C1" d="M6.016,15.324C6.189,20.695,10.586,25,16,25v-9c-1,0-2,1-2,1C10.224,17,7.621,16.128,6.016,15.324z"/>
	<path fill="#AFC9B7" d="M25.984,15.324C25.811,20.695,21.414,25,16,25v-9c1,0,2,1,2,1C21.776,17,24.379,16.128,25.984,15.324z"/>
	<path fill="#EDEEEE" d="M7.303,19.726c0.33-0.193,0.33-0.666,0-0.86C5.533,17.829,1,15.541,1,19.296S5.533,20.763,7.303,19.726z"/>
	<path fill="#E3E5E5" d="M24.697,19.726c-0.33-0.193-0.33-0.666,0-0.86C26.467,17.829,31,15.541,31,19.296
		S26.467,20.763,24.697,19.726z"/>
	<path fill="#F7F7F7" d="M23,16c0,1.657-0.343,3-2,3s-2-1.343-2-3s0.343-3,2-3S23,14.343,23,16z"/>
	<path fill="#2B3332" d="M22,16c0,1.105-0.172,2-1,2s-1-0.895-1-2s0.172-2,1-2S22,14.895,22,16z"/>
	<circle fill="#F7F7F7" cx="21" cy="15" r="0.5"/>
	<path fill="#FFFFFF" d="M13,16c0,1.657-0.343,3-2,3s-2-1.343-2-3s0.343-3,2-3S13,14.343,13,16z"/>
	<path fill="#373F3F" d="M12,16c0,1.105-0.172,2-1,2s-1-0.895-1-2s0.172-2,1-2S12,14.895,12,16z"/>
	<circle fill="#FFFFFF" cx="11" cy="15" r="0.5"/>
</g>
</svg>
