<?xml version="1.0" encoding="utf-8"?>
<!-- Generator: Adobe Illustrator 21.0.2, SVG Export Plug-In . SVG Version: 6.00 Build 0)  -->
<svg version="1.1" id="icons" xmlns="http://www.w3.org/2000/svg" xmlns:xlink="http://www.w3.org/1999/xlink" x="0px" y="0px"
	 width="32px" height="32px" viewBox="0 0 32 32" enable-background="new 0 0 32 32" xml:space="preserve">
<g>
	<g>
		<path fill="#9AA6D6" d="M19.882,30.667c-2.352,0.143-4.189-1.326-4.69-3.706c-0.255-1.211,0.245-2.711,1.26-3.605
			c0.853-0.752,1.477-1.655,1.782-2.637h-1.595c-0.295,1.018-0.96,1.93-1.903,2.637c-1.137,0.853-2.01,1.621-2.01,3.105
			c0,3.194,4.615,5.849,7.244,4.249c-0.001-0.002-0.001-0.004-0.002-0.007C19.941,30.643,19.918,30.671,19.882,30.667z"/>
	</g>
	<g>
		<path fill="#ABB4DD" d="M12.727,26.461c-0.011-1.484,0.873-2.252,2.01-3.105c0.943-0.707,1.608-1.619,1.903-2.637h-1.557
			c-0.312,0.862-0.918,1.642-1.77,2.281c-1.137,0.853-2.687,1.812-2.687,4.25c0,3.706,5.973,6.455,9.328,3.534
			c0.031-0.02,0.029-0.061,0.017-0.076C17.342,32.284,12.745,28.946,12.727,26.461z"/>
	</g>
	<path fill="#E5BDE5" d="M12.87,7.562C11.245,7.875,2.672,9.827,1.932,10c-2.938,0.688-2.188,3,0,3s2.375,2,4,2
		c3.313,0,2.062,3.438,6,3.25C12.494,18.223,12.87,7.562,12.87,7.562z"/>
	<path fill="#232F5E" d="M12.5,7.625C9.749,8.213,2.578,9.849,1.932,10c-1.425,0.334-1.977,1.049-1.923,1.698l0.06,0.282
		c0.069,0.185,0.19,0.356,0.355,0.505l1.126-1.267l1.2,0.862c0.115,0.082,0.275,0.054,0.354-0.064l0.853-1.271l1.231,0.799
		c0.112,0.073,0.261,0.045,0.339-0.064l0.874-1.216l1.186,0.797c0.115,0.077,0.27,0.047,0.347-0.068l0.857-1.278l1.271,0.825
		c0.115,0.074,0.268,0.043,0.344-0.07l0.775-1.155c0.047-0.07,0.141-0.087,0.21-0.04l1.072,0.918L12.5,7.625z"/>
	<path fill="#232F5E" d="M14.5,7.004c-0.511-0.511-1.607-3.215-2-4s-0.379-1.932,0.5-2c1.003-0.077,1.025,0.989,1,1.5
		c-0.033,0.688,1.106,4.066,1.106,4.066L14.5,7.004z"/>
	<path fill="#EBCEEB" d="M16,6v16.016c-3.538,0-6.406-3.051-6.406-7.474S12.462,6,16,6z"/>
	<path fill="#2B376B" d="M10.488,10.317C11.605,7.809,13.655,6,16,6v2.202c-1.001,0-0.801-0.701-1.868-0.701
		C12.64,7.501,11.596,9.103,10.488,10.317z"/>
	<path fill="#373F3F" d="M11.69,12.524c-0.391-0.155-0.735-0.332-0.981-0.551c-0.068-0.061-0.17,0.001-0.146,0.09
		c0.125,0.465,0.52,0.707,1.002,0.897c0.46,0.182,0.984,0.281,1.401-0.001c0.075-0.051,0.039-0.168-0.052-0.163
		C12.553,12.817,12.133,12.7,11.69,12.524z"/>
	<path fill="#373F3F" d="M11.69,14.393c-0.391-0.155-0.735-0.332-0.981-0.551c-0.068-0.061-0.17,0.001-0.146,0.09
		c0.125,0.465,0.52,0.707,1.002,0.897c0.46,0.182,0.984,0.281,1.401-0.001c0.075-0.051,0.039-0.168-0.052-0.163
		C12.553,14.686,12.133,14.569,11.69,14.393z"/>
	<path fill="#E0ABDF" d="M19.13,7.562C20.755,7.875,29.328,9.827,30.068,10c2.938,0.688,2.188,3,0,3s-2.375,2-4,2
		c-3.312,0-2.062,3.438-6,3.25C19.506,18.223,19.13,7.562,19.13,7.562z"/>
	<path fill="#1E264E" d="M19.5,7.625C22.251,8.213,29.422,9.849,30.068,10c1.425,0.334,1.977,1.049,1.923,1.698l-0.06,0.282
		c-0.069,0.185-0.19,0.356-0.355,0.505l-1.126-1.267l-1.2,0.862c-0.115,0.082-0.275,0.054-0.354-0.064l-0.853-1.271l-1.231,0.799
		c-0.112,0.073-0.261,0.045-0.339-0.064l-0.874-1.216l-1.186,0.797c-0.115,0.077-0.27,0.047-0.347-0.068l-0.857-1.278l-1.271,0.825
		c-0.115,0.074-0.268,0.043-0.344-0.07L20.82,9.318c-0.047-0.07-0.141-0.087-0.21-0.04l-1.072,0.918L19.5,7.625z"/>
	<path fill="#1E264E" d="M17.5,7.004c0.511-0.511,1.607-3.215,2-4s0.379-1.932-0.5-2c-1.003-0.077-1.025,0.989-1,1.5
		c0.033,0.688-1.106,4.066-1.106,4.066L17.5,7.004z"/>
	<path fill="#E5BDE5" d="M22.406,14.542c0,4.423-2.868,7.474-6.406,7.474V6C19.538,6,22.406,10.119,22.406,14.542z"/>
	<path fill="#232F5E" d="M17.868,7.501c-1.068,0-0.868,0.701-1.868,0.701V6c2.345,0,4.395,1.809,5.512,4.317
		C20.404,9.103,19.36,7.501,17.868,7.501z"/>
	<path fill="#2B3332" d="M20.31,12.524c0.391-0.155,0.735-0.332,0.981-0.551c0.068-0.061,0.17,0.001,0.146,0.09
		c-0.125,0.465-0.52,0.707-1.002,0.897c-0.46,0.182-0.984,0.281-1.401-0.001c-0.075-0.051-0.039-0.168,0.052-0.163
		C19.447,12.817,19.867,12.7,20.31,12.524z"/>
	<path fill="#2B3332" d="M20.31,14.393c0.391-0.155,0.735-0.332,0.981-0.551c0.068-0.061,0.17,0.001,0.146,0.09
		c-0.125,0.465-0.52,0.707-1.002,0.897c-0.46,0.182-0.984,0.281-1.401-0.001c-0.075-0.051-0.039-0.168,0.052-0.163
		C19.447,14.686,19.867,14.569,20.31,14.393z"/>
	<g>
		<path fill="#C8DAC8" d="M27.103,18.524c0,0,1.127-0.213,1.218,0.061s-0.346,0.462-0.304,0.731c0.061,0.396,0.7,0.335,0.609,0.822
			c-0.091,0.487-0.426,0.488-0.457,0.974c-0.03,0.487,0.548,1.157,0.304,1.309c-0.244,0.152-1.614-0.7-1.766-2.071
			C26.554,18.981,27.103,18.524,27.103,18.524z"/>
		<path fill="#C8DAC8" d="M26.067,14.875c-0.569-0.379-1.58-1.201-2.022-0.885c-0.442,0.316,0.126,0.695,0.063,1.138
			c-0.063,0.442-0.379,0.822,0,1.201c0.379,0.379,1.896-0.758,1.896-0.758L26.067,14.875z"/>
		<path fill="#C8DAC8" d="M28.808,14.875c0.569-0.379,1.58-1.201,2.022-0.885c0.442,0.316-0.126,0.695-0.063,1.138
			c0.063,0.442,0.379,0.822,0,1.201c-0.379,0.379-1.896-0.758-1.896-0.758L28.808,14.875z"/>
		<path fill="#91AD9D" d="M27.445,12.708c0.623,0,1.059,0.778,1.21,1.462c0.183,0.822,0.7,1.539,0.7,2.357
			c0,1.455-0.688,2.453-1.911,2.453c-1.223,0-1.834-1.271-1.834-2.544c0-0.7,0.518-1.231,0.639-2.236
			C26.338,13.475,26.797,12.708,27.445,12.708z"/>
		<path fill="#7C998B" d="M28.321,14.17c0.204,0.817,1.035,1.539,1.035,2.357c0,1.455-0.688,2.453-1.911,2.453
			c-1.223,0-1.834-1.271-1.834-2.544c0-0.7,0.589-1.167,0.853-2.145C26.676,13.5,28.107,13.317,28.321,14.17z"/>
		<path fill="#C8DAC8" d="M27.559,15.266c-0.7-0.122-0.731,1.583-0.122,1.705c0.312,0.062,0.59-0.254,0.293-0.754
			C27.456,15.752,28.075,15.356,27.559,15.266z"/>
	</g>
	<g>
		<ellipse fill="#373F3F" cx="13.828" cy="9.203" rx="0.75" ry="0.875"/>
		<ellipse fill="#FFFFFF" cx="13.828" cy="9.203" rx="0.375" ry="0.5"/>
	</g>
	<g>
		<ellipse fill="#2B3332" cx="18.172" cy="9.203" rx="0.75" ry="0.875"/>
		<ellipse fill="#F7F7F7" cx="18.172" cy="9.203" rx="0.375" ry="0.5"/>
	</g>
	<path fill="#373F3F" d="M16,11.321c-0.508,0-0.913-0.117-1.171-0.34c-0.104-0.09-0.262-0.077-0.353,0.026
		c-0.09,0.104-0.078,0.263,0.026,0.353c0.351,0.302,0.868,0.461,1.498,0.461V11.321z"/>
	<path fill="#2B3332" d="M17.524,11.008c-0.09-0.104-0.247-0.116-0.353-0.026c-0.258,0.223-0.664,0.34-1.171,0.34
		c-0.001,0-0.001,0.001-0.002,0.001v0.498c0.001,0,0.001,0.001,0.002,0.001c0.629,0,1.147-0.159,1.498-0.461
		C17.602,11.271,17.614,11.112,17.524,11.008z"/>
</g>
</svg>
