<?xml version="1.0" encoding="utf-8"?>
<!-- Generator: Adobe Illustrator 21.0.2, SVG Export Plug-In . SVG Version: 6.00 Build 0)  -->
<svg version="1.1" id="icons" xmlns="http://www.w3.org/2000/svg" xmlns:xlink="http://www.w3.org/1999/xlink" x="0px" y="0px"
	 width="32px" height="32px" viewBox="0 0 32 32" enable-background="new 0 0 32 32" xml:space="preserve">
<g>
	<path fill="#687271" d="M21.26,6.202c0.373,2.014,0.093,4.292-0.996,5.29c-0.927,0.85-3.099,1.571-3.959,1.836
		c-0.101,0.031-0.203,0.044-0.305,0.043c0,0,0-8.871,0-11.371C18.26,2,20.76,3.5,21.26,6.202z"/>
	<g>
		<path fill="#F7F7F7" d="M19.818,5.817c0.247,0.433,0.305,1.248,0.262,1.683c-0.057,0.581-0.43,0.766-1.014,0.772
			c-0.678,0.007-1.91-0.032-1.91-0.401C17.157,6.928,19.386,5.693,19.818,5.817z"/>
		<path fill="#6D240B" d="M17.157,7.871c0-0.643,1.029-1.411,1.825-1.802c0.239,0.308,0.392,0.743,0.392,1.237
			c0,0.364-0.091,0.687-0.233,0.957c-0.027,0.001-0.047,0.008-0.075,0.009C18.388,8.279,17.157,8.24,17.157,7.871z"/>
		<ellipse fill="#F7F7F7" cx="18.409" cy="7.438" rx="0.375" ry="0.5"/>
	</g>
	<path fill="#5C6664" d="M12.232,14.927c0,4.422-4.888,7.481-3.084,11.604c0.207,0.473,0.382,0.878,0.541,1.235
		C9.019,27.963,8,28.575,8,29.308C8,30.2,9.25,30.5,10.142,30.5c0.655,0,1.466,0.032,1.72-0.529
		c0.674,0.088,2.427-0.059,4.138-0.164V14.927H12.232z"/>
	<g>
		<path fill="#D1D4D4" d="M12.373,26.698l-0.027-1.121c0,0-1.13,0.292-1.891,0.282c-0.664-0.008-1.379-0.145-1.648-0.25
			c-0.108-0.042-0.222,0.042-0.205,0.157l0.401,0.91c0.365,0.152,0.853,0.291,1.489,0.311
			C11.132,27.008,11.895,26.831,12.373,26.698z"/>
		<path fill="#909997" d="M10.493,26.988c-0.636-0.02-1.124-0.16-1.489-0.311l0.388,0.88c0.007,0.046,0.029,0.084,0.07,0.107
			c0.181,0.102,0.508,0.265,1.331,0.269c0.823,0.004,1.607-0.181,1.607-0.181l-0.026-1.053
			C11.895,26.831,11.132,27.008,10.493,26.988z"/>
	</g>
	<path fill="#434C4B" d="M21,22.406c11.375-0.688,8.875-8.625,6.187-13.125c7.656,7.656,2.708,14.625-5.25,14.625L21,22.406z"/>
	<path fill="#F79654" d="M12.232,14.927c0,4.422,0.574,15.074,1.31,15.035c0.736-0.039,1.208-1.67,2.458-1.67V14.927H12.232z"/>
	<path fill="#757F7E" d="M14.91,29.847c0,0,0.342-10.093,1.09-10.093V12.62l-2.153-0.807c0,0-2.791,3.321-2.568,5.922
		c0.368,4.29,0.88,10.031,1.013,11.662c-0.553,0.222-1.354,1.142-1.354,1.604c0,0.701,1.28,1,2.332,1c1.052,0,2.251-0.299,2.251-1
		C15.521,30.768,15.074,30.034,14.91,29.847z"/>
	<path fill="#FCA15E" d="M15.614,20.722c0.114-0.599,0.242-0.969,0.386-0.969v-3.659c-0.417,0-1.695,0.912-1.781,1.5
		C14.062,18.656,15.25,17.781,15.614,20.722z"/>
	<path fill="#757F7E" d="M10.74,6.202c-0.373,2.014-0.093,4.292,0.996,5.29c0.927,0.85,3.099,1.571,3.959,1.836
		c0.101,0.031,0.203,0.044,0.305,0.043c0,0,0-8.871,0-11.371C13.74,2,11.24,3.5,10.74,6.202z"/>
	<path fill="#FFFFFF" d="M12.182,5.817C11.935,6.25,11.877,7.065,11.919,7.5c0.057,0.581,0.43,0.766,1.014,0.772
		c0.678,0.007,1.91-0.032,1.91-0.401C14.843,6.928,12.614,5.693,12.182,5.817z"/>
	<path fill="#76260D" d="M14.843,7.871c0-0.643-1.029-1.411-1.825-1.802c-0.239,0.308-0.392,0.743-0.392,1.237
		c0,0.364,0.091,0.687,0.233,0.957c0.027,0.001,0.047,0.008,0.075,0.009C13.612,8.279,14.843,8.24,14.843,7.871z"/>
	<ellipse fill="#FFFFFF" cx="13.591" cy="7.438" rx="0.375" ry="0.5"/>
	<g>
		<path fill="#DADDDC" d="M15.109,28.73l0.061-0.815c0.008-0.107-0.089-0.188-0.191-0.155c-0.316,0.104-0.935,0.282-1.438,0.282
			c-0.664,0-1.125-0.187-1.377-0.328c-0.101-0.056-0.226,0.012-0.224,0.128l0.009,0.794c0.367,0.155,0.864,0.299,1.512,0.32
			C14,28.974,14.636,28.849,15.109,28.73z"/>
		<path fill="#9DA5A4" d="M13.461,28.956c-0.648-0.021-1.145-0.165-1.512-0.32l0.008,0.729c0.001,0.047,0.017,0.087,0.054,0.115
			c0.165,0.125,0.706,0.481,1.53,0.481c0.79,0,1.267-0.21,1.433-0.298c0.046-0.024,0.068-0.067,0.072-0.119l0.061-0.815
			C14.636,28.849,14,28.974,13.461,28.956z"/>
	</g>
	<path fill="#FCA15E" d="M10.937,10.2c0.188,0.527,0.452,0.975,0.799,1.292c0.927,0.85,3.099,1.571,3.959,1.836
		c0.101,0.031,0.203,0.044,0.305,0.043V4.727c-1.458,0-1.5,2.69-1.5,3.023C14.5,9.384,11.458,8.792,10.937,10.2z"/>
	<path fill="#F79654" d="M11.154,10.706c0.159,0.309,0.352,0.576,0.582,0.786c0.927,0.85,3.099,1.571,3.959,1.836
		c0.101,0.031,0.203,0.044,0.305,0.043v-2.496C14.167,10.875,14,11.917,11.154,10.706z"/>
	<path fill="#373F3F" d="M16,8.623c-0.417,0-0.885,0.214-0.885,0.513c0,0.28,0.652,0.559,0.885,0.559V8.623z"/>
	<path fill="#DADDDC" d="M14.75,2.625C14.146,1.856,12.875,0,10,0C7.331,0,6.35,3.088,7.556,4.231c0.088,0.084,0.236,0,0.208-0.118
		C7.446,2.751,8.628,1.792,9.667,1.792c1.381,0,2.528,2.044,2.75,2.333C12.833,4.667,15.208,3.208,14.75,2.625z"/>
	<path fill="#DADDDC" d="M14.766,14.696c0.151-0.016,0.172-0.227,0.035-0.293c-0.894-0.431-1.505-0.873-1.838-1.384
		c-0.225,0.34-0.468,0.736-0.699,1.165C12.974,14.6,13.84,14.795,14.766,14.696z"/>
	<path fill="#DADDDC" d="M16,13.812v1.875c-0.219,0-0.734-0.42-0.734-0.938S15.594,13.812,16,13.812z"/>
	<path fill="#505957" d="M19.768,14.927c0,4.422,4.888,7.481,3.084,11.604c-0.207,0.473-0.382,0.878-0.541,1.235
		C22.981,27.963,24,28.575,24,29.308c0,0.892-1.25,1.192-2.142,1.192c-0.655,0-1.466,0.032-1.72-0.529
		c-0.674,0.088-2.427-0.059-4.138-0.164V14.927H19.768z"/>
	<g>
		<path fill="#C8CCCB" d="M19.627,26.698l0.027-1.121c0,0,1.13,0.292,1.891,0.282c0.664-0.008,1.379-0.145,1.648-0.25
			c0.108-0.042,0.222,0.042,0.205,0.157l-0.401,0.91c-0.365,0.152-0.853,0.291-1.489,0.311
			C20.868,27.008,20.105,26.831,19.627,26.698z"/>
		<path fill="#838C8A" d="M21.507,26.988c0.636-0.02,1.124-0.16,1.489-0.311l-0.388,0.88c-0.007,0.046-0.029,0.084-0.07,0.107
			c-0.181,0.102-0.508,0.265-1.331,0.269c-0.823,0.004-1.607-0.181-1.607-0.181l0.026-1.053
			C20.105,26.831,20.868,27.008,21.507,26.988z"/>
	</g>
	<path fill="#EF8C48" d="M19.768,14.927c0,4.422-0.574,15.074-1.31,15.035c-0.736-0.039-1.208-1.67-2.458-1.67V14.927H19.768z"/>
	<path fill="#687271" d="M17.09,29.847c0,0-0.342-10.093-1.09-10.093V12.62l2.153-0.807c0,0,2.791,3.321,2.568,5.922
		c-0.368,4.29-0.88,10.031-1.013,11.662c0.553,0.222,1.354,1.142,1.354,1.604c0,0.701-1.28,1-2.332,1c-1.052,0-2.251-0.299-2.251-1
		C16.479,30.768,16.926,30.034,17.09,29.847z"/>
	<path fill="#F79654" d="M16.386,20.722c-0.114-0.599-0.242-0.969-0.386-0.969v-3.659c0.417,0,1.695,0.912,1.781,1.5
		C17.938,18.656,16.75,17.781,16.386,20.722z"/>
	<g>
		<path fill="#D1D4D4" d="M16.891,28.73l-0.061-0.815c-0.008-0.107,0.089-0.188,0.191-0.155c0.316,0.104,0.935,0.282,1.438,0.282
			c0.664,0,1.125-0.187,1.377-0.328c0.101-0.056,0.226,0.012,0.224,0.128l-0.009,0.794c-0.367,0.155-0.864,0.299-1.512,0.32
			C18,28.974,17.364,28.849,16.891,28.73z"/>
		<path fill="#909997" d="M18.539,28.956c0.648-0.021,1.145-0.165,1.512-0.32l-0.008,0.729c-0.001,0.047-0.017,0.087-0.054,0.115
			c-0.165,0.125-0.706,0.481-1.53,0.481c-0.79,0-1.267-0.21-1.433-0.298c-0.046-0.024-0.068-0.067-0.072-0.119l-0.061-0.815
			C17.364,28.849,18,28.974,18.539,28.956z"/>
	</g>
	<path fill="#F79654" d="M21.063,10.2c-0.188,0.527-0.452,0.975-0.799,1.292c-0.927,0.85-3.099,1.571-3.959,1.836
		c-0.101,0.031-0.203,0.044-0.305,0.043V4.727c1.458,0,1.5,2.69,1.5,3.023C17.5,9.384,20.542,8.792,21.063,10.2z"/>
	<path fill="#EF8C48" d="M20.846,10.706c-0.159,0.309-0.352,0.576-0.582,0.786c-0.927,0.85-3.099,1.571-3.959,1.836
		c-0.101,0.031-0.203,0.044-0.305,0.043v-2.496C17.833,10.875,18,11.917,20.846,10.706z"/>
	<path fill="#2B3332" d="M16,8.623c0.417,0,0.885,0.214,0.885,0.513c0,0.28-0.652,0.559-0.885,0.559V8.623z"/>
	<path fill="#D1D4D4" d="M17.25,2.625C17.854,1.856,19.125,0,22,0c2.669,0,3.65,3.088,2.444,4.231c-0.088,0.084-0.236,0-0.208-0.118
		c0.318-1.361-0.863-2.321-1.902-2.321c-1.381,0-2.528,2.044-2.75,2.333C19.167,4.667,16.792,3.208,17.25,2.625z"/>
	<path fill="#C8CCCB" d="M17.234,14.696c-0.151-0.016-0.172-0.227-0.035-0.293c0.894-0.431,1.505-0.873,1.838-1.384
		c0.225,0.34,0.468,0.736,0.699,1.165C19.026,14.6,18.16,14.795,17.234,14.696z"/>
	<path fill="#C8CCCB" d="M16.734,14.75c0,0.518-0.516,0.938-0.734,0.938v-1.875C16.406,13.812,16.734,14.232,16.734,14.75z"/>
	<path fill="#434C4B" d="M24.951,6.954c-0.124-0.063-0.26,0.063-0.207,0.191l2.283,5.563c0.014,0.034,0.063,0.031,0.073-0.005
		l0.679-2.556l2.687-0.338c0.038-0.005,0.046-0.055,0.012-0.073L24.951,6.954z"/>
</g>
</svg>
