<?xml version="1.0" encoding="utf-8"?>
<!-- Generator: Adobe Illustrator 21.0.2, SVG Export Plug-In . SVG Version: 6.00 Build 0)  -->
<svg version="1.1" id="icons" xmlns="http://www.w3.org/2000/svg" xmlns:xlink="http://www.w3.org/1999/xlink" x="0px" y="0px"
	 width="32px" height="32px" viewBox="0 0 32 32" enable-background="new 0 0 32 32" xml:space="preserve">
<g>
	<path fill="#E3E5E5" d="M19.66,11.467c1.058,0.029,1.698-0.209,2.81,0.121s2.311,1.324,1.994,2.155
		c-0.317,0.831-1.38,1.299-2.657,0.565c-1.277-0.734-2.471-2.225-2.471-2.225L19.66,11.467z"/>
	<path fill="#8EC0E0" d="M25.175,8.073c0.087-0.072,0.04-0.213-0.073-0.222c-1.597-0.129-2.835-0.336-4.127-0.101
		c-1.557,0.283-2,0.75-3.375,0.688c-1.863-0.085-1.586,0.438-1.586,0.438V11c0,0,0.398,0.562,1.711,0.562
		c1.5,0,1.875-0.75,3.25-0.875c0.924-0.084,3,0.498,3.863,0.756c0.118,0.035,0.212-0.102,0.135-0.199l-1.435-1.807L25.175,8.073z"/>
	<path fill="#B0D3EA" d="M24.839,1.251c-0.809-0.055-1.307,0.325-1.707,0.62c-0.328,0.242-0.528,0.379-0.819,0.379
		c-0.42,0-0.725-0.22-1.079-0.475c-0.305-0.22-0.62-0.447-1.021-0.518c-0.54-0.096-1.034-0.074-1.459,0.042l0.17-0.678
		c0.066-0.268-0.096-0.539-0.364-0.606c-0.272-0.066-0.539,0.096-0.606,0.364l-0.704,2.816c-0.376-0.091-0.764-0.152-1.156-0.187
		C16.061,3.005,16.031,3.002,16,3v10.985c0,0,3.577,0.396,4.609-2.925c0.572-1.839,0.578-4.044-0.397-5.731
		c-0.516-0.893-1.219-1.453-2.015-1.808l0.188-0.753c0.006-0.013,0.016-0.021,0.021-0.035c0.16-0.438,0.816-0.633,1.631-0.491
		c0.176,0.031,0.378,0.177,0.611,0.345c0.41,0.295,0.921,0.663,1.663,0.663c0.635,0,1.066-0.318,1.413-0.574
		c0.341-0.252,0.606-0.447,1.061-0.427c0.274,0.04,0.511-0.197,0.525-0.473S25.114,1.266,24.839,1.251z"/>
	<path fill="#EDEEEE" d="M12.34,11.468c-1.058,0.029-1.698-0.209-2.81,0.121c-1.112,0.329-2.311,1.324-1.994,2.155
		s1.38,1.299,2.657,0.565c1.277-0.734,2.471-2.225,2.471-2.225L12.34,11.468z"/>
	<path fill="#9FC9E4" d="M6.825,8.074c-0.087-0.072-0.04-0.213,0.073-0.222c1.597-0.129,2.835-0.336,4.127-0.101
		c1.557,0.283,2,0.75,3.375,0.687c1.863-0.085,1.586,0.438,1.586,0.438v2.125c0,0-0.398,0.562-1.711,0.562
		c-1.5,0-1.875-0.75-3.25-0.875c-0.924-0.084-3,0.498-3.863,0.756c-0.118,0.035-0.212-0.102-0.135-0.199l1.435-1.807L6.825,8.074z"
		/>
	<path fill="#C1DDEE" d="M15.908,3.008c-0.393,0.035-0.78,0.096-1.157,0.187l-0.704-2.816c-0.066-0.269-0.344-0.432-0.606-0.364
		c-0.269,0.067-0.431,0.339-0.364,0.606l0.169,0.677c-0.423-0.115-0.917-0.136-1.458-0.04c-0.401,0.07-0.717,0.298-1.021,0.518
		c-0.354,0.255-0.659,0.475-1.079,0.475c-0.291,0-0.491-0.137-0.819-0.379c-0.4-0.295-0.893-0.674-1.707-0.62
		c-0.275,0.015-0.487,0.25-0.473,0.525c0.014,0.275,0.25,0.515,0.525,0.473c0.452-0.015,0.72,0.175,1.061,0.427
		c0.347,0.256,0.778,0.574,1.413,0.574c0.742,0,1.253-0.368,1.663-0.663c0.233-0.168,0.436-0.313,0.611-0.345
		c0.815-0.144,1.471,0.053,1.631,0.491c0.005,0.013,0.015,0.022,0.021,0.035l0.188,0.754c-0.796,0.355-1.499,0.915-2.015,1.808
		c-0.974,1.687-0.968,3.892-0.397,5.731C12.423,14.382,16,13.986,16,13.986V3.001C15.969,3.003,15.939,3.005,15.908,3.008z"/>
	<g>
		<path fill="#E3E5E5" d="M29.937,15.375c-0.125-1.438-0.25-2.25,0.375-3.562c0,0-0.958,1.271-3.187,0.812
			c-0.859-0.177-1.625,2.438-2.188,3.188c-0.562,0.75-2.812,0.938-2.812,0.938s-0.18,1.087-0.289,2.188h6.053
			C28.001,17.72,30.06,16.784,29.937,15.375z"/>
		<path fill="#DADDDC" d="M27.875,19c0.001-0.021,0.012-0.041,0.014-0.062h-6.053c-0.093,0.944-0.134,1.899,0.039,2.188
			c0.375,0.625-0.563,2,5,1.25c1.301-0.175,3.169,2.061,3.187,1.938C30.437,21.875,27.812,20.562,27.875,19z"/>
	</g>
	<path fill="#8EC0E0" d="M20.937,17.812c-0.104,0-0.207-0.031-0.296-0.097c-0.223-0.163-0.271-0.477-0.107-0.699
		c0.504-0.687,1.364-0.819,2.196-0.948c0.55-0.085,1.118-0.173,1.492-0.422c0.634-0.423,0.943-1.122,1.217-1.738
		c0.24-0.541,0.467-1.053,0.894-1.328c0.753-0.488,1.323-0.396,1.78-0.321c0.279,0.045,0.522,0.083,0.825,0.007
		c0.243-0.062,0.45-0.393,0.67-0.742c0.339-0.54,0.761-1.212,1.605-1.272c0.272-0.023,0.515,0.188,0.535,0.463
		c0.02,0.275-0.188,0.515-0.463,0.535c-0.316,0.022-0.525,0.319-0.831,0.807c-0.3,0.477-0.639,1.018-1.269,1.179
		c-0.508,0.129-0.91,0.064-1.233,0.012c-0.401-0.065-0.646-0.105-1.077,0.174c-0.177,0.114-0.352,0.51-0.521,0.894
		c-0.312,0.704-0.702,1.581-1.577,2.165c-0.559,0.372-1.237,0.477-1.895,0.578c-0.66,0.102-1.283,0.198-1.542,0.552
		C21.243,17.742,21.091,17.812,20.937,17.812z"/>
	<path fill="#8EC0E0" d="M27.292,13.208c-0.21,0-0.404-0.133-0.475-0.342c-0.087-0.263,0.055-0.546,0.316-0.633
		c0.28-0.093,0.387-0.817,0.465-1.347l0.032-0.213c0.106-0.692,0.567-1.174,0.903-1.525c0.101-0.105,0.239-0.25,0.269-0.31
		c0.124-0.246,0.425-0.347,0.671-0.224c0.247,0.124,0.347,0.424,0.224,0.671C29.6,9.48,29.44,9.647,29.257,9.84
		c-0.271,0.283-0.579,0.604-0.638,0.986l-0.031,0.206c-0.122,0.83-0.274,1.862-1.138,2.15C27.397,13.2,27.345,13.208,27.292,13.208z
		"/>
	<path fill="#8EC0E0" d="M29.937,24.75c-0.144,0-0.286-0.062-0.386-0.182c-1.139-1.379-2.942-1.93-4.588-1.404
		c-2.242,0.712-3.164-0.763-3.605-1.474c-0.052-0.082-0.116-0.187-0.166-0.256c-0.17-0.021-0.325-0.127-0.399-0.294
		c-0.112-0.252,0.002-0.548,0.254-0.66c0.578-0.258,0.929,0.31,1.16,0.683c0.445,0.715,0.947,1.531,2.454,1.048
		c2.038-0.648,4.262,0.026,5.662,1.721c0.176,0.213,0.146,0.528-0.067,0.704C30.163,24.713,30.05,24.75,29.937,24.75z"/>
	<path fill="#B0D3EA" d="M19.25,13.917L16,13.696v-1.241l2.182-1.038c0,0,4.818,1.75,4.818,5.583
		c0.007,2.667-0.725,3.559-2.917,5.75c-0.104,0.104-0.203,0.228-0.302,0.354C22.867,17.14,19.25,13.917,19.25,13.917z"/>
	<path fill="#F7D684" d="M17.276,21.478l-0.247,0.493C16.689,21.987,16.348,22,16,22v8.455l0.336,0.29
		c0.301-0.037,0.632-0.141,0.987-0.346c0.317-1.828,1.104-5.549,2.459-7.295c0.283-0.547,0.493-1.063,0.671-1.564
		c-0.803,0.167-1.641,0.295-2.514,0.369l-0.216-0.431C17.631,21.294,17.368,21.294,17.276,21.478z"/>
	<path fill="#FAE09F" d="M17.276,17.478l-0.247,0.493C16.689,17.987,16.348,18,16,18v4c0.348,0,0.689-0.013,1.029-0.028l0.247-0.493
		c0.092-0.184,0.355-0.184,0.447,0l0.216,0.431c0.872-0.074,1.71-0.203,2.514-0.369c0.576-1.618,0.643-2.987,0.479-4.104
		c-0.945,0.221-1.945,0.384-2.992,0.473l-0.216-0.431C17.631,17.294,17.368,17.294,17.276,17.478z"/>
	<path fill="#FDEBBB" d="M19.25,13.917L16,13.696V18c0.348,0,0.689-0.013,1.029-0.028l0.247-0.493c0.092-0.184,0.355-0.184,0.447,0
		l0.216,0.431c1.047-0.089,2.048-0.253,2.992-0.473C20.592,15.132,19.25,13.917,19.25,13.917z"/>
	<g>
		<g>
			<path fill="#B0D3EA" d="M18,30v-5.562c0-1.105-0.895-2-2-2V32C17.105,32,18,31.105,18,30z"/>
		</g>
		<g>
			<path fill="#B0D3EA" d="M18,30v-5.562c0-1.105-0.895-2-2-2V32C17.105,32,18,31.105,18,30z"/>
		</g>
	</g>
	<g>
		<path fill="#FFFFFF" d="M19,7.498c0-0.166-0.011-0.323-0.028-0.472L20,5.998v2c0,0.552-0.448,1-1,1h-0.5
			C18.776,8.998,19,8.326,19,7.498z"/>
		<path fill="#F7F7F7" d="M18.028,7.97c0.066,0.596,0.251,1.028,0.472,1.028H17L18.028,7.97z"/>
		<path fill="#373F3F" d="M18.028,7.97l0.944-0.944C18.989,7.175,19,7.332,19,7.498c0,0.828-0.224,1.5-0.5,1.5
			C18.279,8.998,18.094,8.566,18.028,7.97z"/>
	</g>
	<path fill="#373F3F" d="M17.5,11.5c0,0.828-0.672,1.5-1.5,1.5v-3C16.828,10,17.5,10.672,17.5,11.5z"/>
	<g>
		<path fill="none" d="M17,11.5c0-0.552-0.448-1-1-1v2C16.552,12.5,17,12.052,17,11.5z"/>
		<path fill="#9FC9E4" d="M16,9.5v1c0.552,0,1,0.448,1,1s-0.448,1-1,1v1c1.103,0,2-0.897,2-2S17.103,9.5,16,9.5z"/>
	</g>
	<path fill="#C1DDEE" d="M12.75,13.917L16,13.697v-1.241l-2.182-1.038c0,0-4.818,1.75-4.818,5.583
		c-0.007,2.667,0.725,3.559,2.917,5.75c0.104,0.104,0.203,0.228,0.302,0.354C9.133,17.14,12.75,13.917,12.75,13.917z"/>
	<path fill="#FAE09F" d="M14.724,21.479l0.247,0.493c0.34,0.015,0.682,0.028,1.029,0.028v8.455l-0.336,0.29
		c-0.301-0.037-0.632-0.141-0.987-0.346c-0.317-1.828-1.104-5.549-2.459-7.295c-0.283-0.547-0.493-1.063-0.671-1.564
		c0.803,0.167,1.641,0.295,2.514,0.369l0.216-0.431C14.369,21.295,14.632,21.295,14.724,21.479z"/>
	<path fill="#FDEBBB" d="M14.724,17.479l0.247,0.493c0.34,0.015,0.682,0.028,1.029,0.028v4c-0.348,0-0.689-0.013-1.029-0.028
		l-0.247-0.493c-0.092-0.184-0.355-0.184-0.447,0l-0.216,0.431c-0.872-0.074-1.71-0.203-2.514-0.369
		c-0.576-1.618-0.643-2.987-0.479-4.104c0.945,0.221,1.945,0.384,2.992,0.473l0.216-0.431
		C14.369,17.295,14.632,17.295,14.724,17.479z"/>
	<path fill="#FFF3D9" d="M12.75,13.917L16,13.697v4.304c-0.348,0-0.689-0.013-1.029-0.028l-0.247-0.493
		c-0.092-0.184-0.355-0.184-0.447,0l-0.216,0.431c-1.047-0.089-2.048-0.253-2.992-0.473C11.408,15.132,12.75,13.917,12.75,13.917z"
		/>
	<g>
		<g>
			<path fill="#C1DDEE" d="M14,30.001v-5.562c0-1.105,0.895-2,2-2v9.562C14.895,32.001,14,31.105,14,30.001z"/>
		</g>
		<g>
			<path fill="#C1DDEE" d="M14,30.001v-5.562c0-1.105,0.895-2,2-2v9.562C14.895,32.001,14,31.105,14,30.001z"/>
		</g>
	</g>
	<g>
		<path fill="#FFFFFF" d="M13,7.498c0-0.166,0.011-0.323,0.028-0.472L12,5.998v2c0,0.552,0.448,1,1,1h0.5
			C13.224,8.998,13,8.327,13,7.498z"/>
		<path fill="#F7F7F7" d="M13.972,7.971c-0.066,0.596-0.251,1.028-0.472,1.028H15L13.972,7.971z"/>
		<path fill="#373F3F" d="M13.972,7.971l-0.944-0.944C13.011,7.175,13,7.332,13,7.498c0,0.828,0.224,1.5,0.5,1.5
			C13.721,8.998,13.906,8.566,13.972,7.971z"/>
	</g>
	<path fill="#434C4B" d="M16,10.001v3c-0.828,0-1.5-0.672-1.5-1.5S15.172,10.001,16,10.001z"/>
	<g>
		<path fill="none" d="M15,11.501c0-0.552,0.448-1,1-1v2C15.448,12.501,15,12.052,15,11.501z"/>
		<path fill="#B0D3EA" d="M16,9.501v1c-0.552,0-1,0.448-1,1s0.448,1,1,1v1c-1.103,0-2-0.897-2-2S14.897,9.501,16,9.501z"/>
	</g>
</g>
</svg>
