<?xml version="1.0" encoding="utf-8"?>
<!-- Generator: Adobe Illustrator 21.0.2, SVG Export Plug-In . SVG Version: 6.00 Build 0)  -->
<svg version="1.1" id="icons" xmlns="http://www.w3.org/2000/svg" xmlns:xlink="http://www.w3.org/1999/xlink" x="0px" y="0px"
	 width="32px" height="32px" viewBox="0 0 32 32" enable-background="new 0 0 32 32" xml:space="preserve">
<g>
	<path fill="#45A396" d="M20.375,30h3.001c0.25,0,0.462-0.185,0.495-0.433l1.191-8.755h-4.688V30z"/>
	<path fill="#D1D4D4" d="M20.75,29.993c0,0.246,0.008,0.445,1.375,0.445c1.394,0,1.375-0.199,1.375-0.445s-0.616-0.552-1.375-0.552
		C21.366,29.441,20.75,29.747,20.75,29.993z"/>
	<path fill="#60C4BC" d="M23.75,11.504c3.125,5.621,1.308,10.371,0.875,11.496c-0.89,2.313-2.679,6.145-3.5,8.189
		c-0.077,0.193-0.262,0.312-0.47,0.309l-3.133-0.052c-0.285-0.005-0.54-0.244-0.522-0.528c0,0-0.406-4.605-0.5-6.043
		c-0.045-0.686-0.089-0.621-0.5-0.621V2.5C21.083,2.5,23.75,6.05,23.75,11.504z"/>
	<path fill="#4EAFA3" d="M11.625,30H8.624c-0.25,0-0.462-0.185-0.495-0.433l-1.191-8.755h4.688V30z"/>
	<path fill="#DADDDC" d="M11.25,29.993c0,0.246-0.008,0.445-1.375,0.445c-1.394,0-1.375-0.199-1.375-0.445s0.616-0.552,1.375-0.552
		S11.25,29.747,11.25,29.993z"/>
	<path fill="#79C6C1" d="M16,2.5v21.754c-0.411,0-0.413-0.06-0.5,0.621c-0.188,1.469-0.5,6.043-0.5,6.043
		c0.018,0.284-0.237,0.523-0.522,0.528l-3.133,0.052c-0.208,0.003-0.392-0.116-0.47-0.309c-0.821-2.044-2.611-5.876-3.5-8.189
		c-0.433-1.126-2.25-5.875,0.875-11.496C8.25,6.05,10.917,2.5,16,2.5z"/>
	<path fill="#60C4BC" d="M16,20.583v3.67c-0.411,0-0.413-0.06-0.5,0.621c-0.188,1.469-0.5,6.043-0.5,6.043
		c0.018,0.284-0.237,0.523-0.522,0.528l-3.133,0.052c-0.208,0.003-0.392-0.116-0.47-0.309c-0.821-2.044-2.611-5.876-3.5-8.189
		c-0.131-0.341-1.031-2.875-0.875-4.25C8.557,19.609,12.25,20.5,16,20.583z"/>
	<path fill="#58B7AE" d="M25.5,18.75c0.156,1.375-0.744,3.909-0.875,4.25c-0.89,2.313-2.679,6.145-3.5,8.189
		c-0.077,0.193-0.262,0.312-0.47,0.309l-3.133-0.052c-0.285-0.005-0.54-0.244-0.522-0.528c0,0-0.312-4.574-0.5-6.043
		c-0.087-0.682-0.089-0.621-0.5-0.621v-3.67C19.75,20.5,23.443,19.609,25.5,18.75z"/>
	<path fill="#E3E5E5" d="M14.375,31.555C14.375,31.801,14.367,32,13,32c-1.394,0-1.375-0.199-1.375-0.445s0.616-0.552,1.375-0.552
		S14.375,31.309,14.375,31.555z"/>
	<path fill="#8FCEC9" d="M16,12.066v11c-0.72,0-1.276,0.015-1.703-0.74c-1.018-1.801-2.047-6.135-2.047-8.072
		C12.25,12.92,14.75,12.066,16,12.066z"/>
	<path fill="#D64F45" d="M16,11.066v2.688c-2.438,0-4.25,2-4.25-0.75C11.75,11.67,14.75,11.066,16,11.066z"/>
	<g>
		
			<ellipse transform="matrix(0.2588 -0.9659 0.9659 0.2588 0.4266 19.2395)" fill="#373F3F" cx="12.75" cy="9.342" rx="1.526" ry="0.821"/>
		
			<ellipse transform="matrix(0.2588 -0.9659 0.9659 0.2588 1.0092 18.9904)" fill="#FFFFFF" cx="12.879" cy="8.838" rx="0.702" ry="0.482"/>
	</g>
	<g>
		
			<ellipse transform="matrix(0.9659 -0.2588 0.2588 0.9659 -1.7619 5.3006)" fill="#2B3332" cx="19.25" cy="9.342" rx="0.821" ry="1.526"/>
		
			<ellipse transform="matrix(0.9659 -0.2588 0.2588 0.9659 -1.6358 5.25)" fill="#F7F7F7" cx="19.121" cy="8.838" rx="0.482" ry="0.702"/>
	</g>
	<path fill="#60C4BC" d="M10.375,4.785c-4.438,0-7.798,2.439-9.495,5.841c-1.813,3.632-0.606,8.264,1.644,8.19
		c4.012-0.132,6.501-6.478,7.169-9.154C10.044,8.254,10.297,6.613,10.375,4.785z"/>
	<path fill="#D64F45" d="M0.011,14.849c0.112,2.23,1.109,4.014,2.512,3.967c1.435-0.047,2.672-0.897,3.704-2.082
		c-1.882-0.34-2.376-1.489-2.65-2.775c-0.085-0.4-0.607-0.518-0.864-0.199C1.995,14.649,0.949,14.918,0.011,14.849z"/>
	<path fill="#DADDDC" d="M17.625,31.555C17.625,31.801,17.633,32,19,32c1.394,0,1.375-0.199,1.375-0.445S19.759,31.004,19,31.004
		C18.241,31.004,17.625,31.309,17.625,31.555z"/>
	<path fill="#79C6C1" d="M16,12.066v11c0.72,0,1.276,0.015,1.703-0.74c1.018-1.801,2.047-6.135,2.047-8.072
		C19.75,12.92,17.25,12.066,16,12.066z"/>
	<path fill="#D1473D" d="M16,11.066v2.688c2.438,0,4.25,2,4.25-0.75C20.25,11.67,17.25,11.066,16,11.066z"/>
	<path fill="#58B7AE" d="M21.625,4.785c4.438,0,7.798,2.439,9.495,5.841c1.813,3.632,0.606,8.264-1.644,8.19
		c-4.012-0.132-6.501-6.478-7.169-9.154C21.956,8.254,21.703,6.613,21.625,4.785z"/>
	<path fill="#D1473D" d="M31.989,14.849c-0.112,2.23-1.109,4.014-2.512,3.967c-1.435-0.047-2.672-0.897-3.704-2.082
		c1.882-0.34,2.376-1.489,2.65-2.775c0.085-0.4,0.607-0.518,0.864-0.199C30.005,14.649,31.051,14.918,31.989,14.849z"/>
</g>
</svg>
