<?xml version="1.0" encoding="utf-8"?>
<!-- Generator: Adobe Illustrator 21.0.2, SVG Export Plug-In . SVG Version: 6.00 Build 0)  -->
<svg version="1.1" id="icons" xmlns="http://www.w3.org/2000/svg" xmlns:xlink="http://www.w3.org/1999/xlink" x="0px" y="0px"
	 width="32px" height="32px" viewBox="0 0 32 32" enable-background="new 0 0 32 32" xml:space="preserve">
<g>
	<path fill="#7FB8E0" d="M20.375,30h3.501c0.25,0,0.462-0.185,0.495-0.433l0.691-8.755h-4.688V30z"/>
	<path fill="#EDEEEE" d="M23.158,30c0.234-0.299,0.317-0.979-0.602-1.384c-1.271-0.561-1.505,1.085-1.305,1.384
		C22.02,30,23.158,30,23.158,30z"/>
	<path fill="#EDEEEE" d="M23.928,28.957C23.616,29.687,23.809,30,23.809,30s0.834,0,1.572,0
		C25.113,29.464,24.532,28.972,23.928,28.957z"/>
	<path fill="#8EC0E0" d="M11.625,30H8.124c-0.25,0-0.462-0.185-0.495-0.433l-0.691-8.755h4.688V30z"/>
	<path fill="#EDEEEE" d="M8.842,30c-0.234-0.299-0.317-0.979,0.602-1.384c1.271-0.561,1.505,1.085,1.305,1.384
		C9.98,30,8.842,30,8.842,30z"/>
	<path fill="#EDEEEE" d="M8.072,28.957C8.384,29.687,8.191,30,8.191,30s-0.834,0-1.572,0C6.887,29.464,7.468,28.972,8.072,28.957z"
		/>
	<path fill="#C1DDEE" d="M16,2.5v21.754c-0.411,0-0.413-0.06-0.5,0.621c-0.188,1.469-0.5,6.043-0.5,6.043
		c0.018,0.284-0.237,0.523-0.522,0.528l-3.133,0.052c-0.208,0.003-0.392-0.116-0.47-0.309c-0.821-2.044-2.611-5.876-3.5-8.189
		c-0.433-1.126-2.25-5.875,0.875-11.496C8.25,8.083,12.25,2.5,16,2.5z"/>
	<path fill="#B0D3EA" d="M16,20.583v3.67c-0.411,0-0.442-0.064-0.5,0.621c-0.125,1.469-0.5,6.543-0.5,6.543
		c-0.031,0.301-0.237,0.577-0.522,0.582c0,0-3.019,0-3.603,0c-0.821-2.044-2.611-6.687-3.5-9c-0.131-0.341-1.031-2.875-0.875-4.25
		C8.557,19.609,12.25,20.5,16,20.583z"/>
	<path fill="#FFFFFF" d="M10.042,8.9v2.39c0,0.142,0.078,0.273,0.204,0.34l2.782,1.471v-2.793L10.042,8.9z"/>
	<path fill="#434C4B" d="M0.208,7.863C-0.049,7.821-0.075,7.466,0.17,7.38C1.991,6.742,3.46,6.5,5.732,6.5
		c1.833,0,4.174,0.731,4.583-0.375C10.732,5,11.333,2.5,16,2.5v22.375c-1.583,0-3.018-0.458-3.018-1.792
		c0-2.753,0.5-10.833-1-12.333c-1.637-1.637-3.75-0.625-6.5-0.75C3.741,9.921,2.37,8.217,0.208,7.863z"/>
	<path fill="#5C6664" d="M16,11.213h-3.269v1.415c0.227,1.198,0.316,2.763,0.34,4.359H16V11.213z"/>
	<path fill="#505957" d="M13.01,15.162c0.053,0.955,0.069,1.968,0.068,2.959c-0.001,0.825-0.013,1.63-0.029,2.37
		c0.705,0.317,1.651,0.517,2.952,0.517v-2.165v-0.21v-2.165C14.781,16.468,13.625,16.557,13.01,15.162z"/>
	<path fill="#EDEEEE" d="M7.526,15.854C9.292,15,11.25,16.042,11.25,17.979s-1.787,2.438-3.053,2.438s-3.176-1.125-3.176-3.688
		c0-2.251,1.58-4.74,3.686-6.093c0.246-0.158,0.583,0.062,0.46,0.301C7.607,13.973,7.604,14.5,7.526,15.854z"/>
	<path fill="#E3E5E5" d="M11.25,17.979c0,1.938-1.787,2.438-3.053,2.438s-3.176-1.125-3.176-3.688c0-0.54,0.091-1.095,0.259-1.643
		C5.771,16.562,7.333,18.75,11.25,17.979z"/>
	<path fill="#EDEEEE" d="M11.592,32c-0.234-0.299-0.317-0.979,0.602-1.384c1.271-0.561,1.505,1.085,1.305,1.384
		C12.73,32,11.592,32,11.592,32z"/>
	<path fill="#EDEEEE" d="M10.822,30.957C11.134,31.687,10.941,32,10.941,32s-0.834,0-1.572,0
		C9.637,31.464,10.218,30.972,10.822,30.957z"/>
	<ellipse fill="#373F3F" cx="11.729" cy="11.03" rx="0.5" ry="0.75"/>
	<path fill="#EDEEEE" d="M14.297,30.957C13.984,31.687,14.178,32,14.178,32h1.572C15.482,31.464,14.901,30.972,14.297,30.957z"/>
	<path fill="#505957" d="M12.419,26.047v2.372c0,0.297-0.235,0.543-0.533,0.544c-1.174,0.004-2.814-0.884-3.14-1.65
		c-0.325-0.764-0.841-1.903-1.033-2.639c-0.115-0.44,0.237-0.687,0.478-0.555c1.605,0.882,2.343,1.307,3.738,1.391
		C12.208,25.526,12.419,25.768,12.419,26.047z"/>
	<path fill="#B0D3EA" d="M23.75,11.504c3.125,5.621,1.308,10.371,0.875,11.496c-0.89,2.313-2.679,6.145-3.5,8.189
		c-0.077,0.193-0.262,0.312-0.47,0.309l-3.133-0.052c-0.285-0.005-0.54-0.244-0.522-0.528c0,0-0.312-4.574-0.5-6.043
		c-0.087-0.682-0.089-0.621-0.5-0.621V2.5C19.75,2.5,23.75,8.083,23.75,11.504z"/>
	<path fill="#9FC9E4" d="M25.5,18.75c0.156,1.375-0.744,3.909-0.875,4.25c-0.89,2.313-2.679,6.956-3.5,9c-0.792,0-3.603,0-3.603,0
		c-0.285-0.005-0.491-0.281-0.522-0.582c0,0-0.375-5.074-0.5-6.543c-0.058-0.685-0.089-0.621-0.5-0.621v-3.67
		C19.75,20.5,23.443,19.609,25.5,18.75z"/>
	<path fill="#F7F7F7" d="M21.958,8.9v2.39c0,0.142-0.078,0.273-0.204,0.34l-2.782,1.471v-2.793L21.958,8.9z"/>
	<ellipse fill="#2B3332" cx="20.271" cy="11.03" rx="0.5" ry="0.75"/>
	<path fill="#373F3F" d="M31.792,7.863c0.256-0.042,0.283-0.397,0.038-0.483c-1.821-0.638-3.29-0.88-5.562-0.88
		c-1.833,0-4.174,0.731-4.583-0.375C21.268,5,20.667,2.5,16,2.5v22.375c1.583,0,3.018-0.458,3.018-1.792
		c0-2.753-0.5-10.833,1-12.333c1.637-1.637,3.75-0.625,6.5-0.75C28.259,9.921,29.63,8.217,31.792,7.863z"/>
	<path fill="#505957" d="M16,11.213h3.269v1.415c-0.227,1.198-0.316,2.763-0.34,4.359H16V11.213z"/>
	<path fill="#434C4B" d="M20.883,10.126c-0.303,0.154-0.596,0.342-0.872,0.615l0,0c-0.004,0.004-0.008,0.005-0.011,0.009
		c-0.085,0.085-0.158,0.207-0.23,0.332c-0.039,0.072-0.079,0.144-0.115,0.225c-0.231,0.513-0.396,1.231-0.507,2.085
		c-0.558-1.845-1.815-1.739-3.148-1.739V9.489v-0.21V7.114C19.671,7.114,20.591,8.672,20.883,10.126z"/>
	<path fill="#434C4B" d="M18.99,15.162c-0.053,0.955-0.069,1.968-0.068,2.959c0.001,0.825,0.013,1.63,0.029,2.37
		C18.247,20.809,17.3,21.009,16,21.009v-2.165v-0.21v-2.165C17.219,16.468,18.375,16.557,18.99,15.162z"/>
	<path fill="#E3E5E5" d="M24.474,15.854C22.708,15,20.75,16.042,20.75,17.979s1.787,2.438,3.053,2.438s3.176-1.125,3.176-3.688
		c0-2.251-1.58-4.74-3.686-6.093c-0.246-0.158-0.583,0.062-0.46,0.301C24.393,13.973,24.396,14.5,24.474,15.854z"/>
	<path fill="#DADDDC" d="M20.75,17.979c0,1.938,1.787,2.438,3.053,2.438s3.176-1.125,3.176-3.688c0-0.54-0.091-1.095-0.259-1.643
		C26.229,16.562,24.667,18.75,20.75,17.979z"/>
	<path fill="#EDEEEE" d="M20.408,32c0.234-0.299,0.317-0.979-0.602-1.384C18.534,30.055,18.3,31.701,18.501,32
		C19.27,32,20.408,32,20.408,32z"/>
	<path fill="#EDEEEE" d="M21.178,30.957C20.866,31.687,21.059,32,21.059,32s0.834,0,1.572,0
		C22.363,31.464,21.782,30.972,21.178,30.957z"/>
	<path fill="#EDEEEE" d="M17.703,30.957C18.016,31.687,17.822,32,17.822,32H16.25C16.518,31.464,17.099,30.972,17.703,30.957z"/>
	<path fill="#434C4B" d="M19.581,26.047v2.372c0,0.297,0.235,0.543,0.533,0.544c1.174,0.004,2.814-0.884,3.14-1.65
		c0.325-0.764,0.841-1.903,1.033-2.639c0.115-0.44-0.237-0.687-0.478-0.555c-1.605,0.882-2.343,1.307-3.738,1.391
		C19.792,25.526,19.581,25.768,19.581,26.047z"/>
	<path fill="#505957" d="M11.117,10.126c0.303,0.154,0.596,0.342,0.872,0.615l0,0c0.004,0.004,0.008,0.005,0.011,0.009
		c0.085,0.085,0.158,0.207,0.23,0.332c0.039,0.072,0.079,0.144,0.115,0.225c0.231,0.513,0.396,1.231,0.507,2.085
		c0.558-1.845,1.815-1.739,3.148-1.739V9.489v-0.21V7.114C12.329,7.114,11.409,8.672,11.117,10.126z"/>
</g>
</svg>
