<?xml version="1.0" encoding="utf-8"?>
<!-- Generator: Adobe Illustrator 21.0.2, SVG Export Plug-In . SVG Version: 6.00 Build 0)  -->
<svg version="1.1" id="icons" xmlns="http://www.w3.org/2000/svg" xmlns:xlink="http://www.w3.org/1999/xlink" x="0px" y="0px"
	 width="32px" height="32px" viewBox="0 0 32 32" enable-background="new 0 0 32 32" xml:space="preserve">
<g>
	<path fill="#5CA3D5" d="M21.807,21.077l-1.067-0.657l-0.864-0.531c3.231-5.251,1.59-7.046,3.808-10.65
		c2.209-3.591,5.382-4.326,6.552-4.023c0.746,0.877,1.571,4.071-0.638,7.662C27.379,16.481,25.038,15.825,21.807,21.077z"/>
	<path fill="#F3586F" d="M23,5.792c0,2.521-1.5,5-4.098,5.646c-1.037,0.258-1.339,1.646-1.339,2.509v1.246
		c0,1.599,0.922,1.797,2.438,2.307c3.483,1.174,7,2.438,7,7c0,3.642-4.688,7.5-11,7.5c0-5.625,0-25.125,0-31.996
		C19.75,0.004,23,2.593,23,5.792z"/>
	<path fill="#FF5F7E" d="M16,0.004C16,6.875,16,26.375,16,32c-6.312,0-11-3.858-11-7.5c0-4.562,3.517-5.826,7-7
		c1.515-0.511,2.438-0.709,2.438-2.307v-1.246c0-0.863-0.271-2.28-1.339-2.509C10.68,10.919,9,8.312,9,5.792
		C9,2.593,12.25,0.004,16,0.004z"/>
	<path fill="#FF7899" d="M16,0.004c0,1.923,0,4.334,0,7.653c-3.5,0-4.719-0.344-7-1.865C9,2.593,12.25,0.004,16,0.004z"/>
	<path fill="#FF6B8B" d="M23,5.792c-2.281,1.521-3.5,1.865-7,1.865c0-3.319,0-5.73,0-7.653C19.75,0.004,23,2.593,23,5.792z"/>
	<path fill="#FFFFFF" d="M10.656,8.423C10.16,8.415,9.699,8.211,9.361,7.855c-0.26-0.628-0.392-1.324-0.392-2.063
		c0-0.831,0.214-1.615,0.604-2.329c1.709-1.088,2.709,1.102,2.709,2.475C12.281,7.31,11.554,8.436,10.656,8.423z"/>
	<ellipse fill="#373F3F" cx="10.723" cy="5.789" rx="0.875" ry="1.458"/>
	<ellipse fill="#FFFFFF" cx="10.723" cy="5.789" rx="0.438" ry="0.729"/>
	<path fill="#F7F7F7" d="M19.719,5.938c0-1.373,1-3.562,2.709-2.475c0.39,0.714,0.604,1.498,0.604,2.329
		c0,0.739-0.132,1.436-0.392,2.063c-0.338,0.356-0.799,0.56-1.295,0.568C20.446,8.436,19.719,7.31,19.719,5.938z"/>
	<ellipse fill="#2B3332" cx="21.277" cy="5.789" rx="0.875" ry="1.458"/>
	<ellipse fill="#F7F7F7" cx="21.277" cy="5.789" rx="0.438" ry="0.729"/>
	<path fill="#65A9DC" d="M16,11.25V6.557c0.841-0.001,1.681,0.122,2.15,0.371c0.544,0.288,1.035,0.6,0.717,1.081l-1.792,2.701
		C16.836,11.07,16.418,11.25,16,11.25z"/>
	<path fill="#65A9DC" d="M21.969,30.725C20.275,31.514,18.24,32,16,32c0-1.999,0-3.999,0-8.312
		C19.833,23.688,21.5,27.375,21.969,30.725z"/>
	<path fill="#65A9DC" d="M23.338,20.735c-2.182,2.182-1.815,5.085-0.107,6.794c1.709,1.709,4.112,1.575,6.294-0.607
		s3.369-6.23,1.661-7.939S25.52,18.553,23.338,20.735z"/>
	<path fill="#71B1E1" d="M16,23.688c0,4.313,0,6.314,0,8.312c-2.24,0-4.275-0.486-5.969-1.275C10.5,27.375,12.167,23.688,16,23.688z
		"/>
	<path fill="#71B1E1" d="M8.662,20.735c2.182,2.182,1.815,5.085,0.107,6.794c-1.709,1.709-4.112,1.575-6.294-0.607
		s-3.369-6.23-1.661-7.939S6.48,18.553,8.662,20.735z"/>
	<path fill="#71B1E1" d="M14.925,10.71l-1.792-2.701c-0.319-0.48,0.173-0.792,0.717-1.081c0.469-0.249,1.309-0.372,2.15-0.371v4.693
		C15.582,11.25,15.164,11.07,14.925,10.71z"/>
</g>
</svg>
