<?xml version="1.0" encoding="utf-8"?>
<!-- Generator: Adobe Illustrator 21.0.2, SVG Export Plug-In . SVG Version: 6.00 Build 0)  -->
<svg version="1.1" id="icons" xmlns="http://www.w3.org/2000/svg" xmlns:xlink="http://www.w3.org/1999/xlink" x="0px" y="0px"
	 width="32px" height="32px" viewBox="0 0 32 32" enable-background="new 0 0 32 32" xml:space="preserve">
<g>
	<circle fill="#724D31" cx="19.771" cy="18.833" r="3.833"/>
	<polygon fill="#9E6E43" points="14,29.625 12.792,29.625 11,19.792 13.5,19.542 	"/>
	<path fill="#532F42" d="M12.77,29.5h1.117l0.482,0.908c0.022,0.042-0.008,0.092-0.055,0.092h-2.058c-0.05,0-0.08-0.056-0.052-0.098
		L12.77,29.5z"/>
	<path fill="#532F42" d="M14.069,31h1.342L16,31.908V32h-2.55c-0.06,0-0.096-0.056-0.062-0.098L14.069,31z"/>
	<path fill="#A7794C" d="M16,10.5l-2.375,0.042c0,0,0.387,2.164,0,3.802c-0.475,2.011-2.375,2.941-2.584,4.829l-0.025-0.001
		c-0.005,0.075-0.001,0.148-0.003,0.223C11.012,19.432,11,19.462,11,19.5c0,0.035,0.01,0.062,0.011,0.096
		c0.037,3.031,2.596,5.56,2.531,6.695c-0.062,1.094,0.333,3.75,0.552,4.896h1.312l0.243-8.386c0.118,0.003,0.231,0.011,0.351,0.011
		V10.5z"/>
	<path fill="#C09265" d="M16,3.917c-3.666,0-3.222,3.774-3.222,4.239c0,0.639-1.074,0.965-1.074,2.206
		c0,1.189,1.479,1.353,1.88,1.611s0.24,1.611,2.417,1.611V3.917z"/>
	<path fill="#8D5B36" d="M16,10.003c-1.611,0-1.924,1.656-2.417,1.969c0.401,0.258,0.24,1.611,2.417,1.611V10.003z"/>
	<g>
		<path fill="#FDEBBB" d="M13.932,5.122c-0.236-0.158-0.456-0.32-0.615-0.44c0.223-0.719,0.115-1.615-0.467-2.326
			c0.238-0.418,0.379-1.003,0.104-1.571c-0.088-0.182-0.306-0.257-0.488-0.17c-0.182,0.088-0.258,0.307-0.17,0.488
			c0.122,0.253,0.086,0.521-0.006,0.745c-0.669-0.419-1.479-0.433-2.097-0.442C9.95,1.404,9.672,1.4,9.575,1.362
			C9.442,1.309,9.326,1.189,9.263,1.04C9.213,0.924,9.175,0.735,9.271,0.507c0.078-0.187-0.01-0.4-0.196-0.479
			c-0.184-0.077-0.4,0.01-0.479,0.195C8.445,0.586,8.442,0.976,8.589,1.324c0.14,0.331,0.401,0.593,0.718,0.718
			c0.223,0.088,0.512,0.092,0.878,0.097c0.64,0.008,1.436,0.019,1.944,0.5c0.631,0.597,0.66,1.374,0.469,1.896
			c-0.009,0.009-0.021,0.014-0.029,0.024c-0.046,0.058-0.065,0.125-0.071,0.193c-0.015,0.026-0.028,0.056-0.044,0.079
			c-0.001,0.002-0.001,0.003-0.002,0.005c-0.389,0.424-1.31,0.764-2.189,0.21C9.671,4.672,9.464,3.902,9.298,3.284
			c-0.095-0.354-0.17-0.633-0.31-0.827C8.79,2.181,8.471,1.992,8.116,1.938C7.739,1.885,7.364,1.98,7.051,2.217
			C6.89,2.339,6.858,2.567,6.98,2.728C7.102,2.889,7.33,2.924,7.492,2.801c0.197-0.148,0.387-0.16,0.515-0.139
			c0.16,0.023,0.306,0.107,0.389,0.223C8.457,2.97,8.529,3.237,8.592,3.473c0.09,0.335,0.2,0.728,0.376,1.105
			c-0.32-0.016-0.661,0.045-0.941,0.297C7.877,5.011,7.865,5.242,8,5.391c0.135,0.15,0.366,0.163,0.516,0.027
			c0.194-0.175,0.665-0.259,1.12,0.068c0.014,0.01,0.161,0.129,0.236,0.176c0.439,0.278,0.911,0.398,1.362,0.398
			c0.696,0,1.338-0.288,1.742-0.722c0.157,0.117,0.346,0.254,0.549,0.39c0.062,0.042,0.133,0.062,0.203,0.062
			c0.118,0,0.234-0.057,0.304-0.162C14.145,5.461,14.1,5.234,13.932,5.122z"/>
		<circle fill="#532F42" cx="11.98" cy="4.314" r="0.875"/>
	</g>
	<g>
		<g>
			<path fill="#FFFFFF" d="M13.63,7.132c-0.126-0.072-0.291-0.024-0.351,0.109c-0.244,0.545-0.084,1.108,0.422,1.328
				c0.362,0.157,0.903-0.043,1.166-0.409c0.087-0.121,0.05-0.292-0.079-0.366L13.63,7.132z"/>
		</g>
		<g>
			<path fill="#FFFEFC" d="M13.63,7.132c-0.126-0.072-0.291-0.024-0.351,0.109c-0.244,0.545-0.084,1.108,0.422,1.328
				c0.362,0.157,0.903-0.043,1.166-0.409c0.087-0.121,0.05-0.292-0.079-0.366L13.63,7.132z"/>
		</g>
	</g>
	<path fill="#373F3F" d="M13.917,7.295c-0.026,0.076-0.043,0.158-0.043,0.248c0,0.32,0.181,0.579,0.404,0.579
		c0.18,0,0.327-0.171,0.379-0.404L13.917,7.295z"/>
	<path fill="#F5DEB9" d="M16,22.812h-0.359c0.079-0.389-2.099-6.188,0.359-6.188V22.812z"/>
	<polygon fill="#96643B" points="18,29.625 19.208,29.625 21,19.792 18.25,19.542 	"/>
	<path fill="#472236" d="M19.23,29.5h-1.117l-0.482,0.908c-0.022,0.042,0.008,0.092,0.055,0.092h2.058
		c0.05,0,0.08-0.056,0.052-0.098L19.23,29.5z"/>
	<path fill="#472236" d="M17.94,31h-1.326L16,31.908V32h2.551c0.06,0,0.095-0.056,0.061-0.098L17.94,31z"/>
	<path fill="#9E6E43" d="M20.989,19.588C20.99,19.557,21,19.532,21,19.5c0-0.038-0.012-0.068-0.013-0.105
		c-0.002-0.075,0.003-0.148-0.003-0.223l-0.025,0.001c-0.21-1.888-2.109-2.818-2.584-4.829c-0.387-1.638,0-3.802,0-3.802L16,10.5
		v12.312c0.12,0,0.233-0.012,0.351-0.016l0.243,8.391h1.312c0.219-1.146,0.615-3.802,0.552-4.896
		C18.393,25.155,20.957,22.623,20.989,19.588z"/>
	<path fill="#B38658" d="M16,3.917c3.666,0,3.222,3.774,3.222,4.239c0,0.639,1.074,0.965,1.074,2.206
		c0,1.189-1.479,1.353-1.88,1.611s-0.24,1.611-2.417,1.611V3.917z"/>
	<path fill="#845331" d="M16,10.003c1.611,0,1.924,1.656,2.417,1.969c-0.401,0.258-0.24,1.611-2.417,1.611V10.003z"/>
	<g>
		<path fill="#FAE09F" d="M18.068,5.122c0.236-0.158,0.456-0.32,0.615-0.44c-0.223-0.719-0.115-1.615,0.467-2.326
			c-0.238-0.418-0.379-1.003-0.104-1.571c0.088-0.182,0.306-0.257,0.488-0.17c0.182,0.088,0.258,0.307,0.17,0.488
			c-0.122,0.253-0.086,0.521,0.006,0.745c0.669-0.419,1.479-0.433,2.097-0.442c0.244-0.003,0.521-0.007,0.619-0.045
			c0.132-0.053,0.249-0.173,0.312-0.322c0.049-0.116,0.088-0.305-0.008-0.533c-0.078-0.187,0.01-0.4,0.196-0.479
			c0.184-0.077,0.4,0.01,0.479,0.195c0.151,0.362,0.154,0.753,0.007,1.101c-0.14,0.331-0.401,0.593-0.718,0.718
			c-0.223,0.088-0.512,0.092-0.878,0.097c-0.64,0.008-1.436,0.019-1.944,0.5c-0.631,0.597-0.66,1.374-0.469,1.896
			c0.009,0.009,0.021,0.014,0.029,0.024c0.046,0.058,0.065,0.125,0.071,0.193c0.015,0.026,0.028,0.056,0.044,0.079
			c0.001,0.002,0.001,0.003,0.002,0.005c0.389,0.424,1.31,0.764,2.189,0.21c0.591-0.374,0.798-1.144,0.964-1.762
			c0.095-0.354,0.17-0.633,0.31-0.827c0.199-0.275,0.517-0.465,0.873-0.519c0.376-0.054,0.751,0.042,1.064,0.278
			c0.161,0.122,0.193,0.351,0.072,0.512c-0.122,0.161-0.351,0.195-0.512,0.072c-0.197-0.148-0.387-0.16-0.515-0.139
			c-0.16,0.023-0.306,0.107-0.389,0.223c-0.062,0.085-0.134,0.353-0.197,0.589c-0.09,0.335-0.2,0.728-0.376,1.105
			c0.32-0.016,0.661,0.045,0.941,0.297c0.15,0.135,0.162,0.366,0.027,0.516c-0.135,0.15-0.366,0.163-0.516,0.027
			c-0.194-0.175-0.665-0.259-1.12,0.068c-0.014,0.01-0.161,0.129-0.236,0.176c-0.439,0.278-0.911,0.398-1.362,0.398
			c-0.696,0-1.338-0.288-1.742-0.722c-0.157,0.117-0.346,0.254-0.549,0.39c-0.062,0.042-0.133,0.062-0.203,0.062
			c-0.118,0-0.234-0.057-0.304-0.162C17.855,5.461,17.9,5.234,18.068,5.122z"/>
		<circle fill="#472236" cx="20.02" cy="4.314" r="0.875"/>
	</g>
	<g>
		<g>
			<path fill="#F7F7F7" d="M18.37,7.132c0.126-0.072,0.291-0.024,0.351,0.109c0.244,0.545,0.084,1.108-0.422,1.328
				c-0.362,0.157-0.903-0.043-1.166-0.409c-0.087-0.121-0.05-0.292,0.079-0.366L18.37,7.132z"/>
		</g>
		<g>
			<path fill="#FFFEFC" d="M18.37,7.132c0.126-0.072,0.291-0.024,0.351,0.109c0.244,0.545,0.084,1.108-0.422,1.328
				c-0.362,0.157-0.903-0.043-1.166-0.409c-0.087-0.121-0.05-0.292,0.079-0.366L18.37,7.132z"/>
		</g>
	</g>
	<path fill="#2B3332" d="M18.083,7.295c0.026,0.076,0.043,0.158,0.043,0.248c0,0.32-0.181,0.579-0.404,0.579
		c-0.18,0-0.327-0.171-0.379-0.404L18.083,7.295z"/>
	<path fill="#EFD4A7" d="M16,22.812h0.359c-0.079-0.389,2.099-6.188-0.359-6.188V22.812z"/>
</g>
</svg>
