<?xml version="1.0" encoding="utf-8"?>
<!-- Generator: Adobe Illustrator 21.0.2, SVG Export Plug-In . SVG Version: 6.00 Build 0)  -->
<svg version="1.1" id="icons" xmlns="http://www.w3.org/2000/svg" xmlns:xlink="http://www.w3.org/1999/xlink" x="0px" y="0px"
	 width="32px" height="32px" viewBox="0 0 32 32" enable-background="new 0 0 32 32" xml:space="preserve">
<g>
	<path fill="#EACEA1" d="M28.892,16.633c-4.508,2.401-8.079,0.847-10.212-0.081c-0.485-0.211-1.15-0.5-1.357-0.496l-0.23-1.986
		c0.702-0.085,1.445,0.238,2.385,0.648c2.033,0.885,4.819,2.096,8.474,0.15L28.892,16.633z"/>
	<ellipse fill="#EACEA1" cx="28.206" cy="16.108" rx="1.441" ry="1.276"/>
	<g>
		<g>
			<path fill="#E0C193" d="M20.679,28.916c-0.548,0-1.099-0.056-1.62-0.162c-2.144-0.44-3.476-1.671-3.476-3.212h1
				c0,1.562,2.049,2.104,2.677,2.232c1.833,0.376,4.142-0.024,4.655-1.222c0.148-0.345,0.058-0.646-0.113-1.148
				c-0.255-0.748-0.605-1.773,0.315-3.251c0.413-0.663,1.035-0.884,1.585-1.078C26.949,20.635,28.5,20.086,28.5,13h1
				c0,7.207-1.569,8.348-3.464,9.019c-0.538,0.189-0.853,0.314-1.07,0.663c-0.669,1.075-0.449,1.719-0.217,2.4
				c0.184,0.539,0.392,1.149,0.085,1.865C24.248,28.315,22.477,28.916,20.679,28.916z"/>
		</g>
		<g>
			<path fill="#E0C193" d="M20.679,28.916c-0.548,0-1.099-0.056-1.62-0.162c-2.144-0.44-3.476-1.671-3.476-3.212h1
				c0,1.562,2.049,2.104,2.677,2.232c1.833,0.376,4.142-0.024,4.655-1.222c0.148-0.345,0.058-0.646-0.113-1.148
				c-0.255-0.748-0.605-1.773,0.315-3.251c0.413-0.663,1.035-0.884,1.585-1.078C26.949,20.635,28.5,20.086,28.5,13h1
				c0,7.207-1.569,8.348-3.464,9.019c-0.538,0.189-0.853,0.314-1.07,0.663c-0.669,1.075-0.449,1.719-0.217,2.4
				c0.184,0.539,0.392,1.149,0.085,1.865C24.248,28.315,22.477,28.916,20.679,28.916z"/>
		</g>
	</g>
	<path fill="#F5DEB9" d="M7.376,24.206c-0.198-5.104,2.755-7.642,4.52-9.158c0.401-0.345,0.951-0.817,1.037-1.006l1.888,0.657
		c-0.229,0.669-0.844,1.197-1.622,1.865c-1.682,1.445-3.985,3.426-3.825,7.563L7.376,24.206z"/>
	<path fill="#F5DEB9" d="M16,12h-2c0,0-0.375,3.188-1.25,4.812c-1.219,2.264-2.25,3.442-2.25,5.688c0,3.125,3.25,4.5,5.5,4.5V12z"/>
	<path fill="#EFD4A7" d="M16,24.562c-1.813,0-3.688-0.438-5.5-2.062c0,3.125,3.25,4.5,5.5,4.5V24.562z"/>
	<path fill="#EFD4A7" d="M13.937,26.188c-0.25,0.812-0.326,3.161,0,3.812c0.813,1.625-1.5,2-2.937,2c-1.471,0-2.938-1.438-2-2
		c0.937-0.562,3.295,0.205,3.062-0.375C11.687,28.688,11.812,25.312,12,25C12.187,24.688,13.937,26.188,13.937,26.188z"/>
	<path fill="#96643B" d="M16,13.902v2.382c-2.219,0-3.292-1.334-3.292-3.011c0-0.431,0.092-0.839,0.254-1.21
		c0.435,1.019,1.402,1.768,2.583,1.846C15.699,13.919,15.851,13.915,16,13.902z"/>
	<path fill="#96643B" d="M11.396,6.157C9.798,7.1,7.234,9.669,7.22,12.158c0,0.081,0.069,0.152,0.15,0.159
		C11.172,12.632,13.687,10,13.687,10L11.396,6.157z"/>
	<path fill="#FCE8CC" d="M11,6.5c0,1.625,0.812,7.5,5,7.5V5.375L11,6.5z"/>
	<path fill="#96643B" d="M11.004,6.642c0.022,0.926,0.271,2.857,1.071,4.517c0.037,0.006,0.071,0.021,0.108,0.025
		c1.159,0.116,2.22-0.993,2.369-2.477c0.123-1.225-0.418-2.311-1.26-2.723l-2.149,0.484C11.093,6.521,11.05,6.584,11.004,6.642z"/>
	<path fill="#FFFFFF" d="M12.628,6.76c-0.673-0.068-2.003-0.479-1.48,1.32c0.088,0.553,0.225,1.17,0.422,1.798
		c0.195,0.198,0.436,0.328,0.708,0.356c0.749,0.075,1.434-0.641,1.53-1.6C13.905,7.674,13.376,6.835,12.628,6.76z"/>
	<ellipse transform="matrix(0.1 -0.995 0.995 0.1 3.1139 20.5543)" fill="#2B3332" cx="12.918" cy="8.556" rx="0.5" ry="0.375"/>
	<path fill="#F5DEB9" d="M16,7.5c-1.313,0-1.75-0.812-2.875-0.562C11.699,7.254,10,8.003,10,6c0-1.75,2.5-3,4.562-3
		c0.628,0,0.25-3,1.438-3V7.5z"/>
	<path fill="#EACEA1" d="M16,7.5c-1.313,0-1.75-0.812-2.875-0.562C11.699,7.254,10,8.003,10,6c1.344-0.031,1.937-0.406,2.906-0.567
		C14.787,5.12,15.139,5.906,16,5.906V7.5z"/>
	<path fill="#F5DEB9" d="M9.984,24.919c0-0.446-0.29-0.816-0.688-0.956c-0.221-0.287-0.552-0.484-0.942-0.484
		c-0.422,0-0.775,0.229-0.991,0.557c-0.427,0.115-0.749,0.488-0.749,0.951c0,0.554,0.449,1.003,1.003,1.003
		c0.022,0,0.04-0.011,0.062-0.013c0.103,0.305,0.382,0.528,0.722,0.528c0.364,0,0.656-0.258,0.736-0.598
		C9.615,25.821,9.984,25.422,9.984,24.919z"/>
	<g>
		<path fill="#E2D4C3" d="M9.374,24.128c-0.003-0.065,0.001-0.125,0-0.19c-0.18,0.1-0.377,0.166-0.582,0.213L9.374,24.128z"/>
		<path fill="#E2D4C3" d="M7.376,24.206l0.604-0.024c-0.214-0.031-0.417-0.09-0.605-0.177C7.377,24.073,7.373,24.137,7.376,24.206z"
			/>
		<path fill="#96643B" d="M8.212,23.118c-0.292-0.023-0.562-0.107-0.808-0.231c-0.026,0.358-0.038,0.729-0.029,1.117
			c0.188,0.087,0.753,0.193,1.083,0.183c0.388-0.012,0.735-0.151,0.915-0.25c-0.008-0.375,0.005-0.731,0.036-1.071
			C9.053,23.055,8.644,23.153,8.212,23.118z"/>
	</g>
	<path fill="#96643B" d="M11.955,29.823c0.241,0.077,0.688,0.155,0.973,0.147c0.388-0.012,0.735-0.151,0.915-0.25
		c0-0.003,0-0.006,0-0.01c-0.063-0.264-0.1-0.616-0.115-1.006c-0.321,0.142-0.672,0.226-1.047,0.196
		c-0.289-0.023-0.556-0.106-0.8-0.228c0.039,0.399,0.097,0.74,0.182,0.953C12.105,29.73,12.06,29.79,11.955,29.823z"/>
	<path fill="#96643B" d="M8.429,21.192c-0.256-0.021-0.499-0.084-0.72-0.183c-0.086,0.328-0.155,0.673-0.21,1.032
		c0.255,0.132,0.539,0.217,0.843,0.241c0.423,0.034,0.825-0.06,1.177-0.239c0.085-0.445,0.202-0.858,0.345-1.243
		C9.459,21.083,8.96,21.235,8.429,21.192z"/>
	<path fill="#EFD4A7" d="M16,12h2c0,0,0.375,3.188,1.25,4.812c1.219,2.264,2.25,3.442,2.25,5.688c0,3.125-3.25,4.5-5.5,4.5V12z"/>
	<path fill="#EACEA1" d="M16,24.562c1.812,0,3.688-0.438,5.5-2.062c0,3.125-3.25,4.5-5.5,4.5V24.562z"/>
	<path fill="#EACEA1" d="M18.062,26.188c0.25,0.812,0.326,3.161,0,3.812c-0.812,1.625,1.5,2,2.938,2c1.471,0,2.938-1.438,2-2
		s-3.295,0.205-3.062-0.375C20.312,28.688,20.188,25.312,20,25S18.062,26.188,18.062,26.188z"/>
	<path fill="#845331" d="M16.455,13.908c1.181-0.078,2.148-0.827,2.583-1.846c0.162,0.371,0.254,0.779,0.254,1.21
		c0,1.677-1.042,3.011-3.292,3.011v-2.382C16.149,13.915,16.301,13.919,16.455,13.908z"/>
	<path fill="#845331" d="M20.604,6.157c1.598,0.943,4.162,3.512,4.176,6.002c0,0.081-0.069,0.152-0.15,0.159
		C20.828,12.632,18.312,10,18.312,10L20.604,6.157z"/>
	<path fill="#F5DEB9" d="M21,6.5c0,1.625-0.812,7.5-5,7.5V5.375L21,6.5z"/>
	<path fill="#845331" d="M20.996,6.642c-0.022,0.926-0.271,2.857-1.071,4.517c-0.037,0.006-0.071,0.021-0.108,0.025
		c-1.159,0.116-2.22-0.993-2.369-2.477c-0.123-1.225,0.418-2.311,1.26-2.723l2.149,0.484C20.907,6.521,20.95,6.584,20.996,6.642z"/>
	<path fill="#FFFFFF" d="M19.372,6.76c0.673-0.068,2.003-0.479,1.48,1.32c-0.088,0.553-0.225,1.17-0.422,1.798
		c-0.195,0.198-0.436,0.328-0.708,0.356c-0.749,0.075-1.434-0.641-1.53-1.6C18.095,7.674,18.624,6.835,19.372,6.76z"/>
	<path fill="#EFD4A7" d="M16,7.5c1.312,0,1.75-0.812,2.875-0.562C20.301,7.254,22,8.003,22,6c0-1.75-2.5-3-4.562-3
		C16.809,3,17.188,0,16,0V7.5z"/>
	<path fill="#E0C193" d="M16,7.5c1.312,0,1.75-0.812,2.875-0.562C20.301,7.254,22,8.003,22,6c-1.344-0.031-1.938-0.406-2.906-0.567
		C17.213,5.12,16.861,5.906,16,5.906V7.5z"/>
	<path fill="#845331" d="M20.045,29.823c-0.241,0.077-0.688,0.155-0.973,0.147c-0.388-0.012-0.735-0.151-0.915-0.25
		c0-0.003,0-0.006,0-0.01c0.063-0.264,0.1-0.616,0.115-1.006c0.321,0.142,0.672,0.226,1.047,0.196
		c0.289-0.023,0.556-0.106,0.8-0.228c-0.039,0.399-0.097,0.74-0.182,0.953C19.895,29.73,19.94,29.79,20.045,29.823z"/>
	<ellipse fill="#EACEA1" cx="27.806" cy="14.719" rx="0.712" ry="0.828"/>
	<ellipse fill="#EACEA1" cx="29.939" cy="15.538" rx="0.732" ry="0.762"/>
	<ellipse fill="#EACEA1" cx="29.722" cy="16.877" rx="0.732" ry="0.762"/>
	<path fill="#E0C193" d="M29.045,5.978c-0.093-0.062-0.22-0.052-0.302,0.024c-0.954,0.886-2.275,2.669-2.275,4.497
		c0,1.625,0.833,3,2.458,3c1.806,0,4.39-1.165,2.289-5.786c-0.044-0.096-0.194-0.052-0.195,0.054
		c-0.004,0.399,0.036,0.866-0.141,1.283C30.942,7.736,30.097,6.679,29.045,5.978z"/>
	<path fill="#48A353" d="M31.215,7.712c-0.044-0.096-0.194-0.052-0.195,0.054c-0.004,0.399,0.036,0.866-0.141,1.283
		c0.062-1.312-0.782-2.37-1.835-3.071c-0.093-0.062-0.22-0.052-0.302,0.024c-0.954,0.886-2.275,2.669-2.275,4.497
		c0,0.006,0.001,0.012,0.001,0.018l0.342,0.179l0.41-0.783l0.421,0.221L28.11,9.24l1.049,0.549l0.284-0.542l1.806,0.946l0.518-0.989
		C31.64,8.75,31.463,8.257,31.215,7.712z"/>
	<path fill="#845331" d="M26.566,16.488c0.039,0.434-0.098,0.833-0.335,1.159c0.416-0.098,0.842-0.228,1.279-0.393
		c0.118-0.263,0.18-0.556,0.152-0.864c-0.041-0.449-0.252-0.839-0.561-1.122c-0.308,0.129-0.609,0.235-0.905,0.322
		C26.395,15.841,26.535,16.143,26.566,16.488z"/>
	<path fill="#845331" d="M25.829,16.389c-0.021-0.237-0.09-0.459-0.195-0.657c-0.37,0.08-0.73,0.131-1.078,0.156
		c0.091,0.184,0.158,0.382,0.177,0.6c0.05,0.556-0.174,1.067-0.554,1.419c0.352-0.005,0.717-0.036,1.089-0.084
		C25.653,17.468,25.879,16.95,25.829,16.389z"/>
	<ellipse transform="matrix(0.995 -0.1 0.1 0.995 -0.7597 1.9502)" fill="#2B3332" cx="19.082" cy="8.556" rx="0.375" ry="0.5"/>
</g>
</svg>
