<?xml version="1.0" encoding="utf-8"?>
<!-- Generator: Adobe Illustrator 21.0.2, SVG Export Plug-In . SVG Version: 6.00 Build 0)  -->
<svg version="1.1" id="icons" xmlns="http://www.w3.org/2000/svg" xmlns:xlink="http://www.w3.org/1999/xlink" x="0px" y="0px"
	 width="32px" height="32px" viewBox="0 0 32 32" enable-background="new 0 0 32 32" xml:space="preserve">
<g>
	<polygon fill="#E5BDE5" points="12.009,21.051 10.671,20.472 12.553,16.278 13.871,16.859 	"/>
	<path fill="#E5BDE5" d="M9.667,20.875c-0.16,0.319-0.042,1.192,0.238,1.413c0.496,0.393,1.262,0.628,2.012,0.795
		c0.805,0,0.875-0.926,0.875-1.708s-0.653-1.417-1.458-1.417C10.648,19.958,10.045,20.121,9.667,20.875z"/>
	<path fill="#C8CCCB" d="M11.798,19.213c-0.165-0.07-0.302-0.174-0.437-0.278l-0.48,1.07c0.139,0.11,0.289,0.21,0.461,0.282
		c0.308,0.131,0.629,0.172,0.941,0.149l0.475-1.07C12.44,19.393,12.112,19.346,11.798,19.213z"/>
	<path fill="#DADDDC" d="M12.255,18.139c-0.158-0.067-0.287-0.167-0.417-0.266l-0.481,1.073c0.135,0.104,0.279,0.197,0.442,0.267
		c0.315,0.134,0.643,0.173,0.962,0.147l0.475-1.069C12.911,18.322,12.576,18.276,12.255,18.139z"/>
	<path fill="#E5BDE5" d="M15,9.893v1.443c-0.718,0.095-1.476,0.319-1.833,0.914c-0.25,0.417-0.208,1.083,0,1.5
		c-0.506,1.725-0.708,3.042-0.708,3.042l1.412,0.067l0.629-2.417v4.743H16V9.893H15z"/>
	<path fill="#B38658" d="M12.546,28.523c-1.21,0.097-2.902,0.608-2.87,1.858C9.708,31.631,11.731,32,12.692,32S15,31.791,15,30.445
		s-0.526-1.787-1.3-1.886C12.874,28.452,12.546,28.523,12.546,28.523z"/>
	<path fill="#E5BDE5" d="M13.654,29.592c-0.203,0.335-1.264,0.265-1.326-0.14c0.138-1.305,0.714-6.754,0.714-6.754l1.823,0.193
		l-0.927,4.849C13.938,27.74,13.897,29.191,13.654,29.592z"/>
	<path fill="#E5BDE5" d="M13.006,27.638l-0.636-1.044c-0.209-0.258-0.284-1.149,0.43-1.618c0.15-0.098,0.624-0.353,0.624-0.353
		c0.258-0.209,0.664-0.585,0.872-0.327c0,0-0.018,1.243,0.043,1.651c0.097,0.651,0,1.202-0.243,1.428
		c-0.302,0.282-0.419,0.794-0.419,0.794C13.421,28.379,13.215,27.896,13.006,27.638z"/>
	<path fill="#B38658" d="M16,18.296v4.576c-0.458,0-0.583,1.587-1.625,1.587c-2.5,0-2.983-1.897-2.792-3.382
		c0.208-1.618,1.646-3.348,3.188-3.348C15.484,17.729,15.828,17.88,16,18.296z"/>
	<path fill="#DADDDC" d="M16,16.5v1.208c-0.571,0-1.088-0.147-1.5-0.381v-1.22C14.911,16.346,15.424,16.5,16,16.5z"/>
	<path fill="#C8CCCB" d="M16,17.708c-0.576,0-1.089-0.154-1.5-0.393c0,0-0.019,0.243-0.202,0.374
		c-0.166,0.119-0.266,0.151-0.482,0.253c0.161,0.229,0.406,0.432,0.684,0.592v0.001c0.001,0,0.001,0,0.002,0.001
		c0.003,0.002,0.005,0.004,0.008,0.005v-0.002c0.41,0.232,0.923,0.378,1.49,0.378V17.708z"/>
	<polygon fill="#E0ABDF" points="19.991,21.051 21.329,20.472 19.447,16.278 18.129,16.859 	"/>
	<path fill="#E0ABDF" d="M22.333,20.875c0.16,0.319,0.042,1.192-0.238,1.413c-0.496,0.393-1.262,0.628-2.012,0.795
		c-0.805,0-0.875-0.926-0.875-1.708s0.653-1.417,1.458-1.417C21.352,19.958,21.955,20.121,22.333,20.875z"/>
	<path fill="#ABB2B1" d="M20.202,19.213c0.165-0.07,0.302-0.174,0.437-0.278l0.48,1.07c-0.139,0.11-0.289,0.21-0.461,0.282
		c-0.308,0.131-0.629,0.172-0.941,0.149l-0.475-1.07C19.56,19.393,19.888,19.346,20.202,19.213z"/>
	<path fill="#C8CCCB" d="M19.745,18.139c0.158-0.067,0.287-0.167,0.417-0.266l0.481,1.073c-0.135,0.104-0.279,0.197-0.442,0.267
		c-0.315,0.134-0.643,0.173-0.962,0.147l-0.475-1.069C19.089,18.322,19.424,18.276,19.745,18.139z"/>
	<path fill="#E0ABDF" d="M19.542,16.792c0,0-0.203-1.316-0.708-3.042c0.208-0.417,0.25-1.083,0-1.5
		c-0.357-0.595-1.116-0.82-1.833-0.914V9.893h-1v9.292h1.5v-4.743l0.629,2.417L19.542,16.792z"/>
	<path fill="#A7794C" d="M19.454,28.523c1.21,0.097,2.902,0.608,2.87,1.858C22.292,31.631,20.269,32,19.308,32S17,31.791,17,30.445
		s0.526-1.787,1.3-1.886C19.126,28.452,19.454,28.523,19.454,28.523z"/>
	<path fill="#E0ABDF" d="M18.346,29.592c0.203,0.335,1.264,0.265,1.326-0.14c-0.138-1.305-0.714-6.754-0.714-6.754l-1.823,0.193
		l0.927,4.849C18.062,27.74,18.103,29.191,18.346,29.592z"/>
	<path fill="#E0ABDF" d="M18.994,27.638l0.636-1.044c0.209-0.258,0.284-1.149-0.43-1.618c-0.15-0.098-0.624-0.353-0.624-0.353
		c-0.258-0.209-0.664-0.585-0.872-0.327c0,0,0.018,1.243-0.043,1.651c-0.097,0.651,0,1.202,0.243,1.428
		c0.302,0.282,0.419,0.794,0.419,0.794C18.579,28.379,18.785,27.896,18.994,27.638z"/>
	<g>
		<path fill="#EBCEEB" d="M16,2.053v8.786c-2.83,0-5.125-1.967-5.125-4.393S13.17,2.053,16,2.053z"/>
		<g>
			<g>
				<path fill="#FFFFFF" d="M14.715,5.759L12.69,5.122c-0.222,0.22-0.357,0.832-0.357,1.4c0,0.564,0.135,0.918,0.351,1.345
					l1.804-0.216c0.227-0.303,0.369-0.706,0.369-1.153C14.857,6.232,14.803,5.983,14.715,5.759z"/>
			</g>
			<g>
				<path fill="#FFFFFD" d="M14.715,5.759L12.69,5.122c-0.222,0.22-0.357,0.832-0.357,1.4c0,0.564,0.135,0.918,0.351,1.345
					l1.804-0.216c0.227-0.303,0.369-0.706,0.369-1.153C14.857,6.232,14.803,5.983,14.715,5.759z"/>
			</g>
		</g>
		<path fill="#B38658" d="M13.107,6.43c0,0.686,0.223,1.231,0.509,1.325l0.218-0.026c0.258-0.146,0.453-0.659,0.453-1.299
			c0-0.327-0.056-0.615-0.14-0.85l-0.782-0.246C13.213,5.581,13.107,5.969,13.107,6.43z"/>
		<ellipse fill="#2B3332" cx="13.825" cy="6.32" rx="0.239" ry="0.554"/>
		<path fill="#E5BDE5" d="M11.472,8.463c0.189-0.526,0.306-1.129,0.306-1.782c0-0.776-0.158-1.489-0.419-2.075
			c-0.304,0.561-0.485,1.18-0.485,1.84C10.875,7.177,11.103,7.857,11.472,8.463z"/>
		<path fill="#E5BDE5" d="M16,0c0,0-0.344,0-0.561,0.217c-0.182,0.182-0.494,1.995-0.589,2.574c-0.018,0.112,0.025,0.22,0.113,0.292
			c0,0,0.613,0.828,1.037,0.828V0z"/>
		<path fill="#E5BDE5" d="M21.125,6.446c0,2.426-2.295,4.393-5.125,4.393V2.053C18.83,2.053,21.125,4.02,21.125,6.446z"/>
		<g>
			<g>
				<path fill="#FFFFFF" d="M17.285,5.759l2.025-0.636c0.222,0.22,0.357,0.832,0.357,1.4c0,0.564-0.135,0.918-0.351,1.345
					l-1.804-0.216c-0.227-0.303-0.369-0.706-0.369-1.153C17.143,6.232,17.197,5.983,17.285,5.759z"/>
			</g>
			<g>
				<path fill="#FFFFFD" d="M17.285,5.759l2.025-0.636c0.222,0.22,0.357,0.832,0.357,1.4c0,0.564-0.135,0.918-0.351,1.345
					l-1.804-0.216c-0.227-0.303-0.369-0.706-0.369-1.153C17.143,6.232,17.197,5.983,17.285,5.759z"/>
			</g>
		</g>
		<path fill="#B38658" d="M18.893,6.43c0,0.686-0.223,1.231-0.509,1.325l-0.218-0.026c-0.258-0.146-0.453-0.659-0.453-1.299
			c0-0.327,0.056-0.615,0.14-0.85l0.782-0.246C18.787,5.581,18.893,5.969,18.893,6.43z"/>
		<ellipse fill="#2B3332" cx="18.175" cy="6.32" rx="0.239" ry="0.554"/>
		<path fill="#E0ABDF" d="M20.528,8.463c-0.189-0.526-0.306-1.129-0.306-1.782c0-0.776,0.158-1.489,0.419-2.075
			c0.304,0.561,0.485,1.18,0.485,1.84C21.125,7.177,20.897,7.857,20.528,8.463z"/>
		<path fill="#E0ABDF" d="M16,0c0,0,0.344,0,0.561,0.217c0.182,0.182,0.494,1.995,0.589,2.574c0.018,0.112-0.025,0.22-0.113,0.292
			c0,0-0.688,0.828-1.037,0.828V0z"/>
		<g>
			<path fill="#2B3332" d="M15.982,9.705c-0.479,0-0.952-0.094-1.173-0.28c-0.108-0.092-0.122-0.253-0.031-0.361
				c0.092-0.108,0.254-0.12,0.361-0.031c0.234,0.197,1.398,0.225,1.738-0.013c0.116-0.082,0.275-0.054,0.357,0.062
				c0.082,0.116,0.054,0.275-0.063,0.356C16.919,9.615,16.447,9.705,15.982,9.705z"/>
		</g>
	</g>
	<path fill="#A7794C" d="M17.229,17.729c1.542,0,2.979,1.729,3.188,3.348c0.191,1.485-0.292,3.382-2.792,3.382
		c-1.042,0-1.167-1.587-1.625-1.587v-4.576C16.172,17.88,16.516,17.729,17.229,17.729z"/>
	<path fill="#C8CCCB" d="M17.5,16.107v1.22c-0.412,0.235-0.929,0.381-1.5,0.381V16.5C16.576,16.5,17.089,16.346,17.5,16.107z"/>
	<path fill="#ABB2B1" d="M16,17.708c0.576,0,1.089-0.154,1.5-0.393c0,0,0.019,0.243,0.202,0.374
		c0.166,0.119,0.266,0.151,0.482,0.253c-0.161,0.229-0.406,0.432-0.684,0.592v0.001c-0.001,0-0.001,0-0.002,0.001
		c-0.003,0.002-0.005,0.004-0.008,0.005v-0.002c-0.41,0.232-0.923,0.378-1.49,0.378V17.708z"/>
</g>
</svg>
