<?xml version="1.0" encoding="utf-8"?>
<!-- Generator: Adobe Illustrator 21.0.2, SVG Export Plug-In . SVG Version: 6.00 Build 0)  -->
<svg version="1.1" id="icons" xmlns="http://www.w3.org/2000/svg" xmlns:xlink="http://www.w3.org/1999/xlink" x="0px" y="0px"
	 width="32px" height="32px" viewBox="0 0 32 32" enable-background="new 0 0 32 32" xml:space="preserve">
<g>
	<path fill="#FAB8CD" d="M11.949,30c0,0-4.549,3.206-6.375,1.5c-2.705-2.527,9.25-5.875,9.25-5.875L11.949,30z"/>
	
		<ellipse transform="matrix(0.9991 -0.0426 0.0426 0.9991 -0.9643 0.2976)" fill="#FDEBBB" cx="6.496" cy="22.757" rx="5" ry="1.851"/>
	<path fill="#FDEBBB" d="M11.156,22.726c0.297,0.976-1.597,2.459-4.23,3.313s-5.009,0.755-5.306-0.221
		c-0.297-0.976,1.597-2.459,4.23-3.313S10.859,21.751,11.156,22.726z"/>
	
		<ellipse transform="matrix(0.9991 -0.0426 0.0426 0.9991 -0.8601 0.3114)" fill="#FDEBBB" cx="6.871" cy="20.319" rx="5" ry="1.851"/>
	<circle fill="#FAC4D1" cx="6" cy="6.875" r="3"/>
	<circle fill="#FBCFD6" cx="9.062" cy="4" r="4"/>
	<circle fill="#FDE2E6" cx="9" cy="4.562" r="2.938"/>
	<path fill="#FBCFD6" d="M11.734,1.439C13,0.335,14.934,0.085,16,0.085v30.75c-7.25,0-12.5-4.57-12.5-11.75
		C3.5,14.71,7.747,4.918,11.734,1.439z"/>
	<g>
		<g>
			<path fill="#FDEBBB" d="M3.5,19.085c0,7.18,5.25,11.75,12.5,11.75v-9.25C12.083,21.585,5.125,19.919,3.5,19.085z"/>
		</g>
		<g>
			<path fill="#FCEABA" d="M3.5,19.085c0,7.18,5.25,11.75,12.5,11.75v-9.25C12.083,21.585,5.125,19.919,3.5,19.085z"/>
		</g>
	</g>
	<path fill="#FFF3D9" d="M16,16.044v9.5c-2.462,0-4.245-1.897-4.245-4.335C11.755,18.835,14.068,16.044,16,16.044z"/>
	<path fill="#FAB8CD" d="M11.227,20.91c1.315,0.462,2.62,0.661,4.773,0.661v4.349c-2.813,0-4.87-2.111-4.974-4.864
		C11.022,20.951,11.129,20.875,11.227,20.91z"/>
	<circle fill="#FDE2E6" cx="8.469" cy="5.297" r="2"/>
	<circle fill="#FAB8CD" cx="26" cy="6.875" r="3"/>
	<circle fill="#FAC4D1" cx="22.938" cy="4" r="4"/>
	<circle fill="#FCD8DE" cx="23" cy="4.562" r="2.938"/>
	<path fill="#FFF3D9" d="M10.044,16.134c0.371-0.916-1.118-2.7-3.431-4.064c-2.385-1.406-4.725-1.826-5.227-0.938
		c-0.226,0.4-0.024,1.001,0.466,1.665c-0.796,0.121-1.348,0.399-1.466,0.839s0.221,0.957,0.85,1.46
		C0.48,15.426,0.004,15.845,0,16.305c-0.009,1.02,2.228,1.826,4.996,1.801c2.686-0.025,4.867-0.825,5.004-1.804
		c0.011-0.027,0.037-0.049,0.045-0.077S10.04,16.164,10.044,16.134z"/>
	<path fill="#FAB8CD" d="M12.259,16.701c-0.208,0.775-1.725,1.042-3.091,0.676c-1.366-0.366-1.235-1.005-1.028-1.78
		c0.208-0.775,0.414-1.393,1.78-1.028C11.287,14.937,12.467,15.926,12.259,16.701z"/>
	<g>
		<ellipse fill="#373F3F" cx="13.594" cy="5.719" rx="0.75" ry="1.5"/>
		<ellipse fill="#FFFFFF" cx="13.594" cy="5.281" rx="0.375" ry="0.625"/>
	</g>
	<path fill="#F9ADC8" d="M20.051,30c0,0,4.549,3.206,6.375,1.5c2.705-2.527-9.25-5.875-9.25-5.875L20.051,30z"/>
	
		<ellipse transform="matrix(0.0426 -0.9991 0.9991 0.0426 1.6803 47.2675)" fill="#FAE09F" cx="25.504" cy="22.757" rx="1.851" ry="5"/>
	<path fill="#FAE09F" d="M20.844,22.726c-0.297,0.976,1.597,2.459,4.23,3.313s5.009,0.755,5.306-0.221
		c0.297-0.976-1.597-2.459-4.23-3.313S21.141,21.751,20.844,22.726z"/>
	
		<ellipse transform="matrix(0.0426 -0.9991 0.9991 0.0426 3.7566 44.5592)" fill="#FAE09F" cx="25.129" cy="20.319" rx="1.851" ry="5"/>
	<path fill="#FAC4D1" d="M28.5,19.085c0,7.18-5.25,11.75-12.5,11.75V0.085c1.066,0,3,0.25,4.266,1.354
		C24.253,4.918,28.5,14.71,28.5,19.085z"/>
	<g>
		<g>
			<path fill="#FAE09F" d="M28.5,19.085c0,7.18-5.25,11.75-12.5,11.75v-9.25C19.917,21.585,26.875,19.919,28.5,19.085z"/>
		</g>
		<g>
			<path fill="#FBE4A2" d="M28.5,19.085c0,7.18-5.25,11.75-12.5,11.75v-9.25C19.917,21.585,26.875,19.919,28.5,19.085z"/>
		</g>
	</g>
	<path fill="#FDEBBB" d="M20.245,21.209c0,2.438-1.783,4.335-4.245,4.335v-9.5C17.932,16.044,20.245,18.835,20.245,21.209z"/>
	<path fill="#F9ADC8" d="M20.974,21.055c-0.104,2.753-2.161,4.864-4.974,4.864V21.57c2.153,0,3.458-0.199,4.773-0.661
		C20.871,20.875,20.978,20.951,20.974,21.055z"/>
	<path fill="#FDEBBB" d="M30.764,15.096c0.629-0.502,0.968-1.02,0.85-1.46s-0.671-0.718-1.466-0.839
		c0.49-0.664,0.692-1.265,0.466-1.665c-0.502-0.888-2.842-0.468-5.227,0.938c-2.314,1.364-3.802,3.148-3.431,4.064
		c0.004,0.029-0.008,0.061,0,0.09s0.034,0.05,0.045,0.077c0.137,0.979,2.318,1.779,5.004,1.804c2.768,0.025,5.005-0.781,4.996-1.801
		C31.996,15.845,31.52,15.426,30.764,15.096z"/>
	<path fill="#F9ADC8" d="M19.741,16.701c0.208,0.775,1.725,1.042,3.091,0.676c1.366-0.366,1.235-1.005,1.028-1.78
		s-0.414-1.393-1.78-1.028C20.713,14.937,19.533,15.926,19.741,16.701z"/>
	<g>
		<ellipse fill="#2B3332" cx="18.406" cy="5.719" rx="0.75" ry="1.5"/>
		<ellipse fill="#F7F7F7" cx="18.406" cy="5.281" rx="0.375" ry="0.625"/>
	</g>
	<circle fill="#FCD8DE" cx="23.531" cy="5.297" r="2"/>
	<path fill="#D74459" d="M14.32,8.5c-0.154,0-0.273,0.137-0.247,0.29c0.05,0.297,0.552,1.957,1.927,1.957V8.5H14.32z"/>
	<path fill="#E7685F" d="M14.48,9.776c0.3,0.49,0.781,0.97,1.52,0.97V9.439C15.542,9.443,14.974,9.571,14.48,9.776z"/>
	<path fill="#C84054" d="M17.68,8.5c0.154,0,0.273,0.137,0.247,0.29c-0.05,0.297-0.552,1.957-1.927,1.957V8.5H17.68z"/>
	<path fill="#E55D53" d="M17.52,9.776c-0.3,0.49-0.781,0.97-1.52,0.97V9.439C16.458,9.443,17.026,9.571,17.52,9.776z"/>
</g>
</svg>
