<?xml version="1.0" encoding="utf-8"?>
<!-- Generator: Adobe Illustrator 21.0.2, SVG Export Plug-In . SVG Version: 6.00 Build 0)  -->
<svg version="1.1" id="icons" xmlns="http://www.w3.org/2000/svg" xmlns:xlink="http://www.w3.org/1999/xlink" x="0px" y="0px"
	 width="32px" height="32px" viewBox="0 0 32 32" enable-background="new 0 0 32 32" xml:space="preserve">
<g>
	<path fill="#926B98" d="M16,5.5c-0.792-1.583-3.042-3-5.333,0.458C8.944,8.558,9.75,10.292,9.5,11.75
		c-0.177,1.031-1.083,1.625-1.125,2.958c-0.072,2.316-0.605,3.574-1.651,2.672c-0.217-0.187-0.538-0.009-0.47,0.27
		c0.237,0.969,0.798,2.191,2.121,2.142c2.208-0.083,3.5-1.875,3.625-3.625c0.059-0.823,4-6.898,4-6.898V5.5z"/>
	<path fill="#9B78A1" d="M16,2.958c-1.25,0-2.958,1.296-4.708,4.375c-1.208,2.125-0.25,4-1.167,5.917S9.753,16.698,9.5,17.583
		c-0.333,1.167-2.667,1.625-3.25,0.083c0,0-0.015,2.624,2.167,2.542c2.208-0.083,3.5-1.875,3.625-3.625
		C12.1,15.76,16,9.685,16,9.685V2.958z"/>
	<path fill="#79C6C1" d="M11.644,12.516c0,5.112-4.494,8.646-2.409,13.413c0.239,0.547,0.442,1.014,0.625,1.427
		c-0.774,0.228-1.343,0.935-1.343,1.783c0,1.031,0.836,1.867,1.867,1.867c0.757,0,1.406-0.453,1.699-1.1
		c1.166-0.28,1.791-0.405,3.916-0.94V12.516H11.644z"/>
	<path fill="#8FCEC9" d="M14.741,29.8c0,0,0.384-9.728,1.259-9.728V9.6l-2.563-0.538c0,0-2.937,4.5-2.781,7.656
		c0.246,4.971,0.903,10.676,1.058,12.561c-0.639,0.257-1.071,0.719-1.071,1.253c0,0.81,0.985,1.467,2.201,1.467
		c1.216,0,2.201-0.657,2.201-1.467C15.045,30.264,14.929,30.016,14.741,29.8z"/>
	<path fill="#DADDDC" d="M14.292,10.917c-0.375,0.5-1.354,3.479-1.479,4.688s2.75,3.333,3.188,4.583v-8.979
		C16,11.208,14.345,10.846,14.292,10.917z"/>
	<path fill="#8FCEC9" d="M11.68,7.221c-0.571,1.571-0.273,2.438,0.62,3.318c0.346,0.341,0.782,0.684,1.291,1.071
		c0.885,0.673,0.673,1.363,2.073,1.903c0.111,0.043,0.22,0.05,0.335,0.048V3.788c-1.98,0-2.888,0.546-3.555,1.686
		C12.166,5.951,11.931,6.532,11.68,7.221z"/>
	<path fill="#FFFFFF" d="M13.437,6.375c-0.873,1.062-0.725,1.834-0.725,1.834s1.009,0.684,2.519,1.156l-0.169-2.802
		C15.062,6.562,13.823,5.907,13.437,6.375z"/>
	<ellipse fill="#A0422C" cx="14.031" cy="7.938" rx="0.688" ry="1.154"/>
	<path fill="#45A396" d="M16,0c-0.229,0-1.563,2.303-2.366,3.409c-0.239,0.329-0.302,0.748-0.168,1.132
		c0.617,1.769,1.772,5.013,1.772,5.013c0.307,0,0.384,0,0.762,0V0L16,0z"/>
	<path fill="#FFFFFF" d="M16,8.799c-0.361-1.017-1.072-3.084-1.526-4.388c-0.08-0.229-0.043-0.475,0.101-0.673
		C14.969,3.193,15.513,2.324,16,1.616V8.799z"/>
	<path fill="#9B78A1" d="M16,3.396c0,0-1.604-0.109-1.604,0.729C14.396,4.689,16,5.656,16,5.656V3.396z"/>
	<path fill="#926B98" d="M14.412,3.973c-0.029,0.13-0.019,0.272,0.027,0.403c0.454,1.304,1.2,3.406,1.562,4.423V5.25
		C15.796,5.25,15.451,3.973,14.412,3.973z"/>
	<ellipse fill="#1D1D1B" cx="14.031" cy="7.969" rx="0.203" ry="0.469"/>
	<path fill="#45A396" d="M16,9.667c0,0-0.448-1.324-1.093-1.671c-1.22-0.657-3.143-1.931-4.061-2.361
		c-0.757-0.354-0.399-1.566,0.404-1.177C12.625,5.125,16,7.036,16,7.036V9.667z"/>
	<path fill="#F7F7F7" d="M11.547,7.626c-0.381,1.321-0.061,2.112,0.753,2.913c0.346,0.341,0.782,0.684,1.291,1.071
		c0.885,0.673,0.673,1.363,2.073,1.903c0.111,0.043,0.23,0.05,0.346,0.048L16,9.375l-0.833-0.042
		c-1.002-0.378-2.458-1.125-2.458-1.125C11.958,7.833,11.585,7.497,11.547,7.626z"/>
	<path fill="#926B98" d="M16.01,5.5c0.792-1.583,3.042-3,5.333,0.458c1.723,2.6,0.917,4.333,1.167,5.792
		c0.177,1.031,1.083,1.625,1.125,2.958c0.072,2.316,0.605,3.574,1.651,2.672c0.217-0.187,0.538-0.009,0.47,0.27
		c-0.237,0.969-0.798,2.191-2.121,2.142c-2.208-0.083-3.5-1.875-3.625-3.625c-0.059-0.823-4-6.898-4-6.898V5.5z"/>
	<path fill="#9B78A1" d="M16.01,2.958c1.25,0,2.958,1.296,4.708,4.375c1.208,2.125,0.25,4,1.167,5.917
		c0.917,1.917,0.372,3.448,0.625,4.333c0.333,1.167,2.667,1.625,3.25,0.083c0,0,0.015,2.624-2.167,2.542
		c-2.208-0.083-3.5-1.875-3.625-3.625C19.91,15.76,16.01,9.685,16.01,9.685V2.958z"/>
	<path fill="#60C4BC" d="M20.366,12.516c0,5.112,4.494,8.646,2.409,13.413c-0.239,0.547-0.442,1.014-0.625,1.427
		c0.774,0.228,1.343,0.935,1.343,1.783c0,1.031-0.836,1.867-1.867,1.867c-0.757,0-1.406-0.453-1.699-1.1
		c-1.166-0.28-1.791-0.405-3.916-0.94V12.516H20.366z"/>
	<path fill="#79C6C1" d="M17.27,29.8c0,0-0.384-9.728-1.259-9.728V9.6l2.563-0.538c0,0,2.937,4.5,2.781,7.656
		c-0.246,4.971-0.903,10.676-1.058,12.561c0.639,0.257,1.071,0.719,1.071,1.253c0,0.81-0.985,1.467-2.201,1.467
		c-1.216,0-2.201-0.657-2.201-1.467C16.965,30.264,17.081,30.016,17.27,29.8z"/>
	<path fill="#D1D4D4" d="M17.719,10.917c0.375,0.5,1.354,3.479,1.479,4.688s-2.75,3.333-3.188,4.583v-8.979
		C16.01,11.208,17.665,10.846,17.719,10.917z"/>
	<path fill="#79C6C1" d="M20.33,7.221c0.571,1.571,0.273,2.438-0.62,3.318c-0.346,0.341-0.782,0.684-1.291,1.071
		c-0.885,0.673-0.673,1.363-2.073,1.903c-0.111,0.043-0.22,0.05-0.335,0.048V3.788c1.98,0,2.888,0.546,3.555,1.686
		C19.845,5.951,20.08,6.532,20.33,7.221z"/>
	<path fill="#FFFFFF" d="M18.573,6.375c0.873,1.062,0.725,1.834,0.725,1.834s-1.009,0.684-2.519,1.156l0.169-2.802
		C16.948,6.562,18.188,5.907,18.573,6.375z"/>
	<ellipse fill="#A0422C" cx="17.979" cy="7.938" rx="0.688" ry="1.154"/>
	<path fill="#3A9384" d="M16.01,0v9.554c0.378,0,0.455,0,0.762,0c0,0,1.155-3.244,1.772-5.013c0.134-0.384,0.071-0.803-0.168-1.132
		C17.574,2.303,16.239,0,16.01,0L16.01,0z"/>
	<path fill="#FFFFFF" d="M16.01,8.799c0.361-1.017,1.072-3.084,1.526-4.388c0.08-0.229,0.043-0.475-0.101-0.673
		c-0.395-0.545-0.938-1.414-1.426-2.122V8.799z"/>
	<path fill="#9B78A1" d="M16.01,3.396c0,0,1.604-0.109,1.604,0.729c0,0.564-1.604,1.531-1.604,1.531V3.396z"/>
	<path fill="#926B98" d="M17.598,3.973c0.029,0.13,0.019,0.272-0.027,0.403c-0.454,1.304-1.2,3.406-1.562,4.423V5.25
		C16.214,5.25,16.559,3.973,17.598,3.973z"/>
	<ellipse fill="#1D1D1B" cx="17.979" cy="7.969" rx="0.203" ry="0.469"/>
	<path fill="#3A9384" d="M16.01,9.667c0,0,0.448-1.324,1.093-1.671c1.22-0.657,3.143-1.931,4.061-2.361
		c0.757-0.354,0.399-1.566-0.404-1.177c-1.375,0.667-4.75,2.578-4.75,2.578V9.667z"/>
	<path fill="#EDEEEE" d="M20.463,7.626c0.381,1.321,0.061,2.112-0.753,2.913c-0.346,0.341-0.782,0.684-1.291,1.071
		c-0.885,0.673-0.673,1.363-2.073,1.903c-0.111,0.043-0.23,0.05-0.346,0.048l0.01-4.187l0.833-0.042
		c1.002-0.378,2.458-1.125,2.458-1.125C20.052,7.833,20.425,7.497,20.463,7.626z"/>
</g>
</svg>
