<?xml version="1.0" encoding="utf-8"?>
<!-- Generator: Adobe Illustrator 21.0.2, SVG Export Plug-In . SVG Version: 6.00 Build 0)  -->
<svg version="1.1" id="icons" xmlns="http://www.w3.org/2000/svg" xmlns:xlink="http://www.w3.org/1999/xlink" x="0px" y="0px"
	 width="32px" height="32px" viewBox="0 0 32 32" enable-background="new 0 0 32 32" xml:space="preserve">
<g>
	<path fill="#90A74E" d="M28.731,26.557l-9.396-1.587c-0.845-0.143-1.392-0.835-1.222-1.546l0.319-1.337
		c0.17-0.711,0.992-1.172,1.836-1.029l9.396,1.587c0.845,0.143,1.392,0.835,1.222,1.546l-0.319,1.337
		C30.397,26.239,29.575,26.7,28.731,26.557z"/>
	<path fill="#90A74E" d="M30.827,21.919l-9.256,2.089c-0.832,0.188-1.688-0.228-1.911-0.928l-0.42-1.318
		c-0.223-0.7,0.271-1.42,1.103-1.608l9.256-2.089c0.832-0.188,1.553-0.141,1.776,0.559l0.554,1.686
		C32.152,21.012,31.659,21.732,30.827,21.919z"/>
	<path fill="#90A74E" d="M28.475,17.91l-6.946,6.465c-0.624,0.581-1.573,0.653-2.118,0.16l-1.026-0.927
		c-0.545-0.493-0.481-1.363,0.143-1.945l6.946-6.465c0.624-0.581,1.573-0.653,2.118-0.16l1.026,0.927
		C29.163,16.458,29.099,17.329,28.475,17.91z"/>
	<path fill="#A8B875" d="M11.181,21.592l-3.856,0.551C5.296,22.432,3.5,24.377,3.5,26.431c0,0.984,0.299,1.965,1.072,2.737
		l0.591,0.615c-0.95,0.297-1.58,0.78-1.58,1.217c0,1.208,1.567,1,3.5,1c1.933,0,3.5,0.167,3.5-1.25c0-0.24-0.199-0.462-0.527-0.652
		l0.875-0.929L11.181,21.592z"/>
	<path fill="#B4C187" d="M9.062,14.062c0.006,0.513-0.012,0.962-0.039,1.384C6.546,16.322,2.5,18.873,2.5,21.328
		c0,1.949,2.728,0.134,5.155-1.012C7.292,21.224,7,22.265,7,24c0,5,3.5,7,9,7V4.688C12.188,4.688,9.01,9.293,9.062,14.062z"/>
	<path fill="#C0C998" d="M16,4.688c-3.813,0-6.99,4.605-6.938,9.375c0.006,0.531-0.008,1.009-0.037,1.443
		c0.85,1.932,4.037,3.682,6.975,3.682V4.688z"/>
	<path fill="#F7F7F7" d="M3.583,31c0,0.744,0.597,0.949,1.505,0.999c0.04-0.159,0.068-0.324,0.068-0.499
		c0-0.606-0.258-1.139-0.651-1.453C3.938,30.327,3.583,30.676,3.583,31z"/>
	<path fill="#CDD4AD" d="M16,10c-0.542,0-2-0.458-2-1.042C14,8.375,15.125,0,16,0V10z"/>
	<path fill="#373F3F" d="M12.333,11.438c0.344-1.312-2.5-2.781-3.406-2.375C9.051,9.656,12.123,12.237,12.333,11.438z"/>
	<path fill="#373F3F" d="M11.114,12.562c0,0-1.163-0.042-1.344,0.125c-0.344,1.062,0.344,3.406,0.719,3.375
		C10.926,16.026,11.114,12.562,11.114,12.562z"/>
	<path fill="#7D3119" d="M12.17,28.511c0.605,0.887,1.329,1.781,2.08,2.41C14.809,30.971,15.39,31,16,31v-1.623
		c-0.01,0-0.02,0.001-0.03,0.001C14.497,29.378,13.162,29.059,12.17,28.511z"/>
	<path fill="#923D27" d="M16,21.742v-1.705c-0.504,0-1.356,0.75-2.239,1.705c-0.487,0.527-0.982,1.113-1.435,1.675
		c0.867,0.698,2.226,1.157,3.674,1.157V21.742z"/>
	<path fill="#843822" d="M12.326,23.418c-0.465,0.577-0.884,1.126-1.199,1.546c-0.235,0.314-0.322,0.695-0.286,1.069
		c0.02,0.21,0.068,0.418,0.175,0.61c0.285,0.507,0.684,1.179,1.153,1.868c0.992,0.548,2.327,0.867,3.801,0.867
		c0.01,0,0.02-0.001,0.03-0.001v-3.454v-1.349C14.552,24.574,13.193,24.116,12.326,23.418z"/>
	<path fill="#373F3F" d="M9.796,23.387L8.47,21.748c-0.187-0.231-0.182-0.563,0.013-0.787l1.326-1.534
		c0.245-0.283,0.684-0.283,0.929,0l1.326,1.534c0.194,0.225,0.2,0.556,0.013,0.787l-1.326,1.638
		C10.504,23.69,10.042,23.69,9.796,23.387z"/>
	<path fill="#9EB164" d="M26.837,29.783l0.591-0.615c0.772-0.772,1.072-1.753,1.072-2.737c0-2.054-1.796-3.999-3.825-4.289
		l-3.856-0.551l0.25,7.577l0.875,0.929c-0.328,0.19-0.527,0.412-0.527,0.652c0,1.417,1.567,1.25,3.5,1.25c1.933,0,3.5,0.208,3.5-1
		C28.417,30.563,27.787,30.08,26.837,29.783z"/>
	<path fill="#A8B875" d="M22.977,15.447c-0.027-0.422-0.045-0.871-0.039-1.384C22.99,9.293,19.812,4.688,16,4.688V31c5.5,0,9-2,9-7
		c0-1.735-0.292-2.776-0.655-3.684c2.427,1.147,5.155,2.962,5.155,1.012C29.5,18.873,25.454,16.322,22.977,15.447z"/>
	<path fill="#B4C187" d="M16,4.688c3.812,0,6.99,4.605,6.938,9.375c-0.006,0.531,0.008,1.009,0.037,1.443
		c-0.85,1.932-4.037,3.682-6.975,3.682V4.688z"/>
	<path fill="#EDEEEE" d="M28.417,31c0,0.744-0.597,0.949-1.505,0.999c-0.04-0.159-0.068-0.324-0.068-0.499
		c0-0.606,0.258-1.139,0.651-1.453C28.062,30.327,28.417,30.676,28.417,31z"/>
	<path fill="#C0C998" d="M16,0c0.875,0,2,8.375,2,8.958C18,9.542,16.542,10,16,10V0z"/>
	<path fill="#76260D" d="M19.83,28.511c-0.605,0.887-1.329,1.781-2.08,2.41C17.191,30.971,16.61,31,16,31v-1.623
		c0.01,0,0.02,0.001,0.03,0.001C17.503,29.378,18.838,29.059,19.83,28.511z"/>
	<path fill="#843822" d="M16,21.742v-1.705c0.504,0,1.356,0.75,2.239,1.705c0.487,0.527,0.982,1.113,1.435,1.675
		c-0.867,0.698-2.226,1.157-3.674,1.157V21.742z"/>
	<path fill="#7D3119" d="M19.674,23.418c0.465,0.577,0.884,1.126,1.199,1.546c0.235,0.314,0.322,0.695,0.286,1.069
		c-0.02,0.21-0.068,0.418-0.175,0.61c-0.285,0.507-0.684,1.179-1.153,1.868c-0.992,0.548-2.327,0.867-3.801,0.867
		c-0.01,0-0.02-0.001-0.03-0.001v-3.454v-1.349C17.448,24.574,18.807,24.116,19.674,23.418z"/>
	<path fill="#2B3332" d="M22.204,23.387l1.326-1.638c0.187-0.231,0.182-0.563-0.013-0.787l-1.326-1.534
		c-0.245-0.283-0.684-0.283-0.929,0l-1.326,1.534c-0.194,0.225-0.2,0.556-0.013,0.787l1.326,1.638
		C21.496,23.69,21.958,23.69,22.204,23.387z"/>
	<path fill="#F7F7F7" d="M10.147,9.159c-0.656,1.37-1.047,2.939-1.084,4.542c1.012-0.311,3.012-0.58,3.912-0.652
		c0.147-0.012,0.248-0.148,0.22-0.293C13.038,11.961,12.381,9.711,10.147,9.159z"/>
	<path fill="#843822" d="M12.349,10.731c0.058,0.271,0.093,0.572,0.093,0.894c0,0.6-0.114,1.135-0.293,1.509
		c-0.343,0.042-0.726,0.094-1.113,0.155c-0.226-0.371-0.375-0.976-0.375-1.664c0-0.919,0.265-1.687,0.628-1.946
		C11.732,9.976,12.082,10.341,12.349,10.731z"/>
	<ellipse fill="#373F3F" cx="11.52" cy="11.719" rx="0.297" ry="0.75"/>
	<g>
		<path fill="#2B3332" d="M19.667,11.438c-0.344-1.312,2.5-2.781,3.406-2.375C22.949,9.656,19.877,12.237,19.667,11.438z"/>
		<path fill="#2B3332" d="M20.886,12.562c0,0,1.163-0.042,1.344,0.125c0.344,1.062-0.344,3.406-0.719,3.375
			C21.074,16.026,20.886,12.562,20.886,12.562z"/>
		<path fill="#EDEEEE" d="M21.853,9.159c0.656,1.37,1.047,2.939,1.084,4.542c-1.012-0.311-3.012-0.58-3.912-0.652
			c-0.147-0.012-0.248-0.148-0.22-0.293C18.962,11.961,19.619,9.711,21.853,9.159z"/>
		<path fill="#7D3119" d="M20.711,9.679c0.363,0.259,0.628,1.027,0.628,1.946c0,0.688-0.149,1.293-0.375,1.664
			c-0.387-0.061-0.769-0.113-1.113-0.155c-0.179-0.374-0.293-0.909-0.293-1.509c0-0.322,0.035-0.623,0.093-0.894
			C19.918,10.341,20.268,9.976,20.711,9.679z"/>
		<ellipse fill="#2B3332" cx="20.48" cy="11.719" rx="0.297" ry="0.75"/>
	</g>
	<path fill="#E7685F" d="M16,15.75c-0.713,0-1.247-0.201-1.509-0.229c-0.097-0.01-0.174,0.068-0.162,0.165
		c0.063,0.539,0.359,2.064,1.671,2.064V15.75z"/>
	<path fill="#E55D53" d="M16,15.75c0.713,0,1.247-0.201,1.509-0.229c0.097-0.01,0.174,0.068,0.162,0.165
		C17.607,16.225,17.312,17.75,16,17.75V15.75z"/>
</g>
</svg>
