<?xml version="1.0" encoding="utf-8"?>
<!-- Generator: Adobe Illustrator 21.0.2, SVG Export Plug-In . SVG Version: 6.00 Build 0)  -->
<svg version="1.1" id="icons" xmlns="http://www.w3.org/2000/svg" xmlns:xlink="http://www.w3.org/1999/xlink" x="0px" y="0px"
	 width="32px" height="32px" viewBox="0 0 32 32" enable-background="new 0 0 32 32" xml:space="preserve">
<g>
	<path fill="#A8B875" d="M0.5,7.409c0,0,0.182,0.38,0.888,1.397L0.529,10.88c-0.018,0.049-0.009,0.103,0.023,0.144l0.827,1.058
		c0,0,0.133,0.237,0.331-0.044c0.612-0.871,1.25-1.788,1.25-1.788c0.032,0.161-0.438,1.326-0.771,2.509
		c-0.013,0.047-0.003,0.097,0.028,0.135l0.981,1.226c0.067,0.084,0.196,0.074,0.248-0.019c0.188-0.34,0.418-0.825,0.972-1.726
		c-0.081,0.57-0.242,1.14-0.638,2.254c-0.017,0.047-0.011,0.104,0.019,0.144l1.045,1.405c0.059,0.079,0.181,0.075,0.242-0.002
		c0.547-0.684,0.61-0.762,0.999-1.384c-0.04,0.645-0.432,1.329-0.684,2.053C5.384,16.89,5.391,16.94,5.418,16.98l1.138,1.688
		c0.056,0.083,0.18,0.085,0.244,0.009c0.453-0.541,0.701-0.935,1.159-1.469c0.075,0.357-0.417,1.681-0.862,2.413
		c-0.033,0.055-0.027,0.12,0.014,0.169l1.483,1.773c0.072,0.086,0.208,0.067,0.252-0.036c0.174-0.406,0.553-1.295,0.862-2.069
		c0.146,0.875-0.187,2.581-0.272,2.992c-0.012,0.058,0.012,0.113,0.061,0.148l3.461,0.568l1.708-6.333l-0.178-0.209H13l-7-10
		L1.25,2.563L0.5,7.409z"/>
	<path fill="#CDD4AD" d="M14.26,15.73l-1.795,6.655l-2.324-1.648c-0.051-0.036-0.077-0.094-0.064-0.156
		c0.09-0.433,0.44-2.225,0.286-3.144c-0.325,0.813-0.723,1.748-0.906,2.174c-0.046,0.108-0.19,0.128-0.265,0.038l-1.559-1.863
		c-0.043-0.052-0.05-0.12-0.015-0.177c0.468-0.769,0.985-2.161,0.906-2.536c-0.48,0.56-0.741,0.975-1.217,1.543
		c-0.067,0.08-0.198,0.078-0.257-0.009l-1.195-1.774c-0.028-0.042-0.036-0.095-0.019-0.143c0.265-0.76,0.676-1.479,0.718-2.157
		c-0.408,0.653-0.474,0.735-1.049,1.454C5.44,14.068,5.312,14.073,5.25,13.99l-1.098-1.477c-0.031-0.042-0.038-0.102-0.02-0.151
		c0.416-1.17,0.585-1.769,0.671-2.368c-0.583,0.947-0.825,1.457-1.022,1.814c-0.054,0.098-0.19,0.108-0.261,0.02l-1.031-1.289
		c-0.032-0.04-0.043-0.093-0.029-0.142C2.81,9.154,3.304,7.93,3.27,7.761c0,0-0.67,0.964-1.313,1.879
		C1.749,9.936,1.61,9.687,1.61,9.687L0.741,8.575c-0.034-0.043-0.043-0.1-0.024-0.152l1.02-2.764
		c-0.501,0.854-0.93,1.482-1.352,2.166C0.22,8.094,0.055,7.796,0.055,7.796L0,7.719V5.307l1.012-1.993
		C0.817,3.099,0.65,2.913,0.5,2.745L0,1.566l5.153,3.435l7.356,10.509h1.565L14.26,15.73z"/>
	<path fill="#CB412A" d="M0.351,5.997C0.316,6.049,0.316,6.118,0.353,6.169l0.796,1.114c0,0,0.157,0.284,0.315,0.028
		C1.865,6.66,2.273,6.063,2.75,5.25L1.779,7.88C1.761,7.929,1.769,7.983,1.801,8.024l0.827,1.058c0,0,0.133,0.237,0.331-0.044
		c0.612-0.871,1.25-1.788,1.25-1.788C4.241,7.411,3.77,8.576,3.437,9.759C3.424,9.805,3.435,9.856,3.465,9.894l0.981,1.226
		c0.067,0.084,0.196,0.074,0.248-0.019c0.188-0.34,0.418-0.825,0.972-1.726c-0.081,0.57-0.242,1.14-0.638,2.254
		c-0.017,0.047-0.011,0.104,0.019,0.144l1.045,1.405c0.059,0.079,0.181,0.075,0.242-0.002c0.547-0.684,0.61-0.762,0.999-1.384
		c-0.04,0.645-0.432,1.329-0.684,2.053C6.634,13.89,6.641,13.94,6.668,13.98l1.138,1.688c0.056,0.083,0.18,0.085,0.244,0.009
		c0.453-0.541,0.701-0.935,1.159-1.469c0.075,0.357-0.417,1.681-0.862,2.413c-0.033,0.055-0.027,0.12,0.014,0.169l1.483,1.773
		c0.072,0.086,0.208,0.067,0.252-0.036c0.174-0.406,0.553-1.295,0.862-2.069c0.146,0.875-0.187,2.581-0.272,2.992
		c-0.012,0.058,0.012,0.113,0.061,0.148l2.211,1.568l1.708-6.333l-0.178-0.209H13l-7-10L0.02,0.638L0,2.417
		C0.5,3,0.833,3.375,1.583,4.208L0.351,5.997z"/>
	<path fill="#AD4630" d="M0.351,5.997C0.316,6.049,0.316,6.118,0.353,6.169l0.796,1.114c0,0,0.157,0.284,0.315,0.028
		C1.865,6.66,2.273,6.063,2.75,5.25L1.779,7.88C1.761,7.929,1.769,7.983,1.801,8.024l0.827,1.058c0,0,0.133,0.237,0.331-0.044
		c0.612-0.871,1.25-1.788,1.25-1.788C4.241,7.411,3.77,8.576,3.437,9.759C3.424,9.805,3.435,9.856,3.465,9.894l0.981,1.226
		c0.067,0.084,0.196,0.074,0.248-0.019c0.188-0.34,0.418-0.825,0.972-1.726c-0.081,0.57-0.242,1.14-0.638,2.254
		c-0.017,0.047-0.011,0.104,0.019,0.144l1.045,1.405c0.059,0.079,0.181,0.075,0.242-0.002c0.547-0.684,0.61-0.762,0.999-1.384
		c-0.04,0.645-0.432,1.329-0.684,2.053C6.634,13.89,6.641,13.94,6.668,13.98l1.138,1.688c0.056,0.083,0.18,0.085,0.244,0.009
		c0.453-0.541,0.701-0.935,1.159-1.469c0.075,0.357-0.417,1.681-0.862,2.413c-0.033,0.055-0.027,0.12,0.014,0.169l1.483,1.773
		c0.072,0.086,0.208,0.067,0.252-0.036c0.174-0.406,0.553-1.295,0.862-2.069c0.146,0.875-0.187,2.581-0.272,2.992
		c-0.012,0.058,0.012,0.113,0.061,0.148l2.211,1.568l1.708-6.333l-0.178-0.209H13l-7-10L0.02,0.638L0,2.417
		C0.5,3,0.833,3.375,1.583,4.208L0.351,5.997z"/>
	<path fill="#FFC550" d="M15.823,25.024l-1.626-1.626c-0.105-0.105-0.279-0.096-0.372,0.021l-3.501,4.376
		c-0.131,0.164-0.014,0.406,0.195,0.406H13l-0.665,1.995c-0.083,0.25,0.227,0.442,0.414,0.256L14,29.201l1.792,2.688
		C15.841,31.963,15.921,32,16,32v-6.903C15.936,25.097,15.872,25.073,15.823,25.024z"/>
	<path fill="#E55D53" d="M16,9.42v15.83c0,0-2.704,1.685-4.567-0.674c-1.224-1.55-0.609-3.863,0.536-6.107
		c0.781-1.531,3.375-4.281,2.347-9.845C14.748,8.449,16,9.42,16,9.42z"/>
	<path fill="#E3E5E5" d="M16,17.958v7.292c0,0-2.704,1.685-4.567-0.674c-1.224-1.55-0.609-3.863,0.536-6.107
		c0.305-0.597,0.885-1.38,1.419-2.442C13.625,17.125,15,17.958,16,17.958z"/>
	<path fill="#515E91" d="M12,23.624v1h-1.5c-0.276,0-0.5,0.224-0.5,0.5v0c0,0.276,0.224,0.5,0.5,0.5h0.793l-0.543,0.543
		c-0.195,0.195-0.195,0.512,0,0.707l0,0c0.195,0.195,0.512,0.195,0.707,0L12,26.331v0.793c0,0.276,0.224,0.5,0.5,0.5h0
		c0.276,0,0.5-0.224,0.5-0.5v-3.5H12z"/>
	<path fill="#9EB164" d="M32,6.659c0,0-0.682,1.13-1.388,2.147l0.859,2.074c0.018,0.049,0.009,0.103-0.023,0.144l-0.827,1.058
		c0,0-0.133,0.237-0.331-0.044c-0.612-0.871-1.25-1.788-1.25-1.788c-0.032,0.161,0.438,1.326,0.771,2.509
		c0.013,0.047,0.003,0.097-0.028,0.135l-0.981,1.226c-0.067,0.084-0.196,0.074-0.248-0.019c-0.188-0.34-0.418-0.825-0.972-1.726
		c0.081,0.57,0.242,1.14,0.638,2.254c0.017,0.047,0.011,0.104-0.019,0.144l-1.045,1.405c-0.059,0.079-0.181,0.075-0.242-0.002
		c-0.547-0.684-0.61-0.762-0.999-1.384c0.04,0.645,0.432,1.329,0.684,2.053c0.016,0.045,0.009,0.096-0.018,0.136l-1.138,1.688
		c-0.056,0.083-0.18,0.085-0.244,0.009c-0.453-0.541-0.701-0.935-1.159-1.469c-0.075,0.357,0.417,1.681,0.862,2.413
		c0.033,0.055,0.027,0.12-0.014,0.169l-1.483,1.773c-0.072,0.086-0.208,0.067-0.252-0.036c-0.174-0.406-0.553-1.295-0.862-2.069
		c-0.146,0.875,0.187,2.581,0.272,2.992c0.012,0.058-0.012,0.113-0.061,0.148l-3.461,0.568l-1.708-6.333l0.178-0.209H19l7-10
		l4.5-4.811L32,6.659z"/>
	<g>
		<path fill="none" d="M32,3.995v1.313l-0.512-0.743C31.683,4.349,31.85,4.163,32,3.995z"/>
		<path fill="#C0C998" d="M17.926,15.51h1.565l7.356-10.509L32,1.566l-0.5,1.179c-0.15,0.168-0.317,0.354-0.512,0.57L32,5.307v2.411
			l-0.055,0.077c0,0-0.165,0.298-0.331,0.029c-0.422-0.684-0.851-1.311-1.352-2.166l1.02,2.764c0.019,0.051,0.01,0.109-0.024,0.152
			L30.39,9.687c0,0-0.14,0.249-0.347-0.046C29.4,8.725,28.73,7.761,28.73,7.761c-0.034,0.169,0.461,1.393,0.81,2.636
			c0.014,0.049,0.003,0.102-0.029,0.142l-1.031,1.289c-0.07,0.088-0.206,0.078-0.261-0.02c-0.197-0.357-0.439-0.867-1.022-1.814
			c0.086,0.599,0.255,1.198,0.671,2.368c0.018,0.049,0.011,0.109-0.02,0.151L26.75,13.99c-0.062,0.083-0.19,0.078-0.255-0.002
			c-0.575-0.719-0.641-0.801-1.049-1.454c0.042,0.678,0.454,1.397,0.718,2.157c0.017,0.048,0.009,0.101-0.019,0.143l-1.195,1.774
			c-0.059,0.087-0.19,0.09-0.257,0.009c-0.476-0.569-0.737-0.983-1.217-1.543c-0.079,0.375,0.438,1.767,0.906,2.536
			c0.035,0.057,0.028,0.126-0.015,0.177l-1.559,1.863c-0.075,0.09-0.219,0.07-0.265-0.038c-0.183-0.426-0.581-1.361-0.906-2.174
			c-0.153,0.92,0.197,2.712,0.286,3.144c0.013,0.061-0.013,0.119-0.064,0.156l-2.324,1.648L17.74,15.73L17.926,15.51z"/>
	</g>
	<path fill="#CB412A" d="M31.649,5.997c0.036,0.052,0.035,0.121-0.001,0.172l-0.796,1.114c0,0-0.157,0.284-0.315,0.028
		c-0.401-0.651-0.81-1.248-1.287-2.061l0.971,2.63c0.018,0.049,0.009,0.103-0.023,0.144l-0.827,1.058c0,0-0.133,0.237-0.331-0.044
		c-0.612-0.871-1.25-1.788-1.25-1.788c-0.032,0.161,0.438,1.326,0.771,2.509c0.013,0.047,0.003,0.097-0.028,0.135l-0.981,1.226
		c-0.067,0.084-0.196,0.074-0.248-0.019c-0.188-0.34-0.418-0.825-0.972-1.726c0.081,0.57,0.242,1.14,0.638,2.254
		c0.017,0.047,0.011,0.104-0.019,0.144l-1.045,1.405c-0.059,0.079-0.181,0.075-0.242-0.002c-0.547-0.684-0.61-0.762-0.999-1.384
		c0.04,0.645,0.432,1.329,0.684,2.053c0.016,0.045,0.009,0.096-0.018,0.136l-1.138,1.688c-0.056,0.083-0.18,0.085-0.244,0.009
		c-0.453-0.541-0.701-0.935-1.159-1.469c-0.075,0.357,0.417,1.681,0.862,2.413c0.033,0.055,0.027,0.12-0.014,0.169l-1.483,1.773
		c-0.072,0.086-0.208,0.067-0.252-0.036c-0.174-0.406-0.553-1.295-0.862-2.069c-0.146,0.875,0.187,2.581,0.272,2.992
		c0.012,0.058-0.012,0.113-0.061,0.148l-2.211,1.568l-1.708-6.333l0.178-0.209H19l7-10l5.98-3.986L32,2.417
		C31.5,3,31.167,3.375,30.417,4.208L31.649,5.997z"/>
	<path fill="#A0422C" d="M31.649,5.997c0.036,0.052,0.035,0.121-0.001,0.172l-0.796,1.114c0,0-0.157,0.284-0.315,0.028
		c-0.401-0.651-0.81-1.248-1.287-2.061l0.971,2.63c0.018,0.049,0.009,0.103-0.023,0.144l-0.827,1.058c0,0-0.133,0.237-0.331-0.044
		c-0.612-0.871-1.25-1.788-1.25-1.788c-0.032,0.161,0.438,1.326,0.771,2.509c0.013,0.047,0.003,0.097-0.028,0.135l-0.981,1.226
		c-0.067,0.084-0.196,0.074-0.248-0.019c-0.188-0.34-0.418-0.825-0.972-1.726c0.081,0.57,0.242,1.14,0.638,2.254
		c0.017,0.047,0.011,0.104-0.019,0.144l-1.045,1.405c-0.059,0.079-0.181,0.075-0.242-0.002c-0.547-0.684-0.61-0.762-0.999-1.384
		c0.04,0.645,0.432,1.329,0.684,2.053c0.016,0.045,0.009,0.096-0.018,0.136l-1.138,1.688c-0.056,0.083-0.18,0.085-0.244,0.009
		c-0.453-0.541-0.701-0.935-1.159-1.469c-0.075,0.357,0.417,1.681,0.862,2.413c0.033,0.055,0.027,0.12-0.014,0.169l-1.483,1.773
		c-0.072,0.086-0.208,0.067-0.252-0.036c-0.174-0.406-0.553-1.295-0.862-2.069c-0.146,0.875,0.187,2.581,0.272,2.992
		c0.012,0.058-0.012,0.113-0.061,0.148l-2.211,1.568l-1.708-6.333l0.178-0.209H19l7-10l5.98-3.986L32,2.417
		C31.5,3,31.167,3.375,30.417,4.208L31.649,5.997z"/>
	<path fill="#EFB43F" d="M16.177,25.024l1.626-1.626c0.105-0.105,0.279-0.096,0.372,0.021l3.501,4.376
		c0.131,0.164,0.014,0.406-0.195,0.406H19l0.665,1.995c0.083,0.25-0.227,0.442-0.414,0.256L18,29.201l-1.792,2.688
		C16.159,31.963,16.079,32,16,32v-6.903C16.064,25.097,16.128,25.073,16.177,25.024z"/>
	<path fill="#D64F45" d="M16,9.42v15.83c0,0,2.704,1.685,4.567-0.674c1.224-1.55,0.609-3.863-0.536-6.107
		c-0.781-1.531-3.375-4.281-2.347-9.845C17.252,8.449,16,9.42,16,9.42z"/>
	<path fill="#DADDDC" d="M16,17.958v7.292c0,0,2.704,1.685,4.567-0.674c1.224-1.55,0.609-3.863-0.536-6.107
		c-0.305-0.597-0.885-1.38-1.419-2.442C18.375,17.125,17,17.958,16,17.958z"/>
	<path fill="#424B7E" d="M20,23.624v1h1.5c0.276,0,0.5,0.224,0.5,0.5v0c0,0.276-0.224,0.5-0.5,0.5h-0.793l0.543,0.543
		c0.195,0.195,0.195,0.512,0,0.707l0,0c-0.195,0.195-0.512,0.195-0.707,0L20,26.331v0.793c0,0.276-0.224,0.5-0.5,0.5h0
		c-0.276,0-0.5-0.224-0.5-0.5v-3.5H20z"/>
	<g>
		<path fill="#FFC550" d="M15.187,5.239c-0.015-1.205,0.209-1.971-1.012-2.475c-1.502-0.619-1.879-2.293-0.72-2.667
			c0.381-0.123,1.268-0.275,1.504,0.566c0.151,0.537-0.132,0.635-0.489,0.856c0.282,0.066,1.544-0.137,1.544,0.954v2.396
			L15.187,5.239z"/>
		<path fill="#E7685F" d="M16.014,4.691v8.306c-1.72,0-3.115-1.859-3.115-4.153S14.294,4.691,16.014,4.691z"/>
		<path fill="#EFB43F" d="M13.317,11.03c0.485,1.321,2.098,2.157,2.697,2.157v-3.057C16.014,10.131,14.366,10.531,13.317,11.03z"/>
		<g>
			<path fill="#373F3F" d="M15.697,7.298c-0.929-0.055-2.289-0.397-2.903-1.237c-0.092-0.126-0.292-0.083-0.327,0.069
				c-0.181,0.779-0.325,1.96,0.49,2.724c0.703,0.659,2.117,1.121,2.366,0.872S15.697,7.298,15.697,7.298z"/>
			<path fill="#FFFFFF" d="M15.697,7.814c-0.832-0.067-1.862-0.297-2.517-0.786c-0.11-0.082-0.27-0.02-0.291,0.115
				c-0.076,0.473-0.017,1.047,0.597,1.623c0.533,0.5,1.804,0.812,1.993,0.623S15.697,7.814,15.697,7.814z"/>
			<path fill="#B94A34" d="M14.92,9.409c0.315-0.093,0.575-0.305,0.71-0.6c0.031-0.254,0.047-0.533,0.056-0.732
				c-0.024-0.099-0.054-0.191-0.102-0.278c-0.524-0.05-1.099-0.171-1.62-0.371c-0.291,0.205-0.493,0.527-0.493,0.91
				c0,0.196,0.063,0.372,0.151,0.533C13.975,9.134,14.508,9.332,14.92,9.409z"/>
			<ellipse fill="#373F3F" cx="14.45" cy="8.414" rx="0.324" ry="0.485"/>
		</g>
		<path fill="#FFC550" d="M16.014,6.391c-0.384,0-0.722,2.504-1.294,3.054c-0.624,0.599-2.104,0.627-2.104,1.962
			c0.539-0.189,0.983-0.485,1.915-0.485c0.449,0,0.996,0.809,1.483,0.809V6.391z"/>
		<path fill="#EFB43F" d="M16.84,5.239c0.015-1.205-0.209-1.971,1.012-2.475c1.502-0.619,1.879-2.293,0.72-2.667
			c-0.381-0.123-1.268-0.275-1.504,0.566c-0.151,0.537,0.132,0.635,0.489,0.856c-0.282,0.066-1.544-0.137-1.544,0.954v2.396
			L16.84,5.239z"/>
		<path fill="#E55D53" d="M19.129,8.844c0,2.294-1.395,4.153-3.115,4.153V4.691C17.734,4.691,19.129,6.551,19.129,8.844z"/>
		<g>
		</g>
		<g>
			<path fill="#2B3332" d="M16.209,7.298c0.929-0.055,2.289-0.397,2.903-1.237c0.092-0.126,0.292-0.083,0.327,0.069
				c0.181,0.779,0.325,1.96-0.49,2.724c-0.703,0.659-2.117,1.121-2.366,0.872S16.209,7.298,16.209,7.298z"/>
			<path fill="#FFFFFF" d="M16.209,7.814c0.832-0.067,1.862-0.297,2.517-0.786c0.11-0.082,0.27-0.02,0.291,0.115
				c0.076,0.473,0.017,1.047-0.597,1.623c-0.533,0.5-1.804,0.812-1.993,0.623S16.209,7.814,16.209,7.814z"/>
			<path fill="#AD4630" d="M16.986,9.409c-0.315-0.093-0.575-0.305-0.71-0.6c-0.031-0.254-0.047-0.533-0.056-0.732
				c0.024-0.099,0.054-0.191,0.102-0.278c0.524-0.05,1.099-0.171,1.62-0.371c0.291,0.205,0.493,0.527,0.493,0.91
				c0,0.196-0.063,0.372-0.151,0.533C17.931,9.134,17.398,9.332,16.986,9.409z"/>
			<ellipse fill="#2B3332" cx="17.457" cy="8.414" rx="0.324" ry="0.485"/>
		</g>
		<path fill="#DDA32F" d="M18.711,11.03c-0.485,1.321-2.098,2.157-2.697,2.157v-3.057C16.014,10.131,17.662,10.531,18.711,11.03z"/>
		<path fill="#EFB43F" d="M16.014,6.391c0.384,0,0.722,2.504,1.294,3.054c0.624,0.599,2.104,0.627,2.104,1.962
			c-0.539-0.189-0.983-0.485-1.915-0.485c-0.449,0-0.996,0.809-1.483,0.809V6.391z"/>
	</g>
</g>
</svg>
